<?xml version="1.0" encoding="utf-8" standalone="no"?>
<!DOCTYPE svg PUBLIC "-//W3C//DTD SVG 1.1//EN"
  "http://www.w3.org/Graphics/SVG/1.1/DTD/svg11.dtd">
<svg xmlns:xlink="http://www.w3.org/1999/xlink" width="712.503125pt" height="423.754375pt" viewBox="0 0 712.503125 423.754375" xmlns="http://www.w3.org/2000/svg" version="1.1">
 <metadata>
  <rdf:RDF xmlns:dc="http://purl.org/dc/elements/1.1/" xmlns:cc="http://creativecommons.org/ns#" xmlns:rdf="http://www.w3.org/1999/02/22-rdf-syntax-ns#">
   <cc:Work>
    <dc:type rdf:resource="http://purl.org/dc/dcmitype/StillImage"/>
    <dc:date>2025-05-26T04:52:18.053335</dc:date>
    <dc:format>image/svg+xml</dc:format>
    <dc:creator>
     <cc:Agent>
      <dc:title>Matplotlib v3.9.2, https://matplotlib.org/</dc:title>
     </cc:Agent>
    </dc:creator>
   </cc:Work>
  </rdf:RDF>
 </metadata>
 <defs>
  <style type="text/css">*{stroke-linejoin: round; stroke-linecap: butt}</style>
 </defs>
 <g id="figure_1">
  <g id="patch_1">
   <path d="M 0 423.754375 
L 712.503125 423.754375 
L 712.503125 0 
L 0 0 
z
" style="fill: #ffffff"/>
  </g>
  <g id="axes_1">
   <g id="patch_2">
    <path d="M 66.053125 386.198125 
L 705.303125 386.198125 
L 705.303125 22.318125 
L 66.053125 22.318125 
z
" style="fill: #ffffff"/>
   </g>
   <g id="matplotlib.axis_1">
    <g id="xtick_1">
     <g id="line2d_1">
      <path d="M 75.070758 386.198125 
L 75.070758 22.318125 
" clip-path="url(#p461d016b59)" style="fill: none; stroke: #b0b0b0; stroke-width: 0.8; stroke-linecap: square"/>
     </g>
     <g id="line2d_2">
      <defs>
       <path id="ma10f28ae72" d="M 0 0 
L 0 3.5 
" style="stroke: #000000; stroke-width: 0.8"/>
      </defs>
      <g>
       <use xlink:href="#ma10f28ae72" x="75.070758" y="386.198125" style="stroke: #000000; stroke-width: 0.8"/>
      </g>
     </g>
     <g id="text_1">
      <!-- 0 -->
      <g transform="translate(71.889508 400.796562) scale(0.1 -0.1)">
       <defs>
        <path id="DejaVuSans-30" d="M 2034 4250 
Q 1547 4250 1301 3770 
Q 1056 3291 1056 2328 
Q 1056 1369 1301 889 
Q 1547 409 2034 409 
Q 2525 409 2770 889 
Q 3016 1369 3016 2328 
Q 3016 3291 2770 3770 
Q 2525 4250 2034 4250 
z
M 2034 4750 
Q 2819 4750 3233 4129 
Q 3647 3509 3647 2328 
Q 3647 1150 3233 529 
Q 2819 -91 2034 -91 
Q 1250 -91 836 529 
Q 422 1150 422 2328 
Q 422 3509 836 4129 
Q 1250 4750 2034 4750 
z
" transform="scale(0.015625)"/>
       </defs>
       <use xlink:href="#DejaVuSans-30"/>
      </g>
     </g>
    </g>
    <g id="xtick_2">
     <g id="line2d_3">
      <path d="M 175.266683 386.198125 
L 175.266683 22.318125 
" clip-path="url(#p461d016b59)" style="fill: none; stroke: #b0b0b0; stroke-width: 0.8; stroke-linecap: square"/>
     </g>
     <g id="line2d_4">
      <g>
       <use xlink:href="#ma10f28ae72" x="175.266683" y="386.198125" style="stroke: #000000; stroke-width: 0.8"/>
      </g>
     </g>
     <g id="text_2">
      <!-- 500 -->
      <g transform="translate(165.722933 400.796562) scale(0.1 -0.1)">
       <defs>
        <path id="DejaVuSans-35" d="M 691 4666 
L 3169 4666 
L 3169 4134 
L 1269 4134 
L 1269 2991 
Q 1406 3038 1543 3061 
Q 1681 3084 1819 3084 
Q 2600 3084 3056 2656 
Q 3513 2228 3513 1497 
Q 3513 744 3044 326 
Q 2575 -91 1722 -91 
Q 1428 -91 1123 -41 
Q 819 9 494 109 
L 494 744 
Q 775 591 1075 516 
Q 1375 441 1709 441 
Q 2250 441 2565 725 
Q 2881 1009 2881 1497 
Q 2881 1984 2565 2268 
Q 2250 2553 1709 2553 
Q 1456 2553 1204 2497 
Q 953 2441 691 2322 
L 691 4666 
z
" transform="scale(0.015625)"/>
       </defs>
       <use xlink:href="#DejaVuSans-35"/>
       <use xlink:href="#DejaVuSans-30" x="63.623047"/>
       <use xlink:href="#DejaVuSans-30" x="127.246094"/>
      </g>
     </g>
    </g>
    <g id="xtick_3">
     <g id="line2d_5">
      <path d="M 275.462608 386.198125 
L 275.462608 22.318125 
" clip-path="url(#p461d016b59)" style="fill: none; stroke: #b0b0b0; stroke-width: 0.8; stroke-linecap: square"/>
     </g>
     <g id="line2d_6">
      <g>
       <use xlink:href="#ma10f28ae72" x="275.462608" y="386.198125" style="stroke: #000000; stroke-width: 0.8"/>
      </g>
     </g>
     <g id="text_3">
      <!-- 1000 -->
      <g transform="translate(262.737608 400.796562) scale(0.1 -0.1)">
       <defs>
        <path id="DejaVuSans-31" d="M 794 531 
L 1825 531 
L 1825 4091 
L 703 3866 
L 703 4441 
L 1819 4666 
L 2450 4666 
L 2450 531 
L 3481 531 
L 3481 0 
L 794 0 
L 794 531 
z
" transform="scale(0.015625)"/>
       </defs>
       <use xlink:href="#DejaVuSans-31"/>
       <use xlink:href="#DejaVuSans-30" x="63.623047"/>
       <use xlink:href="#DejaVuSans-30" x="127.246094"/>
       <use xlink:href="#DejaVuSans-30" x="190.869141"/>
      </g>
     </g>
    </g>
    <g id="xtick_4">
     <g id="line2d_7">
      <path d="M 375.658533 386.198125 
L 375.658533 22.318125 
" clip-path="url(#p461d016b59)" style="fill: none; stroke: #b0b0b0; stroke-width: 0.8; stroke-linecap: square"/>
     </g>
     <g id="line2d_8">
      <g>
       <use xlink:href="#ma10f28ae72" x="375.658533" y="386.198125" style="stroke: #000000; stroke-width: 0.8"/>
      </g>
     </g>
     <g id="text_4">
      <!-- 1500 -->
      <g transform="translate(362.933533 400.796562) scale(0.1 -0.1)">
       <use xlink:href="#DejaVuSans-31"/>
       <use xlink:href="#DejaVuSans-35" x="63.623047"/>
       <use xlink:href="#DejaVuSans-30" x="127.246094"/>
       <use xlink:href="#DejaVuSans-30" x="190.869141"/>
      </g>
     </g>
    </g>
    <g id="xtick_5">
     <g id="line2d_9">
      <path d="M 475.854457 386.198125 
L 475.854457 22.318125 
" clip-path="url(#p461d016b59)" style="fill: none; stroke: #b0b0b0; stroke-width: 0.8; stroke-linecap: square"/>
     </g>
     <g id="line2d_10">
      <g>
       <use xlink:href="#ma10f28ae72" x="475.854457" y="386.198125" style="stroke: #000000; stroke-width: 0.8"/>
      </g>
     </g>
     <g id="text_5">
      <!-- 2000 -->
      <g transform="translate(463.129457 400.796562) scale(0.1 -0.1)">
       <defs>
        <path id="DejaVuSans-32" d="M 1228 531 
L 3431 531 
L 3431 0 
L 469 0 
L 469 531 
Q 828 903 1448 1529 
Q 2069 2156 2228 2338 
Q 2531 2678 2651 2914 
Q 2772 3150 2772 3378 
Q 2772 3750 2511 3984 
Q 2250 4219 1831 4219 
Q 1534 4219 1204 4116 
Q 875 4013 500 3803 
L 500 4441 
Q 881 4594 1212 4672 
Q 1544 4750 1819 4750 
Q 2544 4750 2975 4387 
Q 3406 4025 3406 3419 
Q 3406 3131 3298 2873 
Q 3191 2616 2906 2266 
Q 2828 2175 2409 1742 
Q 1991 1309 1228 531 
z
" transform="scale(0.015625)"/>
       </defs>
       <use xlink:href="#DejaVuSans-32"/>
       <use xlink:href="#DejaVuSans-30" x="63.623047"/>
       <use xlink:href="#DejaVuSans-30" x="127.246094"/>
       <use xlink:href="#DejaVuSans-30" x="190.869141"/>
      </g>
     </g>
    </g>
    <g id="xtick_6">
     <g id="line2d_11">
      <path d="M 576.050382 386.198125 
L 576.050382 22.318125 
" clip-path="url(#p461d016b59)" style="fill: none; stroke: #b0b0b0; stroke-width: 0.8; stroke-linecap: square"/>
     </g>
     <g id="line2d_12">
      <g>
       <use xlink:href="#ma10f28ae72" x="576.050382" y="386.198125" style="stroke: #000000; stroke-width: 0.8"/>
      </g>
     </g>
     <g id="text_6">
      <!-- 2500 -->
      <g transform="translate(563.325382 400.796562) scale(0.1 -0.1)">
       <use xlink:href="#DejaVuSans-32"/>
       <use xlink:href="#DejaVuSans-35" x="63.623047"/>
       <use xlink:href="#DejaVuSans-30" x="127.246094"/>
       <use xlink:href="#DejaVuSans-30" x="190.869141"/>
      </g>
     </g>
    </g>
    <g id="xtick_7">
     <g id="line2d_13">
      <path d="M 676.246307 386.198125 
L 676.246307 22.318125 
" clip-path="url(#p461d016b59)" style="fill: none; stroke: #b0b0b0; stroke-width: 0.8; stroke-linecap: square"/>
     </g>
     <g id="line2d_14">
      <g>
       <use xlink:href="#ma10f28ae72" x="676.246307" y="386.198125" style="stroke: #000000; stroke-width: 0.8"/>
      </g>
     </g>
     <g id="text_7">
      <!-- 3000 -->
      <g transform="translate(663.521307 400.796562) scale(0.1 -0.1)">
       <defs>
        <path id="DejaVuSans-33" d="M 2597 2516 
Q 3050 2419 3304 2112 
Q 3559 1806 3559 1356 
Q 3559 666 3084 287 
Q 2609 -91 1734 -91 
Q 1441 -91 1130 -33 
Q 819 25 488 141 
L 488 750 
Q 750 597 1062 519 
Q 1375 441 1716 441 
Q 2309 441 2620 675 
Q 2931 909 2931 1356 
Q 2931 1769 2642 2001 
Q 2353 2234 1838 2234 
L 1294 2234 
L 1294 2753 
L 1863 2753 
Q 2328 2753 2575 2939 
Q 2822 3125 2822 3475 
Q 2822 3834 2567 4026 
Q 2313 4219 1838 4219 
Q 1578 4219 1281 4162 
Q 984 4106 628 3988 
L 628 4550 
Q 988 4650 1302 4700 
Q 1616 4750 1894 4750 
Q 2613 4750 3031 4423 
Q 3450 4097 3450 3541 
Q 3450 3153 3228 2886 
Q 3006 2619 2597 2516 
z
" transform="scale(0.015625)"/>
       </defs>
       <use xlink:href="#DejaVuSans-33"/>
       <use xlink:href="#DejaVuSans-30" x="63.623047"/>
       <use xlink:href="#DejaVuSans-30" x="127.246094"/>
       <use xlink:href="#DejaVuSans-30" x="190.869141"/>
      </g>
     </g>
    </g>
    <g id="text_8">
     <!-- Размер данных (N) -->
     <g transform="translate(336.132031 414.474687) scale(0.1 -0.1)">
      <defs>
       <path id="DejaVuSans-420" d="M 1259 4147 
L 1259 2394 
L 2053 2394 
Q 2494 2394 2734 2622 
Q 2975 2850 2975 3272 
Q 2975 3691 2734 3919 
Q 2494 4147 2053 4147 
L 1259 4147 
z
M 628 4666 
L 2053 4666 
Q 2838 4666 3239 4311 
Q 3641 3956 3641 3272 
Q 3641 2581 3239 2228 
Q 2838 1875 2053 1875 
L 1259 1875 
L 1259 0 
L 628 0 
L 628 4666 
z
" transform="scale(0.015625)"/>
       <path id="DejaVuSans-430" d="M 2194 1759 
Q 1497 1759 1228 1600 
Q 959 1441 959 1056 
Q 959 750 1161 570 
Q 1363 391 1709 391 
Q 2188 391 2477 730 
Q 2766 1069 2766 1631 
L 2766 1759 
L 2194 1759 
z
M 3341 1997 
L 3341 0 
L 2766 0 
L 2766 531 
Q 2569 213 2275 61 
Q 1981 -91 1556 -91 
Q 1019 -91 701 211 
Q 384 513 384 1019 
Q 384 1609 779 1909 
Q 1175 2209 1959 2209 
L 2766 2209 
L 2766 2266 
Q 2766 2663 2505 2880 
Q 2244 3097 1772 3097 
Q 1472 3097 1187 3025 
Q 903 2953 641 2809 
L 641 3341 
Q 956 3463 1253 3523 
Q 1550 3584 1831 3584 
Q 2591 3584 2966 3190 
Q 3341 2797 3341 1997 
z
" transform="scale(0.015625)"/>
       <path id="DejaVuSans-437" d="M 2206 1888 
Q 2594 1813 2809 1584 
Q 3025 1356 3025 1019 
Q 3025 478 2622 193 
Q 2219 -91 1475 -91 
Q 1225 -91 961 -47 
Q 697 -3 416 84 
L 416 619 
Q 638 503 903 445 
Q 1169 388 1459 388 
Q 1931 388 2195 563 
Q 2459 738 2459 1019 
Q 2459 1294 2225 1461 
Q 1991 1628 1563 1628 
L 1100 1628 
L 1100 2103 
L 1584 2103 
Q 1947 2103 2158 2242 
Q 2369 2381 2369 2600 
Q 2369 2800 2151 2944 
Q 1934 3088 1563 3088 
Q 1341 3088 1089 3047 
Q 838 3006 534 2916 
L 534 3438 
Q 841 3513 1106 3550 
Q 1372 3588 1609 3588 
Q 2222 3588 2576 3342 
Q 2931 3097 2931 2656 
Q 2931 2366 2743 2164 
Q 2556 1963 2206 1888 
z
" transform="scale(0.015625)"/>
       <path id="DejaVuSans-43c" d="M 581 3500 
L 1422 3500 
L 2416 1156 
L 3413 3500 
L 4247 3500 
L 4247 0 
L 3669 0 
L 3669 2950 
L 2703 672 
L 2128 672 
L 1159 2950 
L 1159 0 
L 581 0 
L 581 3500 
z
" transform="scale(0.015625)"/>
       <path id="DejaVuSans-435" d="M 3597 1894 
L 3597 1613 
L 953 1613 
Q 991 1019 1311 708 
Q 1631 397 2203 397 
Q 2534 397 2845 478 
Q 3156 559 3463 722 
L 3463 178 
Q 3153 47 2828 -22 
Q 2503 -91 2169 -91 
Q 1331 -91 842 396 
Q 353 884 353 1716 
Q 353 2575 817 3079 
Q 1281 3584 2069 3584 
Q 2775 3584 3186 3129 
Q 3597 2675 3597 1894 
z
M 3022 2063 
Q 3016 2534 2758 2815 
Q 2500 3097 2075 3097 
Q 1594 3097 1305 2825 
Q 1016 2553 972 2059 
L 3022 2063 
z
" transform="scale(0.015625)"/>
       <path id="DejaVuSans-440" d="M 1159 525 
L 1159 -1331 
L 581 -1331 
L 581 3500 
L 1159 3500 
L 1159 2969 
Q 1341 3281 1617 3432 
Q 1894 3584 2278 3584 
Q 2916 3584 3314 3078 
Q 3713 2572 3713 1747 
Q 3713 922 3314 415 
Q 2916 -91 2278 -91 
Q 1894 -91 1617 61 
Q 1341 213 1159 525 
z
M 3116 1747 
Q 3116 2381 2855 2742 
Q 2594 3103 2138 3103 
Q 1681 3103 1420 2742 
Q 1159 2381 1159 1747 
Q 1159 1113 1420 752 
Q 1681 391 2138 391 
Q 2594 391 2855 752 
Q 3116 1113 3116 1747 
z
" transform="scale(0.015625)"/>
       <path id="DejaVuSans-20" transform="scale(0.015625)"/>
       <path id="DejaVuSans-434" d="M 1384 459 
L 3053 459 
L 3053 3041 
L 1844 3041 
L 1844 2603 
Q 1844 1316 1475 628 
L 1384 459 
z
M 550 459 
Q 834 584 959 850 
Q 1266 1509 1266 2838 
L 1266 3500 
L 3631 3500 
L 3631 459 
L 4091 459 
L 4091 -884 
L 3631 -884 
L 3631 0 
L 794 0 
L 794 -884 
L 334 -884 
L 334 459 
L 550 459 
z
" transform="scale(0.015625)"/>
       <path id="DejaVuSans-43d" d="M 581 3500 
L 1159 3500 
L 1159 2072 
L 3025 2072 
L 3025 3500 
L 3603 3500 
L 3603 0 
L 3025 0 
L 3025 1613 
L 1159 1613 
L 1159 0 
L 581 0 
L 581 3500 
z
" transform="scale(0.015625)"/>
       <path id="DejaVuSans-44b" d="M 3909 3500 
L 4484 3500 
L 4484 0 
L 3909 0 
L 3909 3500 
z
M 4197 3584 
L 4197 3584 
z
M 2781 1038 
Q 2781 1319 2576 1466 
Q 2372 1613 1978 1613 
L 1159 1613 
L 1159 459 
L 1978 459 
Q 2372 459 2576 607 
Q 2781 756 2781 1038 
z
M 581 3500 
L 1159 3500 
L 1159 2072 
L 2003 2072 
Q 2672 2072 3033 1817 
Q 3394 1563 3394 1038 
Q 3394 513 3033 256 
Q 2672 0 2003 0 
L 581 0 
L 581 3500 
z
" transform="scale(0.015625)"/>
       <path id="DejaVuSans-445" d="M 3513 3500 
L 2247 1797 
L 3578 0 
L 2900 0 
L 1881 1375 
L 863 0 
L 184 0 
L 1544 1831 
L 300 3500 
L 978 3500 
L 1906 2253 
L 2834 3500 
L 3513 3500 
z
" transform="scale(0.015625)"/>
       <path id="DejaVuSans-28" d="M 1984 4856 
Q 1566 4138 1362 3434 
Q 1159 2731 1159 2009 
Q 1159 1288 1364 580 
Q 1569 -128 1984 -844 
L 1484 -844 
Q 1016 -109 783 600 
Q 550 1309 550 2009 
Q 550 2706 781 3412 
Q 1013 4119 1484 4856 
L 1984 4856 
z
" transform="scale(0.015625)"/>
       <path id="DejaVuSans-4e" d="M 628 4666 
L 1478 4666 
L 3547 763 
L 3547 4666 
L 4159 4666 
L 4159 0 
L 3309 0 
L 1241 3903 
L 1241 0 
L 628 0 
L 628 4666 
z
" transform="scale(0.015625)"/>
       <path id="DejaVuSans-29" d="M 513 4856 
L 1013 4856 
Q 1481 4119 1714 3412 
Q 1947 2706 1947 2009 
Q 1947 1309 1714 600 
Q 1481 -109 1013 -844 
L 513 -844 
Q 928 -128 1133 580 
Q 1338 1288 1338 2009 
Q 1338 2731 1133 3434 
Q 928 4138 513 4856 
z
" transform="scale(0.015625)"/>
      </defs>
      <use xlink:href="#DejaVuSans-420"/>
      <use xlink:href="#DejaVuSans-430" x="60.302734"/>
      <use xlink:href="#DejaVuSans-437" x="121.582031"/>
      <use xlink:href="#DejaVuSans-43c" x="174.755859"/>
      <use xlink:href="#DejaVuSans-435" x="250.195312"/>
      <use xlink:href="#DejaVuSans-440" x="311.71875"/>
      <use xlink:href="#DejaVuSans-20" x="375.195312"/>
      <use xlink:href="#DejaVuSans-434" x="406.982422"/>
      <use xlink:href="#DejaVuSans-430" x="476.123047"/>
      <use xlink:href="#DejaVuSans-43d" x="537.402344"/>
      <use xlink:href="#DejaVuSans-43d" x="602.783203"/>
      <use xlink:href="#DejaVuSans-44b" x="668.164062"/>
      <use xlink:href="#DejaVuSans-445" x="747.119141"/>
      <use xlink:href="#DejaVuSans-20" x="806.298828"/>
      <use xlink:href="#DejaVuSans-28" x="838.085938"/>
      <use xlink:href="#DejaVuSans-4e" x="877.099609"/>
      <use xlink:href="#DejaVuSans-29" x="951.904297"/>
     </g>
    </g>
   </g>
   <g id="matplotlib.axis_2">
    <g id="ytick_1">
     <g id="line2d_15">
      <path d="M 66.053125 371.224056 
L 705.303125 371.224056 
" clip-path="url(#p461d016b59)" style="fill: none; stroke: #b0b0b0; stroke-width: 0.8; stroke-linecap: square"/>
     </g>
     <g id="line2d_16">
      <defs>
       <path id="m0069d44e22" d="M 0 0 
L -3.5 0 
" style="stroke: #000000; stroke-width: 0.8"/>
      </defs>
      <g>
       <use xlink:href="#m0069d44e22" x="66.053125" y="371.224056" style="stroke: #000000; stroke-width: 0.8"/>
      </g>
     </g>
     <g id="text_9">
      <!-- 0 -->
      <g transform="translate(52.690625 375.023275) scale(0.1 -0.1)">
       <use xlink:href="#DejaVuSans-30"/>
      </g>
     </g>
    </g>
    <g id="ytick_2">
     <g id="line2d_17">
      <path d="M 66.053125 313.226616 
L 705.303125 313.226616 
" clip-path="url(#p461d016b59)" style="fill: none; stroke: #b0b0b0; stroke-width: 0.8; stroke-linecap: square"/>
     </g>
     <g id="line2d_18">
      <g>
       <use xlink:href="#m0069d44e22" x="66.053125" y="313.226616" style="stroke: #000000; stroke-width: 0.8"/>
      </g>
     </g>
     <g id="text_10">
      <!-- 50000 -->
      <g transform="translate(27.240625 317.025834) scale(0.1 -0.1)">
       <use xlink:href="#DejaVuSans-35"/>
       <use xlink:href="#DejaVuSans-30" x="63.623047"/>
       <use xlink:href="#DejaVuSans-30" x="127.246094"/>
       <use xlink:href="#DejaVuSans-30" x="190.869141"/>
       <use xlink:href="#DejaVuSans-30" x="254.492188"/>
      </g>
     </g>
    </g>
    <g id="ytick_3">
     <g id="line2d_19">
      <path d="M 66.053125 255.229175 
L 705.303125 255.229175 
" clip-path="url(#p461d016b59)" style="fill: none; stroke: #b0b0b0; stroke-width: 0.8; stroke-linecap: square"/>
     </g>
     <g id="line2d_20">
      <g>
       <use xlink:href="#m0069d44e22" x="66.053125" y="255.229175" style="stroke: #000000; stroke-width: 0.8"/>
      </g>
     </g>
     <g id="text_11">
      <!-- 100000 -->
      <g transform="translate(20.878125 259.028394) scale(0.1 -0.1)">
       <use xlink:href="#DejaVuSans-31"/>
       <use xlink:href="#DejaVuSans-30" x="63.623047"/>
       <use xlink:href="#DejaVuSans-30" x="127.246094"/>
       <use xlink:href="#DejaVuSans-30" x="190.869141"/>
       <use xlink:href="#DejaVuSans-30" x="254.492188"/>
       <use xlink:href="#DejaVuSans-30" x="318.115234"/>
      </g>
     </g>
    </g>
    <g id="ytick_4">
     <g id="line2d_21">
      <path d="M 66.053125 197.231735 
L 705.303125 197.231735 
" clip-path="url(#p461d016b59)" style="fill: none; stroke: #b0b0b0; stroke-width: 0.8; stroke-linecap: square"/>
     </g>
     <g id="line2d_22">
      <g>
       <use xlink:href="#m0069d44e22" x="66.053125" y="197.231735" style="stroke: #000000; stroke-width: 0.8"/>
      </g>
     </g>
     <g id="text_12">
      <!-- 150000 -->
      <g transform="translate(20.878125 201.030954) scale(0.1 -0.1)">
       <use xlink:href="#DejaVuSans-31"/>
       <use xlink:href="#DejaVuSans-35" x="63.623047"/>
       <use xlink:href="#DejaVuSans-30" x="127.246094"/>
       <use xlink:href="#DejaVuSans-30" x="190.869141"/>
       <use xlink:href="#DejaVuSans-30" x="254.492188"/>
       <use xlink:href="#DejaVuSans-30" x="318.115234"/>
      </g>
     </g>
    </g>
    <g id="ytick_5">
     <g id="line2d_23">
      <path d="M 66.053125 139.234295 
L 705.303125 139.234295 
" clip-path="url(#p461d016b59)" style="fill: none; stroke: #b0b0b0; stroke-width: 0.8; stroke-linecap: square"/>
     </g>
     <g id="line2d_24">
      <g>
       <use xlink:href="#m0069d44e22" x="66.053125" y="139.234295" style="stroke: #000000; stroke-width: 0.8"/>
      </g>
     </g>
     <g id="text_13">
      <!-- 200000 -->
      <g transform="translate(20.878125 143.033514) scale(0.1 -0.1)">
       <use xlink:href="#DejaVuSans-32"/>
       <use xlink:href="#DejaVuSans-30" x="63.623047"/>
       <use xlink:href="#DejaVuSans-30" x="127.246094"/>
       <use xlink:href="#DejaVuSans-30" x="190.869141"/>
       <use xlink:href="#DejaVuSans-30" x="254.492188"/>
       <use xlink:href="#DejaVuSans-30" x="318.115234"/>
      </g>
     </g>
    </g>
    <g id="ytick_6">
     <g id="line2d_25">
      <path d="M 66.053125 81.236855 
L 705.303125 81.236855 
" clip-path="url(#p461d016b59)" style="fill: none; stroke: #b0b0b0; stroke-width: 0.8; stroke-linecap: square"/>
     </g>
     <g id="line2d_26">
      <g>
       <use xlink:href="#m0069d44e22" x="66.053125" y="81.236855" style="stroke: #000000; stroke-width: 0.8"/>
      </g>
     </g>
     <g id="text_14">
      <!-- 250000 -->
      <g transform="translate(20.878125 85.036073) scale(0.1 -0.1)">
       <use xlink:href="#DejaVuSans-32"/>
       <use xlink:href="#DejaVuSans-35" x="63.623047"/>
       <use xlink:href="#DejaVuSans-30" x="127.246094"/>
       <use xlink:href="#DejaVuSans-30" x="190.869141"/>
       <use xlink:href="#DejaVuSans-30" x="254.492188"/>
       <use xlink:href="#DejaVuSans-30" x="318.115234"/>
      </g>
     </g>
    </g>
    <g id="ytick_7">
     <g id="line2d_27">
      <path d="M 66.053125 23.239414 
L 705.303125 23.239414 
" clip-path="url(#p461d016b59)" style="fill: none; stroke: #b0b0b0; stroke-width: 0.8; stroke-linecap: square"/>
     </g>
     <g id="line2d_28">
      <g>
       <use xlink:href="#m0069d44e22" x="66.053125" y="23.239414" style="stroke: #000000; stroke-width: 0.8"/>
      </g>
     </g>
     <g id="text_15">
      <!-- 300000 -->
      <g transform="translate(20.878125 27.038633) scale(0.1 -0.1)">
       <use xlink:href="#DejaVuSans-33"/>
       <use xlink:href="#DejaVuSans-30" x="63.623047"/>
       <use xlink:href="#DejaVuSans-30" x="127.246094"/>
       <use xlink:href="#DejaVuSans-30" x="190.869141"/>
       <use xlink:href="#DejaVuSans-30" x="254.492188"/>
       <use xlink:href="#DejaVuSans-30" x="318.115234"/>
      </g>
     </g>
    </g>
    <g id="text_16">
     <!-- Количество сравнений -->
     <g transform="translate(14.798438 264.647187) rotate(-90) scale(0.1 -0.1)">
      <defs>
       <path id="DejaVuSans-41a" d="M 628 4666 
L 1259 4666 
L 1259 2359 
L 3516 4666 
L 4325 4666 
L 2522 2822 
L 4419 0 
L 3731 0 
L 2113 2403 
L 1259 1531 
L 1259 0 
L 628 0 
L 628 4666 
z
" transform="scale(0.015625)"/>
       <path id="DejaVuSans-43e" d="M 1959 3097 
Q 1497 3097 1228 2736 
Q 959 2375 959 1747 
Q 959 1119 1226 758 
Q 1494 397 1959 397 
Q 2419 397 2687 759 
Q 2956 1122 2956 1747 
Q 2956 2369 2687 2733 
Q 2419 3097 1959 3097 
z
M 1959 3584 
Q 2709 3584 3137 3096 
Q 3566 2609 3566 1747 
Q 3566 888 3137 398 
Q 2709 -91 1959 -91 
Q 1206 -91 779 398 
Q 353 888 353 1747 
Q 353 2609 779 3096 
Q 1206 3584 1959 3584 
z
" transform="scale(0.015625)"/>
       <path id="DejaVuSans-43b" d="M 238 0 
L 238 478 
Q 806 566 981 959 
Q 1194 1513 1194 2928 
L 1194 3500 
L 3559 3500 
L 3559 0 
L 2984 0 
L 2984 3041 
L 1769 3041 
L 1769 2694 
Q 1769 1344 1494 738 
Q 1200 91 238 0 
z
" transform="scale(0.015625)"/>
       <path id="DejaVuSans-438" d="M 3578 3500 
L 3578 0 
L 3006 0 
L 3006 2809 
L 1319 0 
L 581 0 
L 581 3500 
L 1153 3500 
L 1153 697 
L 2838 3500 
L 3578 3500 
z
" transform="scale(0.015625)"/>
       <path id="DejaVuSans-447" d="M 2625 0 
L 2625 1472 
L 1553 1472 
Q 1075 1472 756 1769 
Q 469 2038 469 2613 
L 469 3500 
L 1044 3500 
L 1044 2666 
Q 1044 2300 1206 2116 
Q 1372 1931 1697 1931 
L 2625 1931 
L 2625 3500 
L 3200 3500 
L 3200 0 
L 2625 0 
z
" transform="scale(0.015625)"/>
       <path id="DejaVuSans-441" d="M 3122 3366 
L 3122 2828 
Q 2878 2963 2633 3030 
Q 2388 3097 2138 3097 
Q 1578 3097 1268 2742 
Q 959 2388 959 1747 
Q 959 1106 1268 751 
Q 1578 397 2138 397 
Q 2388 397 2633 464 
Q 2878 531 3122 666 
L 3122 134 
Q 2881 22 2623 -34 
Q 2366 -91 2075 -91 
Q 1284 -91 818 406 
Q 353 903 353 1747 
Q 353 2603 823 3093 
Q 1294 3584 2113 3584 
Q 2378 3584 2631 3529 
Q 2884 3475 3122 3366 
z
" transform="scale(0.015625)"/>
       <path id="DejaVuSans-442" d="M 188 3500 
L 3541 3500 
L 3541 3041 
L 2147 3041 
L 2147 0 
L 1581 0 
L 1581 3041 
L 188 3041 
L 188 3500 
z
" transform="scale(0.015625)"/>
       <path id="DejaVuSans-432" d="M 1156 1613 
L 1156 459 
L 1975 459 
Q 2369 459 2575 607 
Q 2781 756 2781 1038 
Q 2781 1319 2575 1466 
Q 2369 1613 1975 1613 
L 1156 1613 
z
M 1156 3041 
L 1156 2072 
L 1913 2072 
Q 2238 2072 2444 2201 
Q 2650 2331 2650 2563 
Q 2650 2794 2444 2917 
Q 2238 3041 1913 3041 
L 1156 3041 
z
M 581 3500 
L 1950 3500 
Q 2566 3500 2897 3275 
Q 3228 3050 3228 2634 
Q 3228 2313 3059 2123 
Q 2891 1934 2559 1888 
Q 2956 1813 3175 1575 
Q 3394 1338 3394 981 
Q 3394 513 3033 256 
Q 2672 0 2003 0 
L 581 0 
L 581 3500 
z
" transform="scale(0.015625)"/>
       <path id="DejaVuSans-439" d="M 3578 3500 
L 3578 0 
L 3006 0 
L 3006 2809 
L 1319 0 
L 581 0 
L 581 3500 
L 1153 3500 
L 1153 697 
L 2838 3500 
L 3578 3500 
z
M 1103 4862 
L 1472 4862 
Q 1506 4628 1657 4510 
Q 1809 4393 2081 4393 
Q 2350 4393 2500 4509 
Q 2650 4625 2691 4862 
L 3059 4862 
Q 3028 4415 2781 4190 
Q 2534 3965 2081 3965 
Q 1628 3965 1381 4190 
Q 1134 4415 1103 4862 
z
" transform="scale(0.015625)"/>
      </defs>
      <use xlink:href="#DejaVuSans-41a"/>
      <use xlink:href="#DejaVuSans-43e" x="70.996094"/>
      <use xlink:href="#DejaVuSans-43b" x="132.177734"/>
      <use xlink:href="#DejaVuSans-438" x="196.09375"/>
      <use xlink:href="#DejaVuSans-447" x="261.083984"/>
      <use xlink:href="#DejaVuSans-435" x="320.166016"/>
      <use xlink:href="#DejaVuSans-441" x="381.689453"/>
      <use xlink:href="#DejaVuSans-442" x="436.669922"/>
      <use xlink:href="#DejaVuSans-432" x="494.921875"/>
      <use xlink:href="#DejaVuSans-43e" x="553.857422"/>
      <use xlink:href="#DejaVuSans-20" x="615.039062"/>
      <use xlink:href="#DejaVuSans-441" x="646.826172"/>
      <use xlink:href="#DejaVuSans-440" x="701.806641"/>
      <use xlink:href="#DejaVuSans-430" x="765.283203"/>
      <use xlink:href="#DejaVuSans-432" x="826.5625"/>
      <use xlink:href="#DejaVuSans-43d" x="885.498047"/>
      <use xlink:href="#DejaVuSans-435" x="950.878906"/>
      <use xlink:href="#DejaVuSans-43d" x="1012.402344"/>
      <use xlink:href="#DejaVuSans-438" x="1077.783203"/>
      <use xlink:href="#DejaVuSans-439" x="1142.773438"/>
     </g>
    </g>
   </g>
   <g id="line2d_29">
    <path d="M 95.109943 366.758253 
L 115.149128 360.581526 
L 135.188313 353.712309 
L 155.227498 346.346634 
L 175.266683 338.824366 
L 195.305868 330.838118 
L 215.345053 322.570003 
L 235.384238 314.342486 
L 255.423423 305.779744 
L 275.462608 297.222802 
L 295.501793 288.342234 
L 315.540978 279.254035 
L 335.580163 270.288791 
L 355.619348 261.23307 
L 375.658533 251.822406 
L 395.697717 242.456979 
L 415.736902 233.14839 
L 435.776087 223.766724 
L 455.815272 214.277183 
L 475.854457 204.667007 
L 495.893642 194.84572 
L 515.932827 184.910759 
L 535.972012 175.030315 
L 556.011197 164.986318 
L 576.050382 155.118634 
L 596.089567 145.061878 
L 616.128752 134.846209 
L 636.167937 124.926326 
L 656.207122 114.478667 
L 676.246307 104.416112 
" clip-path="url(#p461d016b59)" style="fill: none; stroke: #1f77b4; stroke-width: 1.5; stroke-linecap: square"/>
    <defs>
     <path id="m87a0ac42fd" d="M 0 3 
C 0.795609 3 1.55874 2.683901 2.12132 2.12132 
C 2.683901 1.55874 3 0.795609 3 0 
C 3 -0.795609 2.683901 -1.55874 2.12132 -2.12132 
C 1.55874 -2.683901 0.795609 -3 0 -3 
C -0.795609 -3 -1.55874 -2.683901 -2.12132 -2.12132 
C -2.683901 -1.55874 -3 -0.795609 -3 0 
C -3 0.795609 -2.683901 1.55874 -2.12132 2.12132 
C -1.55874 2.683901 -0.795609 3 0 3 
z
" style="stroke: #1f77b4"/>
    </defs>
    <g clip-path="url(#p461d016b59)">
     <use xlink:href="#m87a0ac42fd" x="95.109943" y="366.758253" style="fill: #1f77b4; stroke: #1f77b4"/>
     <use xlink:href="#m87a0ac42fd" x="115.149128" y="360.581526" style="fill: #1f77b4; stroke: #1f77b4"/>
     <use xlink:href="#m87a0ac42fd" x="135.188313" y="353.712309" style="fill: #1f77b4; stroke: #1f77b4"/>
     <use xlink:href="#m87a0ac42fd" x="155.227498" y="346.346634" style="fill: #1f77b4; stroke: #1f77b4"/>
     <use xlink:href="#m87a0ac42fd" x="175.266683" y="338.824366" style="fill: #1f77b4; stroke: #1f77b4"/>
     <use xlink:href="#m87a0ac42fd" x="195.305868" y="330.838118" style="fill: #1f77b4; stroke: #1f77b4"/>
     <use xlink:href="#m87a0ac42fd" x="215.345053" y="322.570003" style="fill: #1f77b4; stroke: #1f77b4"/>
     <use xlink:href="#m87a0ac42fd" x="235.384238" y="314.342486" style="fill: #1f77b4; stroke: #1f77b4"/>
     <use xlink:href="#m87a0ac42fd" x="255.423423" y="305.779744" style="fill: #1f77b4; stroke: #1f77b4"/>
     <use xlink:href="#m87a0ac42fd" x="275.462608" y="297.222802" style="fill: #1f77b4; stroke: #1f77b4"/>
     <use xlink:href="#m87a0ac42fd" x="295.501793" y="288.342234" style="fill: #1f77b4; stroke: #1f77b4"/>
     <use xlink:href="#m87a0ac42fd" x="315.540978" y="279.254035" style="fill: #1f77b4; stroke: #1f77b4"/>
     <use xlink:href="#m87a0ac42fd" x="335.580163" y="270.288791" style="fill: #1f77b4; stroke: #1f77b4"/>
     <use xlink:href="#m87a0ac42fd" x="355.619348" y="261.23307" style="fill: #1f77b4; stroke: #1f77b4"/>
     <use xlink:href="#m87a0ac42fd" x="375.658533" y="251.822406" style="fill: #1f77b4; stroke: #1f77b4"/>
     <use xlink:href="#m87a0ac42fd" x="395.697717" y="242.456979" style="fill: #1f77b4; stroke: #1f77b4"/>
     <use xlink:href="#m87a0ac42fd" x="415.736902" y="233.14839" style="fill: #1f77b4; stroke: #1f77b4"/>
     <use xlink:href="#m87a0ac42fd" x="435.776087" y="223.766724" style="fill: #1f77b4; stroke: #1f77b4"/>
     <use xlink:href="#m87a0ac42fd" x="455.815272" y="214.277183" style="fill: #1f77b4; stroke: #1f77b4"/>
     <use xlink:href="#m87a0ac42fd" x="475.854457" y="204.667007" style="fill: #1f77b4; stroke: #1f77b4"/>
     <use xlink:href="#m87a0ac42fd" x="495.893642" y="194.84572" style="fill: #1f77b4; stroke: #1f77b4"/>
     <use xlink:href="#m87a0ac42fd" x="515.932827" y="184.910759" style="fill: #1f77b4; stroke: #1f77b4"/>
     <use xlink:href="#m87a0ac42fd" x="535.972012" y="175.030315" style="fill: #1f77b4; stroke: #1f77b4"/>
     <use xlink:href="#m87a0ac42fd" x="556.011197" y="164.986318" style="fill: #1f77b4; stroke: #1f77b4"/>
     <use xlink:href="#m87a0ac42fd" x="576.050382" y="155.118634" style="fill: #1f77b4; stroke: #1f77b4"/>
     <use xlink:href="#m87a0ac42fd" x="596.089567" y="145.061878" style="fill: #1f77b4; stroke: #1f77b4"/>
     <use xlink:href="#m87a0ac42fd" x="616.128752" y="134.846209" style="fill: #1f77b4; stroke: #1f77b4"/>
     <use xlink:href="#m87a0ac42fd" x="636.167937" y="124.926326" style="fill: #1f77b4; stroke: #1f77b4"/>
     <use xlink:href="#m87a0ac42fd" x="656.207122" y="114.478667" style="fill: #1f77b4; stroke: #1f77b4"/>
     <use xlink:href="#m87a0ac42fd" x="676.246307" y="104.416112" style="fill: #1f77b4; stroke: #1f77b4"/>
    </g>
   </g>
   <g id="line2d_30">
    <path d="M 95.109943 365.851173 
L 115.149128 357.75705 
L 135.188313 350.187224 
L 155.227498 340.08175 
L 175.266683 331.904111 
L 195.305868 322.677878 
L 215.345053 312.205861 
L 235.384238 301.258264 
L 255.423423 289.253954 
L 275.462608 282.072711 
L 295.501793 266.604793 
L 315.540978 258.055971 
L 335.580163 239.094287 
L 355.619348 230.079165 
L 375.658533 221.797131 
L 395.697717 213.371263 
L 415.736902 186.096227 
L 435.776087 183.785609 
L 455.815272 172.720857 
L 475.854457 158.331692 
L 495.893642 151.609789 
L 515.932827 142.094729 
L 535.972012 128.453731 
L 556.011197 105.925205 
L 576.050382 97.962156 
L 596.089567 80.855231 
L 616.128752 79.970191 
L 636.167937 56.753815 
L 656.207122 50.649005 
L 676.246307 38.858125 
" clip-path="url(#p461d016b59)" style="fill: none; stroke: #ff7f0e; stroke-width: 1.5; stroke-linecap: square"/>
    <defs>
     <path id="ma63f49f161" d="M 0 3 
C 0.795609 3 1.55874 2.683901 2.12132 2.12132 
C 2.683901 1.55874 3 0.795609 3 0 
C 3 -0.795609 2.683901 -1.55874 2.12132 -2.12132 
C 1.55874 -2.683901 0.795609 -3 0 -3 
C -0.795609 -3 -1.55874 -2.683901 -2.12132 -2.12132 
C -2.683901 -1.55874 -3 -0.795609 -3 0 
C -3 0.795609 -2.683901 1.55874 -2.12132 2.12132 
C -1.55874 2.683901 -0.795609 3 0 3 
z
" style="stroke: #ff7f0e"/>
    </defs>
    <g clip-path="url(#p461d016b59)">
     <use xlink:href="#ma63f49f161" x="95.109943" y="365.851173" style="fill: #ff7f0e; stroke: #ff7f0e"/>
     <use xlink:href="#ma63f49f161" x="115.149128" y="357.75705" style="fill: #ff7f0e; stroke: #ff7f0e"/>
     <use xlink:href="#ma63f49f161" x="135.188313" y="350.187224" style="fill: #ff7f0e; stroke: #ff7f0e"/>
     <use xlink:href="#ma63f49f161" x="155.227498" y="340.08175" style="fill: #ff7f0e; stroke: #ff7f0e"/>
     <use xlink:href="#ma63f49f161" x="175.266683" y="331.904111" style="fill: #ff7f0e; stroke: #ff7f0e"/>
     <use xlink:href="#ma63f49f161" x="195.305868" y="322.677878" style="fill: #ff7f0e; stroke: #ff7f0e"/>
     <use xlink:href="#ma63f49f161" x="215.345053" y="312.205861" style="fill: #ff7f0e; stroke: #ff7f0e"/>
     <use xlink:href="#ma63f49f161" x="235.384238" y="301.258264" style="fill: #ff7f0e; stroke: #ff7f0e"/>
     <use xlink:href="#ma63f49f161" x="255.423423" y="289.253954" style="fill: #ff7f0e; stroke: #ff7f0e"/>
     <use xlink:href="#ma63f49f161" x="275.462608" y="282.072711" style="fill: #ff7f0e; stroke: #ff7f0e"/>
     <use xlink:href="#ma63f49f161" x="295.501793" y="266.604793" style="fill: #ff7f0e; stroke: #ff7f0e"/>
     <use xlink:href="#ma63f49f161" x="315.540978" y="258.055971" style="fill: #ff7f0e; stroke: #ff7f0e"/>
     <use xlink:href="#ma63f49f161" x="335.580163" y="239.094287" style="fill: #ff7f0e; stroke: #ff7f0e"/>
     <use xlink:href="#ma63f49f161" x="355.619348" y="230.079165" style="fill: #ff7f0e; stroke: #ff7f0e"/>
     <use xlink:href="#ma63f49f161" x="375.658533" y="221.797131" style="fill: #ff7f0e; stroke: #ff7f0e"/>
     <use xlink:href="#ma63f49f161" x="395.697717" y="213.371263" style="fill: #ff7f0e; stroke: #ff7f0e"/>
     <use xlink:href="#ma63f49f161" x="415.736902" y="186.096227" style="fill: #ff7f0e; stroke: #ff7f0e"/>
     <use xlink:href="#ma63f49f161" x="435.776087" y="183.785609" style="fill: #ff7f0e; stroke: #ff7f0e"/>
     <use xlink:href="#ma63f49f161" x="455.815272" y="172.720857" style="fill: #ff7f0e; stroke: #ff7f0e"/>
     <use xlink:href="#ma63f49f161" x="475.854457" y="158.331692" style="fill: #ff7f0e; stroke: #ff7f0e"/>
     <use xlink:href="#ma63f49f161" x="495.893642" y="151.609789" style="fill: #ff7f0e; stroke: #ff7f0e"/>
     <use xlink:href="#ma63f49f161" x="515.932827" y="142.094729" style="fill: #ff7f0e; stroke: #ff7f0e"/>
     <use xlink:href="#ma63f49f161" x="535.972012" y="128.453731" style="fill: #ff7f0e; stroke: #ff7f0e"/>
     <use xlink:href="#ma63f49f161" x="556.011197" y="105.925205" style="fill: #ff7f0e; stroke: #ff7f0e"/>
     <use xlink:href="#ma63f49f161" x="576.050382" y="97.962156" style="fill: #ff7f0e; stroke: #ff7f0e"/>
     <use xlink:href="#ma63f49f161" x="596.089567" y="80.855231" style="fill: #ff7f0e; stroke: #ff7f0e"/>
     <use xlink:href="#ma63f49f161" x="616.128752" y="79.970191" style="fill: #ff7f0e; stroke: #ff7f0e"/>
     <use xlink:href="#ma63f49f161" x="636.167937" y="56.753815" style="fill: #ff7f0e; stroke: #ff7f0e"/>
     <use xlink:href="#ma63f49f161" x="656.207122" y="50.649005" style="fill: #ff7f0e; stroke: #ff7f0e"/>
     <use xlink:href="#ma63f49f161" x="676.246307" y="38.858125" style="fill: #ff7f0e; stroke: #ff7f0e"/>
    </g>
   </g>
   <g id="line2d_31">
    <path d="M 95.109943 369.658125 
L 115.149128 367.992439 
L 135.188313 366.329072 
L 155.227498 364.684265 
L 175.266683 362.989579 
L 195.305868 361.341292 
L 215.345053 359.660526 
L 235.384238 357.958881 
L 255.423423 356.297835 
L 275.462608 354.607789 
L 295.501793 352.911944 
L 315.540978 351.170861 
L 335.580163 349.449497 
L 355.619348 347.733933 
L 375.658533 346.076366 
L 395.697717 344.301644 
L 415.736902 342.548961 
L 435.776087 340.793959 
L 455.815272 339.020397 
L 475.854457 337.325712 
L 495.893642 335.575349 
L 515.932827 333.816867 
L 535.972012 332.031706 
L 556.011197 330.268583 
L 576.050382 328.504301 
L 596.089567 326.71682 
L 616.128752 324.855102 
L 636.167937 323.174337 
L 656.207122 321.339298 
L 676.246307 319.577335 
" clip-path="url(#p461d016b59)" style="fill: none; stroke: #2ca02c; stroke-width: 1.5; stroke-linecap: square"/>
    <defs>
     <path id="m567a6e84b4" d="M 0 3 
C 0.795609 3 1.55874 2.683901 2.12132 2.12132 
C 2.683901 1.55874 3 0.795609 3 0 
C 3 -0.795609 2.683901 -1.55874 2.12132 -2.12132 
C 1.55874 -2.683901 0.795609 -3 0 -3 
C -0.795609 -3 -1.55874 -2.683901 -2.12132 -2.12132 
C -2.683901 -1.55874 -3 -0.795609 -3 0 
C -3 0.795609 -2.683901 1.55874 -2.12132 2.12132 
C -1.55874 2.683901 -0.795609 3 0 3 
z
" style="stroke: #2ca02c"/>
    </defs>
    <g clip-path="url(#p461d016b59)">
     <use xlink:href="#m567a6e84b4" x="95.109943" y="369.658125" style="fill: #2ca02c; stroke: #2ca02c"/>
     <use xlink:href="#m567a6e84b4" x="115.149128" y="367.992439" style="fill: #2ca02c; stroke: #2ca02c"/>
     <use xlink:href="#m567a6e84b4" x="135.188313" y="366.329072" style="fill: #2ca02c; stroke: #2ca02c"/>
     <use xlink:href="#m567a6e84b4" x="155.227498" y="364.684265" style="fill: #2ca02c; stroke: #2ca02c"/>
     <use xlink:href="#m567a6e84b4" x="175.266683" y="362.989579" style="fill: #2ca02c; stroke: #2ca02c"/>
     <use xlink:href="#m567a6e84b4" x="195.305868" y="361.341292" style="fill: #2ca02c; stroke: #2ca02c"/>
     <use xlink:href="#m567a6e84b4" x="215.345053" y="359.660526" style="fill: #2ca02c; stroke: #2ca02c"/>
     <use xlink:href="#m567a6e84b4" x="235.384238" y="357.958881" style="fill: #2ca02c; stroke: #2ca02c"/>
     <use xlink:href="#m567a6e84b4" x="255.423423" y="356.297835" style="fill: #2ca02c; stroke: #2ca02c"/>
     <use xlink:href="#m567a6e84b4" x="275.462608" y="354.607789" style="fill: #2ca02c; stroke: #2ca02c"/>
     <use xlink:href="#m567a6e84b4" x="295.501793" y="352.911944" style="fill: #2ca02c; stroke: #2ca02c"/>
     <use xlink:href="#m567a6e84b4" x="315.540978" y="351.170861" style="fill: #2ca02c; stroke: #2ca02c"/>
     <use xlink:href="#m567a6e84b4" x="335.580163" y="349.449497" style="fill: #2ca02c; stroke: #2ca02c"/>
     <use xlink:href="#m567a6e84b4" x="355.619348" y="347.733933" style="fill: #2ca02c; stroke: #2ca02c"/>
     <use xlink:href="#m567a6e84b4" x="375.658533" y="346.076366" style="fill: #2ca02c; stroke: #2ca02c"/>
     <use xlink:href="#m567a6e84b4" x="395.697717" y="344.301644" style="fill: #2ca02c; stroke: #2ca02c"/>
     <use xlink:href="#m567a6e84b4" x="415.736902" y="342.548961" style="fill: #2ca02c; stroke: #2ca02c"/>
     <use xlink:href="#m567a6e84b4" x="435.776087" y="340.793959" style="fill: #2ca02c; stroke: #2ca02c"/>
     <use xlink:href="#m567a6e84b4" x="455.815272" y="339.020397" style="fill: #2ca02c; stroke: #2ca02c"/>
     <use xlink:href="#m567a6e84b4" x="475.854457" y="337.325712" style="fill: #2ca02c; stroke: #2ca02c"/>
     <use xlink:href="#m567a6e84b4" x="495.893642" y="335.575349" style="fill: #2ca02c; stroke: #2ca02c"/>
     <use xlink:href="#m567a6e84b4" x="515.932827" y="333.816867" style="fill: #2ca02c; stroke: #2ca02c"/>
     <use xlink:href="#m567a6e84b4" x="535.972012" y="332.031706" style="fill: #2ca02c; stroke: #2ca02c"/>
     <use xlink:href="#m567a6e84b4" x="556.011197" y="330.268583" style="fill: #2ca02c; stroke: #2ca02c"/>
     <use xlink:href="#m567a6e84b4" x="576.050382" y="328.504301" style="fill: #2ca02c; stroke: #2ca02c"/>
     <use xlink:href="#m567a6e84b4" x="596.089567" y="326.71682" style="fill: #2ca02c; stroke: #2ca02c"/>
     <use xlink:href="#m567a6e84b4" x="616.128752" y="324.855102" style="fill: #2ca02c; stroke: #2ca02c"/>
     <use xlink:href="#m567a6e84b4" x="636.167937" y="323.174337" style="fill: #2ca02c; stroke: #2ca02c"/>
     <use xlink:href="#m567a6e84b4" x="656.207122" y="321.339298" style="fill: #2ca02c; stroke: #2ca02c"/>
     <use xlink:href="#m567a6e84b4" x="676.246307" y="319.577335" style="fill: #2ca02c; stroke: #2ca02c"/>
    </g>
   </g>
   <g id="line2d_32">
    <path d="M 95.109943 365.815215 
L 115.149128 357.933362 
L 135.188313 363.122973 
L 155.227498 359.329941 
L 175.266683 355.151805 
L 195.305868 350.329898 
L 215.345053 345.606587 
L 235.384238 340.399576 
L 255.423423 335.396717 
L 275.462608 329.549415 
L 295.501793 324.168413 
L 315.540978 318.308351 
L 335.580163 311.930953 
L 355.619348 306.065092 
L 375.658533 299.708572 
L 395.697717 294.177936 
L 415.736902 286.510675 
L 435.776087 280.94524 
L 455.815272 274.173459 
L 475.854457 266.708029 
L 495.893642 260.77953 
L 515.932827 253.788519 
L 535.972012 247.002818 
L 556.011197 238.732383 
L 576.050382 233.161149 
L 596.089567 224.226064 
L 616.128752 217.711791 
L 636.167937 209.074812 
L 656.207122 202.732212 
L 676.246307 194.505855 
" clip-path="url(#p461d016b59)" style="fill: none; stroke: #d62728; stroke-width: 1.5; stroke-linecap: square"/>
    <defs>
     <path id="md0541ccbaf" d="M 0 3 
C 0.795609 3 1.55874 2.683901 2.12132 2.12132 
C 2.683901 1.55874 3 0.795609 3 0 
C 3 -0.795609 2.683901 -1.55874 2.12132 -2.12132 
C 1.55874 -2.683901 0.795609 -3 0 -3 
C -0.795609 -3 -1.55874 -2.683901 -2.12132 -2.12132 
C -2.683901 -1.55874 -3 -0.795609 -3 0 
C -3 0.795609 -2.683901 1.55874 -2.12132 2.12132 
C -1.55874 2.683901 -0.795609 3 0 3 
z
" style="stroke: #d62728"/>
    </defs>
    <g clip-path="url(#p461d016b59)">
     <use xlink:href="#md0541ccbaf" x="95.109943" y="365.815215" style="fill: #d62728; stroke: #d62728"/>
     <use xlink:href="#md0541ccbaf" x="115.149128" y="357.933362" style="fill: #d62728; stroke: #d62728"/>
     <use xlink:href="#md0541ccbaf" x="135.188313" y="363.122973" style="fill: #d62728; stroke: #d62728"/>
     <use xlink:href="#md0541ccbaf" x="155.227498" y="359.329941" style="fill: #d62728; stroke: #d62728"/>
     <use xlink:href="#md0541ccbaf" x="175.266683" y="355.151805" style="fill: #d62728; stroke: #d62728"/>
     <use xlink:href="#md0541ccbaf" x="195.305868" y="350.329898" style="fill: #d62728; stroke: #d62728"/>
     <use xlink:href="#md0541ccbaf" x="215.345053" y="345.606587" style="fill: #d62728; stroke: #d62728"/>
     <use xlink:href="#md0541ccbaf" x="235.384238" y="340.399576" style="fill: #d62728; stroke: #d62728"/>
     <use xlink:href="#md0541ccbaf" x="255.423423" y="335.396717" style="fill: #d62728; stroke: #d62728"/>
     <use xlink:href="#md0541ccbaf" x="275.462608" y="329.549415" style="fill: #d62728; stroke: #d62728"/>
     <use xlink:href="#md0541ccbaf" x="295.501793" y="324.168413" style="fill: #d62728; stroke: #d62728"/>
     <use xlink:href="#md0541ccbaf" x="315.540978" y="318.308351" style="fill: #d62728; stroke: #d62728"/>
     <use xlink:href="#md0541ccbaf" x="335.580163" y="311.930953" style="fill: #d62728; stroke: #d62728"/>
     <use xlink:href="#md0541ccbaf" x="355.619348" y="306.065092" style="fill: #d62728; stroke: #d62728"/>
     <use xlink:href="#md0541ccbaf" x="375.658533" y="299.708572" style="fill: #d62728; stroke: #d62728"/>
     <use xlink:href="#md0541ccbaf" x="395.697717" y="294.177936" style="fill: #d62728; stroke: #d62728"/>
     <use xlink:href="#md0541ccbaf" x="415.736902" y="286.510675" style="fill: #d62728; stroke: #d62728"/>
     <use xlink:href="#md0541ccbaf" x="435.776087" y="280.94524" style="fill: #d62728; stroke: #d62728"/>
     <use xlink:href="#md0541ccbaf" x="455.815272" y="274.173459" style="fill: #d62728; stroke: #d62728"/>
     <use xlink:href="#md0541ccbaf" x="475.854457" y="266.708029" style="fill: #d62728; stroke: #d62728"/>
     <use xlink:href="#md0541ccbaf" x="495.893642" y="260.77953" style="fill: #d62728; stroke: #d62728"/>
     <use xlink:href="#md0541ccbaf" x="515.932827" y="253.788519" style="fill: #d62728; stroke: #d62728"/>
     <use xlink:href="#md0541ccbaf" x="535.972012" y="247.002818" style="fill: #d62728; stroke: #d62728"/>
     <use xlink:href="#md0541ccbaf" x="556.011197" y="238.732383" style="fill: #d62728; stroke: #d62728"/>
     <use xlink:href="#md0541ccbaf" x="576.050382" y="233.161149" style="fill: #d62728; stroke: #d62728"/>
     <use xlink:href="#md0541ccbaf" x="596.089567" y="224.226064" style="fill: #d62728; stroke: #d62728"/>
     <use xlink:href="#md0541ccbaf" x="616.128752" y="217.711791" style="fill: #d62728; stroke: #d62728"/>
     <use xlink:href="#md0541ccbaf" x="636.167937" y="209.074812" style="fill: #d62728; stroke: #d62728"/>
     <use xlink:href="#md0541ccbaf" x="656.207122" y="202.732212" style="fill: #d62728; stroke: #d62728"/>
     <use xlink:href="#md0541ccbaf" x="676.246307" y="194.505855" style="fill: #d62728; stroke: #d62728"/>
    </g>
   </g>
   <g id="patch_3">
    <path d="M 66.053125 386.198125 
L 66.053125 22.318125 
" style="fill: none; stroke: #000000; stroke-width: 0.8; stroke-linejoin: miter; stroke-linecap: square"/>
   </g>
   <g id="patch_4">
    <path d="M 705.303125 386.198125 
L 705.303125 22.318125 
" style="fill: none; stroke: #000000; stroke-width: 0.8; stroke-linejoin: miter; stroke-linecap: square"/>
   </g>
   <g id="patch_5">
    <path d="M 66.053125 386.198125 
L 705.303125 386.198125 
" style="fill: none; stroke: #000000; stroke-width: 0.8; stroke-linejoin: miter; stroke-linecap: square"/>
   </g>
   <g id="patch_6">
    <path d="M 66.053125 22.318125 
L 705.303125 22.318125 
" style="fill: none; stroke: #000000; stroke-width: 0.8; stroke-linejoin: miter; stroke-linecap: square"/>
   </g>
   <g id="text_17">
    <!-- Количество сравнений для Common Prefix -->
    <g transform="translate(252.0075 16.318125) scale(0.12 -0.12)">
     <defs>
      <path id="DejaVuSans-44f" d="M 1181 2491 
Q 1181 2231 1381 2084 
Q 1581 1938 1953 1938 
L 2728 1938 
L 2728 3041 
L 1953 3041 
Q 1581 3041 1381 2897 
Q 1181 2753 1181 2491 
z
M 363 0 
L 1431 1534 
Q 1069 1616 828 1830 
Q 588 2044 588 2491 
Q 588 2997 923 3248 
Q 1259 3500 1938 3500 
L 3306 3500 
L 3306 0 
L 2728 0 
L 2728 1478 
L 2013 1478 
L 981 0 
L 363 0 
z
" transform="scale(0.015625)"/>
      <path id="DejaVuSans-43" d="M 4122 4306 
L 4122 3641 
Q 3803 3938 3442 4084 
Q 3081 4231 2675 4231 
Q 1875 4231 1450 3742 
Q 1025 3253 1025 2328 
Q 1025 1406 1450 917 
Q 1875 428 2675 428 
Q 3081 428 3442 575 
Q 3803 722 4122 1019 
L 4122 359 
Q 3791 134 3420 21 
Q 3050 -91 2638 -91 
Q 1578 -91 968 557 
Q 359 1206 359 2328 
Q 359 3453 968 4101 
Q 1578 4750 2638 4750 
Q 3056 4750 3426 4639 
Q 3797 4528 4122 4306 
z
" transform="scale(0.015625)"/>
      <path id="DejaVuSans-6f" d="M 1959 3097 
Q 1497 3097 1228 2736 
Q 959 2375 959 1747 
Q 959 1119 1226 758 
Q 1494 397 1959 397 
Q 2419 397 2687 759 
Q 2956 1122 2956 1747 
Q 2956 2369 2687 2733 
Q 2419 3097 1959 3097 
z
M 1959 3584 
Q 2709 3584 3137 3096 
Q 3566 2609 3566 1747 
Q 3566 888 3137 398 
Q 2709 -91 1959 -91 
Q 1206 -91 779 398 
Q 353 888 353 1747 
Q 353 2609 779 3096 
Q 1206 3584 1959 3584 
z
" transform="scale(0.015625)"/>
      <path id="DejaVuSans-6d" d="M 3328 2828 
Q 3544 3216 3844 3400 
Q 4144 3584 4550 3584 
Q 5097 3584 5394 3201 
Q 5691 2819 5691 2113 
L 5691 0 
L 5113 0 
L 5113 2094 
Q 5113 2597 4934 2840 
Q 4756 3084 4391 3084 
Q 3944 3084 3684 2787 
Q 3425 2491 3425 1978 
L 3425 0 
L 2847 0 
L 2847 2094 
Q 2847 2600 2669 2842 
Q 2491 3084 2119 3084 
Q 1678 3084 1418 2786 
Q 1159 2488 1159 1978 
L 1159 0 
L 581 0 
L 581 3500 
L 1159 3500 
L 1159 2956 
Q 1356 3278 1631 3431 
Q 1906 3584 2284 3584 
Q 2666 3584 2933 3390 
Q 3200 3197 3328 2828 
z
" transform="scale(0.015625)"/>
      <path id="DejaVuSans-6e" d="M 3513 2113 
L 3513 0 
L 2938 0 
L 2938 2094 
Q 2938 2591 2744 2837 
Q 2550 3084 2163 3084 
Q 1697 3084 1428 2787 
Q 1159 2491 1159 1978 
L 1159 0 
L 581 0 
L 581 3500 
L 1159 3500 
L 1159 2956 
Q 1366 3272 1645 3428 
Q 1925 3584 2291 3584 
Q 2894 3584 3203 3211 
Q 3513 2838 3513 2113 
z
" transform="scale(0.015625)"/>
      <path id="DejaVuSans-50" d="M 1259 4147 
L 1259 2394 
L 2053 2394 
Q 2494 2394 2734 2622 
Q 2975 2850 2975 3272 
Q 2975 3691 2734 3919 
Q 2494 4147 2053 4147 
L 1259 4147 
z
M 628 4666 
L 2053 4666 
Q 2838 4666 3239 4311 
Q 3641 3956 3641 3272 
Q 3641 2581 3239 2228 
Q 2838 1875 2053 1875 
L 1259 1875 
L 1259 0 
L 628 0 
L 628 4666 
z
" transform="scale(0.015625)"/>
      <path id="DejaVuSans-72" d="M 2631 2963 
Q 2534 3019 2420 3045 
Q 2306 3072 2169 3072 
Q 1681 3072 1420 2755 
Q 1159 2438 1159 1844 
L 1159 0 
L 581 0 
L 581 3500 
L 1159 3500 
L 1159 2956 
Q 1341 3275 1631 3429 
Q 1922 3584 2338 3584 
Q 2397 3584 2469 3576 
Q 2541 3569 2628 3553 
L 2631 2963 
z
" transform="scale(0.015625)"/>
      <path id="DejaVuSans-65" d="M 3597 1894 
L 3597 1613 
L 953 1613 
Q 991 1019 1311 708 
Q 1631 397 2203 397 
Q 2534 397 2845 478 
Q 3156 559 3463 722 
L 3463 178 
Q 3153 47 2828 -22 
Q 2503 -91 2169 -91 
Q 1331 -91 842 396 
Q 353 884 353 1716 
Q 353 2575 817 3079 
Q 1281 3584 2069 3584 
Q 2775 3584 3186 3129 
Q 3597 2675 3597 1894 
z
M 3022 2063 
Q 3016 2534 2758 2815 
Q 2500 3097 2075 3097 
Q 1594 3097 1305 2825 
Q 1016 2553 972 2059 
L 3022 2063 
z
" transform="scale(0.015625)"/>
      <path id="DejaVuSans-66" d="M 2375 4863 
L 2375 4384 
L 1825 4384 
Q 1516 4384 1395 4259 
Q 1275 4134 1275 3809 
L 1275 3500 
L 2222 3500 
L 2222 3053 
L 1275 3053 
L 1275 0 
L 697 0 
L 697 3053 
L 147 3053 
L 147 3500 
L 697 3500 
L 697 3744 
Q 697 4328 969 4595 
Q 1241 4863 1831 4863 
L 2375 4863 
z
" transform="scale(0.015625)"/>
      <path id="DejaVuSans-69" d="M 603 3500 
L 1178 3500 
L 1178 0 
L 603 0 
L 603 3500 
z
M 603 4863 
L 1178 4863 
L 1178 4134 
L 603 4134 
L 603 4863 
z
" transform="scale(0.015625)"/>
      <path id="DejaVuSans-78" d="M 3513 3500 
L 2247 1797 
L 3578 0 
L 2900 0 
L 1881 1375 
L 863 0 
L 184 0 
L 1544 1831 
L 300 3500 
L 978 3500 
L 1906 2253 
L 2834 3500 
L 3513 3500 
z
" transform="scale(0.015625)"/>
     </defs>
     <use xlink:href="#DejaVuSans-41a"/>
     <use xlink:href="#DejaVuSans-43e" x="70.996094"/>
     <use xlink:href="#DejaVuSans-43b" x="132.177734"/>
     <use xlink:href="#DejaVuSans-438" x="196.09375"/>
     <use xlink:href="#DejaVuSans-447" x="261.083984"/>
     <use xlink:href="#DejaVuSans-435" x="320.166016"/>
     <use xlink:href="#DejaVuSans-441" x="381.689453"/>
     <use xlink:href="#DejaVuSans-442" x="436.669922"/>
     <use xlink:href="#DejaVuSans-432" x="494.921875"/>
     <use xlink:href="#DejaVuSans-43e" x="553.857422"/>
     <use xlink:href="#DejaVuSans-20" x="615.039062"/>
     <use xlink:href="#DejaVuSans-441" x="646.826172"/>
     <use xlink:href="#DejaVuSans-440" x="701.806641"/>
     <use xlink:href="#DejaVuSans-430" x="765.283203"/>
     <use xlink:href="#DejaVuSans-432" x="826.5625"/>
     <use xlink:href="#DejaVuSans-43d" x="885.498047"/>
     <use xlink:href="#DejaVuSans-435" x="950.878906"/>
     <use xlink:href="#DejaVuSans-43d" x="1012.402344"/>
     <use xlink:href="#DejaVuSans-438" x="1077.783203"/>
     <use xlink:href="#DejaVuSans-439" x="1142.773438"/>
     <use xlink:href="#DejaVuSans-20" x="1207.763672"/>
     <use xlink:href="#DejaVuSans-434" x="1239.550781"/>
     <use xlink:href="#DejaVuSans-43b" x="1308.691406"/>
     <use xlink:href="#DejaVuSans-44f" x="1372.607422"/>
     <use xlink:href="#DejaVuSans-20" x="1432.763672"/>
     <use xlink:href="#DejaVuSans-43" x="1464.550781"/>
     <use xlink:href="#DejaVuSans-6f" x="1534.375"/>
     <use xlink:href="#DejaVuSans-6d" x="1595.556641"/>
     <use xlink:href="#DejaVuSans-6d" x="1692.96875"/>
     <use xlink:href="#DejaVuSans-6f" x="1790.380859"/>
     <use xlink:href="#DejaVuSans-6e" x="1851.5625"/>
     <use xlink:href="#DejaVuSans-20" x="1914.941406"/>
     <use xlink:href="#DejaVuSans-50" x="1946.728516"/>
     <use xlink:href="#DejaVuSans-72" x="2005.28125"/>
     <use xlink:href="#DejaVuSans-65" x="2044.144531"/>
     <use xlink:href="#DejaVuSans-66" x="2105.667969"/>
     <use xlink:href="#DejaVuSans-69" x="2140.873047"/>
     <use xlink:href="#DejaVuSans-78" x="2168.65625"/>
    </g>
   </g>
   <g id="legend_1">
    <g id="patch_7">
     <path d="M 73.053125 89.030625 
L 193.282813 89.030625 
Q 195.282813 89.030625 195.282813 87.030625 
L 195.282813 29.318125 
Q 195.282813 27.318125 193.282813 27.318125 
L 73.053125 27.318125 
Q 71.053125 27.318125 71.053125 29.318125 
L 71.053125 87.030625 
Q 71.053125 89.030625 73.053125 89.030625 
z
" style="fill: #ffffff; opacity: 0.8; stroke: #cccccc; stroke-linejoin: miter"/>
    </g>
    <g id="line2d_33">
     <path d="M 75.053125 35.416562 
L 85.053125 35.416562 
L 95.053125 35.416562 
" style="fill: none; stroke: #1f77b4; stroke-width: 1.5; stroke-linecap: square"/>
     <g>
      <use xlink:href="#m87a0ac42fd" x="85.053125" y="35.416562" style="fill: #1f77b4; stroke: #1f77b4"/>
     </g>
    </g>
    <g id="text_18">
     <!-- Merge Sort -->
     <g transform="translate(103.053125 38.916562) scale(0.1 -0.1)">
      <defs>
       <path id="DejaVuSans-4d" d="M 628 4666 
L 1569 4666 
L 2759 1491 
L 3956 4666 
L 4897 4666 
L 4897 0 
L 4281 0 
L 4281 4097 
L 3078 897 
L 2444 897 
L 1241 4097 
L 1241 0 
L 628 0 
L 628 4666 
z
" transform="scale(0.015625)"/>
       <path id="DejaVuSans-67" d="M 2906 1791 
Q 2906 2416 2648 2759 
Q 2391 3103 1925 3103 
Q 1463 3103 1205 2759 
Q 947 2416 947 1791 
Q 947 1169 1205 825 
Q 1463 481 1925 481 
Q 2391 481 2648 825 
Q 2906 1169 2906 1791 
z
M 3481 434 
Q 3481 -459 3084 -895 
Q 2688 -1331 1869 -1331 
Q 1566 -1331 1297 -1286 
Q 1028 -1241 775 -1147 
L 775 -588 
Q 1028 -725 1275 -790 
Q 1522 -856 1778 -856 
Q 2344 -856 2625 -561 
Q 2906 -266 2906 331 
L 2906 616 
Q 2728 306 2450 153 
Q 2172 0 1784 0 
Q 1141 0 747 490 
Q 353 981 353 1791 
Q 353 2603 747 3093 
Q 1141 3584 1784 3584 
Q 2172 3584 2450 3431 
Q 2728 3278 2906 2969 
L 2906 3500 
L 3481 3500 
L 3481 434 
z
" transform="scale(0.015625)"/>
       <path id="DejaVuSans-53" d="M 3425 4513 
L 3425 3897 
Q 3066 4069 2747 4153 
Q 2428 4238 2131 4238 
Q 1616 4238 1336 4038 
Q 1056 3838 1056 3469 
Q 1056 3159 1242 3001 
Q 1428 2844 1947 2747 
L 2328 2669 
Q 3034 2534 3370 2195 
Q 3706 1856 3706 1288 
Q 3706 609 3251 259 
Q 2797 -91 1919 -91 
Q 1588 -91 1214 -16 
Q 841 59 441 206 
L 441 856 
Q 825 641 1194 531 
Q 1563 422 1919 422 
Q 2459 422 2753 634 
Q 3047 847 3047 1241 
Q 3047 1584 2836 1778 
Q 2625 1972 2144 2069 
L 1759 2144 
Q 1053 2284 737 2584 
Q 422 2884 422 3419 
Q 422 4038 858 4394 
Q 1294 4750 2059 4750 
Q 2388 4750 2728 4690 
Q 3069 4631 3425 4513 
z
" transform="scale(0.015625)"/>
       <path id="DejaVuSans-74" d="M 1172 4494 
L 1172 3500 
L 2356 3500 
L 2356 3053 
L 1172 3053 
L 1172 1153 
Q 1172 725 1289 603 
Q 1406 481 1766 481 
L 2356 481 
L 2356 0 
L 1766 0 
Q 1100 0 847 248 
Q 594 497 594 1153 
L 594 3053 
L 172 3053 
L 172 3500 
L 594 3500 
L 594 4494 
L 1172 4494 
z
" transform="scale(0.015625)"/>
      </defs>
      <use xlink:href="#DejaVuSans-4d"/>
      <use xlink:href="#DejaVuSans-65" x="86.279297"/>
      <use xlink:href="#DejaVuSans-72" x="147.802734"/>
      <use xlink:href="#DejaVuSans-67" x="187.166016"/>
      <use xlink:href="#DejaVuSans-65" x="250.642578"/>
      <use xlink:href="#DejaVuSans-20" x="312.166016"/>
      <use xlink:href="#DejaVuSans-53" x="343.953125"/>
      <use xlink:href="#DejaVuSans-6f" x="407.429688"/>
      <use xlink:href="#DejaVuSans-72" x="468.611328"/>
      <use xlink:href="#DejaVuSans-74" x="509.724609"/>
     </g>
    </g>
    <g id="line2d_34">
     <path d="M 75.053125 50.094687 
L 85.053125 50.094687 
L 95.053125 50.094687 
" style="fill: none; stroke: #ff7f0e; stroke-width: 1.5; stroke-linecap: square"/>
     <g>
      <use xlink:href="#ma63f49f161" x="85.053125" y="50.094687" style="fill: #ff7f0e; stroke: #ff7f0e"/>
     </g>
    </g>
    <g id="text_19">
     <!-- Quick Sort -->
     <g transform="translate(103.053125 53.594687) scale(0.1 -0.1)">
      <defs>
       <path id="DejaVuSans-51" d="M 2522 4238 
Q 1834 4238 1429 3725 
Q 1025 3213 1025 2328 
Q 1025 1447 1429 934 
Q 1834 422 2522 422 
Q 3209 422 3611 934 
Q 4013 1447 4013 2328 
Q 4013 3213 3611 3725 
Q 3209 4238 2522 4238 
z
M 3406 84 
L 4238 -825 
L 3475 -825 
L 2784 -78 
Q 2681 -84 2626 -87 
Q 2572 -91 2522 -91 
Q 1538 -91 948 567 
Q 359 1225 359 2328 
Q 359 3434 948 4092 
Q 1538 4750 2522 4750 
Q 3503 4750 4090 4092 
Q 4678 3434 4678 2328 
Q 4678 1516 4351 937 
Q 4025 359 3406 84 
z
" transform="scale(0.015625)"/>
       <path id="DejaVuSans-75" d="M 544 1381 
L 544 3500 
L 1119 3500 
L 1119 1403 
Q 1119 906 1312 657 
Q 1506 409 1894 409 
Q 2359 409 2629 706 
Q 2900 1003 2900 1516 
L 2900 3500 
L 3475 3500 
L 3475 0 
L 2900 0 
L 2900 538 
Q 2691 219 2414 64 
Q 2138 -91 1772 -91 
Q 1169 -91 856 284 
Q 544 659 544 1381 
z
M 1991 3584 
L 1991 3584 
z
" transform="scale(0.015625)"/>
       <path id="DejaVuSans-63" d="M 3122 3366 
L 3122 2828 
Q 2878 2963 2633 3030 
Q 2388 3097 2138 3097 
Q 1578 3097 1268 2742 
Q 959 2388 959 1747 
Q 959 1106 1268 751 
Q 1578 397 2138 397 
Q 2388 397 2633 464 
Q 2878 531 3122 666 
L 3122 134 
Q 2881 22 2623 -34 
Q 2366 -91 2075 -91 
Q 1284 -91 818 406 
Q 353 903 353 1747 
Q 353 2603 823 3093 
Q 1294 3584 2113 3584 
Q 2378 3584 2631 3529 
Q 2884 3475 3122 3366 
z
" transform="scale(0.015625)"/>
       <path id="DejaVuSans-6b" d="M 581 4863 
L 1159 4863 
L 1159 1991 
L 2875 3500 
L 3609 3500 
L 1753 1863 
L 3688 0 
L 2938 0 
L 1159 1709 
L 1159 0 
L 581 0 
L 581 4863 
z
" transform="scale(0.015625)"/>
      </defs>
      <use xlink:href="#DejaVuSans-51"/>
      <use xlink:href="#DejaVuSans-75" x="78.710938"/>
      <use xlink:href="#DejaVuSans-69" x="142.089844"/>
      <use xlink:href="#DejaVuSans-63" x="169.873047"/>
      <use xlink:href="#DejaVuSans-6b" x="224.853516"/>
      <use xlink:href="#DejaVuSans-20" x="282.763672"/>
      <use xlink:href="#DejaVuSans-53" x="314.550781"/>
      <use xlink:href="#DejaVuSans-6f" x="378.027344"/>
      <use xlink:href="#DejaVuSans-72" x="439.208984"/>
      <use xlink:href="#DejaVuSans-74" x="480.322266"/>
     </g>
    </g>
    <g id="line2d_35">
     <path d="M 75.053125 64.772812 
L 85.053125 64.772812 
L 95.053125 64.772812 
" style="fill: none; stroke: #2ca02c; stroke-width: 1.5; stroke-linecap: square"/>
     <g>
      <use xlink:href="#m567a6e84b4" x="85.053125" y="64.772812" style="fill: #2ca02c; stroke: #2ca02c"/>
     </g>
    </g>
    <g id="text_20">
     <!-- Radix Sort -->
     <g transform="translate(103.053125 68.272812) scale(0.1 -0.1)">
      <defs>
       <path id="DejaVuSans-52" d="M 2841 2188 
Q 3044 2119 3236 1894 
Q 3428 1669 3622 1275 
L 4263 0 
L 3584 0 
L 2988 1197 
Q 2756 1666 2539 1819 
Q 2322 1972 1947 1972 
L 1259 1972 
L 1259 0 
L 628 0 
L 628 4666 
L 2053 4666 
Q 2853 4666 3247 4331 
Q 3641 3997 3641 3322 
Q 3641 2881 3436 2590 
Q 3231 2300 2841 2188 
z
M 1259 4147 
L 1259 2491 
L 2053 2491 
Q 2509 2491 2742 2702 
Q 2975 2913 2975 3322 
Q 2975 3731 2742 3939 
Q 2509 4147 2053 4147 
L 1259 4147 
z
" transform="scale(0.015625)"/>
       <path id="DejaVuSans-61" d="M 2194 1759 
Q 1497 1759 1228 1600 
Q 959 1441 959 1056 
Q 959 750 1161 570 
Q 1363 391 1709 391 
Q 2188 391 2477 730 
Q 2766 1069 2766 1631 
L 2766 1759 
L 2194 1759 
z
M 3341 1997 
L 3341 0 
L 2766 0 
L 2766 531 
Q 2569 213 2275 61 
Q 1981 -91 1556 -91 
Q 1019 -91 701 211 
Q 384 513 384 1019 
Q 384 1609 779 1909 
Q 1175 2209 1959 2209 
L 2766 2209 
L 2766 2266 
Q 2766 2663 2505 2880 
Q 2244 3097 1772 3097 
Q 1472 3097 1187 3025 
Q 903 2953 641 2809 
L 641 3341 
Q 956 3463 1253 3523 
Q 1550 3584 1831 3584 
Q 2591 3584 2966 3190 
Q 3341 2797 3341 1997 
z
" transform="scale(0.015625)"/>
       <path id="DejaVuSans-64" d="M 2906 2969 
L 2906 4863 
L 3481 4863 
L 3481 0 
L 2906 0 
L 2906 525 
Q 2725 213 2448 61 
Q 2172 -91 1784 -91 
Q 1150 -91 751 415 
Q 353 922 353 1747 
Q 353 2572 751 3078 
Q 1150 3584 1784 3584 
Q 2172 3584 2448 3432 
Q 2725 3281 2906 2969 
z
M 947 1747 
Q 947 1113 1208 752 
Q 1469 391 1925 391 
Q 2381 391 2643 752 
Q 2906 1113 2906 1747 
Q 2906 2381 2643 2742 
Q 2381 3103 1925 3103 
Q 1469 3103 1208 2742 
Q 947 2381 947 1747 
z
" transform="scale(0.015625)"/>
      </defs>
      <use xlink:href="#DejaVuSans-52"/>
      <use xlink:href="#DejaVuSans-61" x="67.232422"/>
      <use xlink:href="#DejaVuSans-64" x="128.511719"/>
      <use xlink:href="#DejaVuSans-69" x="191.988281"/>
      <use xlink:href="#DejaVuSans-78" x="219.771484"/>
      <use xlink:href="#DejaVuSans-20" x="278.951172"/>
      <use xlink:href="#DejaVuSans-53" x="310.738281"/>
      <use xlink:href="#DejaVuSans-6f" x="374.214844"/>
      <use xlink:href="#DejaVuSans-72" x="435.396484"/>
      <use xlink:href="#DejaVuSans-74" x="476.509766"/>
     </g>
    </g>
    <g id="line2d_36">
     <path d="M 75.053125 79.450937 
L 85.053125 79.450937 
L 95.053125 79.450937 
" style="fill: none; stroke: #d62728; stroke-width: 1.5; stroke-linecap: square"/>
     <g>
      <use xlink:href="#md0541ccbaf" x="85.053125" y="79.450937" style="fill: #d62728; stroke: #d62728"/>
     </g>
    </g>
    <g id="text_21">
     <!-- Radix+Quick Sort -->
     <g transform="translate(103.053125 82.950937) scale(0.1 -0.1)">
      <defs>
       <path id="DejaVuSans-2b" d="M 2944 4013 
L 2944 2272 
L 4684 2272 
L 4684 1741 
L 2944 1741 
L 2944 0 
L 2419 0 
L 2419 1741 
L 678 1741 
L 678 2272 
L 2419 2272 
L 2419 4013 
L 2944 4013 
z
" transform="scale(0.015625)"/>
      </defs>
      <use xlink:href="#DejaVuSans-52"/>
      <use xlink:href="#DejaVuSans-61" x="67.232422"/>
      <use xlink:href="#DejaVuSans-64" x="128.511719"/>
      <use xlink:href="#DejaVuSans-69" x="191.988281"/>
      <use xlink:href="#DejaVuSans-78" x="219.771484"/>
      <use xlink:href="#DejaVuSans-2b" x="278.951172"/>
      <use xlink:href="#DejaVuSans-51" x="362.740234"/>
      <use xlink:href="#DejaVuSans-75" x="441.451172"/>
      <use xlink:href="#DejaVuSans-69" x="504.830078"/>
      <use xlink:href="#DejaVuSans-63" x="532.613281"/>
      <use xlink:href="#DejaVuSans-6b" x="587.59375"/>
      <use xlink:href="#DejaVuSans-20" x="645.503906"/>
      <use xlink:href="#DejaVuSans-53" x="677.291016"/>
      <use xlink:href="#DejaVuSans-6f" x="740.767578"/>
      <use xlink:href="#DejaVuSans-72" x="801.949219"/>
      <use xlink:href="#DejaVuSans-74" x="843.0625"/>
     </g>
    </g>
   </g>
  </g>
 </g>
 <defs>
  <clipPath id="p461d016b59">
   <rect x="66.053125" y="22.318125" width="639.25" height="363.88"/>
  </clipPath>
 </defs>
</svg>
