<?xml version="1.0" encoding="utf-8" standalone="no"?>
<!DOCTYPE svg PUBLIC "-//W3C//DTD SVG 1.1//EN"
  "http://www.w3.org/Graphics/SVG/1.1/DTD/svg11.dtd">
<svg xmlns:xlink="http://www.w3.org/1999/xlink" width="712.503125pt" height="423.754375pt" viewBox="0 0 712.503125 423.754375" xmlns="http://www.w3.org/2000/svg" version="1.1">
 <metadata>
  <rdf:RDF xmlns:dc="http://purl.org/dc/elements/1.1/" xmlns:cc="http://creativecommons.org/ns#" xmlns:rdf="http://www.w3.org/1999/02/22-rdf-syntax-ns#">
   <cc:Work>
    <dc:type rdf:resource="http://purl.org/dc/dcmitype/StillImage"/>
    <dc:date>2025-05-26T05:08:16.001595</dc:date>
    <dc:format>image/svg+xml</dc:format>
    <dc:creator>
     <cc:Agent>
      <dc:title>Matplotlib v3.9.2, https://matplotlib.org/</dc:title>
     </cc:Agent>
    </dc:creator>
   </cc:Work>
  </rdf:RDF>
 </metadata>
 <defs>
  <style type="text/css">*{stroke-linejoin: round; stroke-linecap: butt}</style>
 </defs>
 <g id="figure_1">
  <g id="patch_1">
   <path d="M 0 423.754375 
L 712.503125 423.754375 
L 712.503125 0 
L 0 0 
z
" style="fill: #ffffff"/>
  </g>
  <g id="axes_1">
   <g id="patch_2">
    <path d="M 66.053125 386.198125 
L 705.303125 386.198125 
L 705.303125 22.318125 
L 66.053125 22.318125 
z
" style="fill: #ffffff"/>
   </g>
   <g id="matplotlib.axis_1">
    <g id="xtick_1">
     <g id="line2d_1">
      <path d="M 75.070758 386.198125 
L 75.070758 22.318125 
" clip-path="url(#pdfda808fb6)" style="fill: none; stroke: #b0b0b0; stroke-width: 0.8; stroke-linecap: square"/>
     </g>
     <g id="line2d_2">
      <defs>
       <path id="mcf877bec13" d="M 0 0 
L 0 3.5 
" style="stroke: #000000; stroke-width: 0.8"/>
      </defs>
      <g>
       <use xlink:href="#mcf877bec13" x="75.070758" y="386.198125" style="stroke: #000000; stroke-width: 0.8"/>
      </g>
     </g>
     <g id="text_1">
      <!-- 0 -->
      <g transform="translate(71.889508 400.796562) scale(0.1 -0.1)">
       <defs>
        <path id="DejaVuSans-30" d="M 2034 4250 
Q 1547 4250 1301 3770 
Q 1056 3291 1056 2328 
Q 1056 1369 1301 889 
Q 1547 409 2034 409 
Q 2525 409 2770 889 
Q 3016 1369 3016 2328 
Q 3016 3291 2770 3770 
Q 2525 4250 2034 4250 
z
M 2034 4750 
Q 2819 4750 3233 4129 
Q 3647 3509 3647 2328 
Q 3647 1150 3233 529 
Q 2819 -91 2034 -91 
Q 1250 -91 836 529 
Q 422 1150 422 2328 
Q 422 3509 836 4129 
Q 1250 4750 2034 4750 
z
" transform="scale(0.015625)"/>
       </defs>
       <use xlink:href="#DejaVuSans-30"/>
      </g>
     </g>
    </g>
    <g id="xtick_2">
     <g id="line2d_3">
      <path d="M 175.266683 386.198125 
L 175.266683 22.318125 
" clip-path="url(#pdfda808fb6)" style="fill: none; stroke: #b0b0b0; stroke-width: 0.8; stroke-linecap: square"/>
     </g>
     <g id="line2d_4">
      <g>
       <use xlink:href="#mcf877bec13" x="175.266683" y="386.198125" style="stroke: #000000; stroke-width: 0.8"/>
      </g>
     </g>
     <g id="text_2">
      <!-- 500 -->
      <g transform="translate(165.722933 400.796562) scale(0.1 -0.1)">
       <defs>
        <path id="DejaVuSans-35" d="M 691 4666 
L 3169 4666 
L 3169 4134 
L 1269 4134 
L 1269 2991 
Q 1406 3038 1543 3061 
Q 1681 3084 1819 3084 
Q 2600 3084 3056 2656 
Q 3513 2228 3513 1497 
Q 3513 744 3044 326 
Q 2575 -91 1722 -91 
Q 1428 -91 1123 -41 
Q 819 9 494 109 
L 494 744 
Q 775 591 1075 516 
Q 1375 441 1709 441 
Q 2250 441 2565 725 
Q 2881 1009 2881 1497 
Q 2881 1984 2565 2268 
Q 2250 2553 1709 2553 
Q 1456 2553 1204 2497 
Q 953 2441 691 2322 
L 691 4666 
z
" transform="scale(0.015625)"/>
       </defs>
       <use xlink:href="#DejaVuSans-35"/>
       <use xlink:href="#DejaVuSans-30" x="63.623047"/>
       <use xlink:href="#DejaVuSans-30" x="127.246094"/>
      </g>
     </g>
    </g>
    <g id="xtick_3">
     <g id="line2d_5">
      <path d="M 275.462608 386.198125 
L 275.462608 22.318125 
" clip-path="url(#pdfda808fb6)" style="fill: none; stroke: #b0b0b0; stroke-width: 0.8; stroke-linecap: square"/>
     </g>
     <g id="line2d_6">
      <g>
       <use xlink:href="#mcf877bec13" x="275.462608" y="386.198125" style="stroke: #000000; stroke-width: 0.8"/>
      </g>
     </g>
     <g id="text_3">
      <!-- 1000 -->
      <g transform="translate(262.737608 400.796562) scale(0.1 -0.1)">
       <defs>
        <path id="DejaVuSans-31" d="M 794 531 
L 1825 531 
L 1825 4091 
L 703 3866 
L 703 4441 
L 1819 4666 
L 2450 4666 
L 2450 531 
L 3481 531 
L 3481 0 
L 794 0 
L 794 531 
z
" transform="scale(0.015625)"/>
       </defs>
       <use xlink:href="#DejaVuSans-31"/>
       <use xlink:href="#DejaVuSans-30" x="63.623047"/>
       <use xlink:href="#DejaVuSans-30" x="127.246094"/>
       <use xlink:href="#DejaVuSans-30" x="190.869141"/>
      </g>
     </g>
    </g>
    <g id="xtick_4">
     <g id="line2d_7">
      <path d="M 375.658533 386.198125 
L 375.658533 22.318125 
" clip-path="url(#pdfda808fb6)" style="fill: none; stroke: #b0b0b0; stroke-width: 0.8; stroke-linecap: square"/>
     </g>
     <g id="line2d_8">
      <g>
       <use xlink:href="#mcf877bec13" x="375.658533" y="386.198125" style="stroke: #000000; stroke-width: 0.8"/>
      </g>
     </g>
     <g id="text_4">
      <!-- 1500 -->
      <g transform="translate(362.933533 400.796562) scale(0.1 -0.1)">
       <use xlink:href="#DejaVuSans-31"/>
       <use xlink:href="#DejaVuSans-35" x="63.623047"/>
       <use xlink:href="#DejaVuSans-30" x="127.246094"/>
       <use xlink:href="#DejaVuSans-30" x="190.869141"/>
      </g>
     </g>
    </g>
    <g id="xtick_5">
     <g id="line2d_9">
      <path d="M 475.854457 386.198125 
L 475.854457 22.318125 
" clip-path="url(#pdfda808fb6)" style="fill: none; stroke: #b0b0b0; stroke-width: 0.8; stroke-linecap: square"/>
     </g>
     <g id="line2d_10">
      <g>
       <use xlink:href="#mcf877bec13" x="475.854457" y="386.198125" style="stroke: #000000; stroke-width: 0.8"/>
      </g>
     </g>
     <g id="text_5">
      <!-- 2000 -->
      <g transform="translate(463.129457 400.796562) scale(0.1 -0.1)">
       <defs>
        <path id="DejaVuSans-32" d="M 1228 531 
L 3431 531 
L 3431 0 
L 469 0 
L 469 531 
Q 828 903 1448 1529 
Q 2069 2156 2228 2338 
Q 2531 2678 2651 2914 
Q 2772 3150 2772 3378 
Q 2772 3750 2511 3984 
Q 2250 4219 1831 4219 
Q 1534 4219 1204 4116 
Q 875 4013 500 3803 
L 500 4441 
Q 881 4594 1212 4672 
Q 1544 4750 1819 4750 
Q 2544 4750 2975 4387 
Q 3406 4025 3406 3419 
Q 3406 3131 3298 2873 
Q 3191 2616 2906 2266 
Q 2828 2175 2409 1742 
Q 1991 1309 1228 531 
z
" transform="scale(0.015625)"/>
       </defs>
       <use xlink:href="#DejaVuSans-32"/>
       <use xlink:href="#DejaVuSans-30" x="63.623047"/>
       <use xlink:href="#DejaVuSans-30" x="127.246094"/>
       <use xlink:href="#DejaVuSans-30" x="190.869141"/>
      </g>
     </g>
    </g>
    <g id="xtick_6">
     <g id="line2d_11">
      <path d="M 576.050382 386.198125 
L 576.050382 22.318125 
" clip-path="url(#pdfda808fb6)" style="fill: none; stroke: #b0b0b0; stroke-width: 0.8; stroke-linecap: square"/>
     </g>
     <g id="line2d_12">
      <g>
       <use xlink:href="#mcf877bec13" x="576.050382" y="386.198125" style="stroke: #000000; stroke-width: 0.8"/>
      </g>
     </g>
     <g id="text_6">
      <!-- 2500 -->
      <g transform="translate(563.325382 400.796562) scale(0.1 -0.1)">
       <use xlink:href="#DejaVuSans-32"/>
       <use xlink:href="#DejaVuSans-35" x="63.623047"/>
       <use xlink:href="#DejaVuSans-30" x="127.246094"/>
       <use xlink:href="#DejaVuSans-30" x="190.869141"/>
      </g>
     </g>
    </g>
    <g id="xtick_7">
     <g id="line2d_13">
      <path d="M 676.246307 386.198125 
L 676.246307 22.318125 
" clip-path="url(#pdfda808fb6)" style="fill: none; stroke: #b0b0b0; stroke-width: 0.8; stroke-linecap: square"/>
     </g>
     <g id="line2d_14">
      <g>
       <use xlink:href="#mcf877bec13" x="676.246307" y="386.198125" style="stroke: #000000; stroke-width: 0.8"/>
      </g>
     </g>
     <g id="text_7">
      <!-- 3000 -->
      <g transform="translate(663.521307 400.796562) scale(0.1 -0.1)">
       <defs>
        <path id="DejaVuSans-33" d="M 2597 2516 
Q 3050 2419 3304 2112 
Q 3559 1806 3559 1356 
Q 3559 666 3084 287 
Q 2609 -91 1734 -91 
Q 1441 -91 1130 -33 
Q 819 25 488 141 
L 488 750 
Q 750 597 1062 519 
Q 1375 441 1716 441 
Q 2309 441 2620 675 
Q 2931 909 2931 1356 
Q 2931 1769 2642 2001 
Q 2353 2234 1838 2234 
L 1294 2234 
L 1294 2753 
L 1863 2753 
Q 2328 2753 2575 2939 
Q 2822 3125 2822 3475 
Q 2822 3834 2567 4026 
Q 2313 4219 1838 4219 
Q 1578 4219 1281 4162 
Q 984 4106 628 3988 
L 628 4550 
Q 988 4650 1302 4700 
Q 1616 4750 1894 4750 
Q 2613 4750 3031 4423 
Q 3450 4097 3450 3541 
Q 3450 3153 3228 2886 
Q 3006 2619 2597 2516 
z
" transform="scale(0.015625)"/>
       </defs>
       <use xlink:href="#DejaVuSans-33"/>
       <use xlink:href="#DejaVuSans-30" x="63.623047"/>
       <use xlink:href="#DejaVuSans-30" x="127.246094"/>
       <use xlink:href="#DejaVuSans-30" x="190.869141"/>
      </g>
     </g>
    </g>
    <g id="text_8">
     <!-- Размер данных (N) -->
     <g transform="translate(336.132031 414.474687) scale(0.1 -0.1)">
      <defs>
       <path id="DejaVuSans-420" d="M 1259 4147 
L 1259 2394 
L 2053 2394 
Q 2494 2394 2734 2622 
Q 2975 2850 2975 3272 
Q 2975 3691 2734 3919 
Q 2494 4147 2053 4147 
L 1259 4147 
z
M 628 4666 
L 2053 4666 
Q 2838 4666 3239 4311 
Q 3641 3956 3641 3272 
Q 3641 2581 3239 2228 
Q 2838 1875 2053 1875 
L 1259 1875 
L 1259 0 
L 628 0 
L 628 4666 
z
" transform="scale(0.015625)"/>
       <path id="DejaVuSans-430" d="M 2194 1759 
Q 1497 1759 1228 1600 
Q 959 1441 959 1056 
Q 959 750 1161 570 
Q 1363 391 1709 391 
Q 2188 391 2477 730 
Q 2766 1069 2766 1631 
L 2766 1759 
L 2194 1759 
z
M 3341 1997 
L 3341 0 
L 2766 0 
L 2766 531 
Q 2569 213 2275 61 
Q 1981 -91 1556 -91 
Q 1019 -91 701 211 
Q 384 513 384 1019 
Q 384 1609 779 1909 
Q 1175 2209 1959 2209 
L 2766 2209 
L 2766 2266 
Q 2766 2663 2505 2880 
Q 2244 3097 1772 3097 
Q 1472 3097 1187 3025 
Q 903 2953 641 2809 
L 641 3341 
Q 956 3463 1253 3523 
Q 1550 3584 1831 3584 
Q 2591 3584 2966 3190 
Q 3341 2797 3341 1997 
z
" transform="scale(0.015625)"/>
       <path id="DejaVuSans-437" d="M 2206 1888 
Q 2594 1813 2809 1584 
Q 3025 1356 3025 1019 
Q 3025 478 2622 193 
Q 2219 -91 1475 -91 
Q 1225 -91 961 -47 
Q 697 -3 416 84 
L 416 619 
Q 638 503 903 445 
Q 1169 388 1459 388 
Q 1931 388 2195 563 
Q 2459 738 2459 1019 
Q 2459 1294 2225 1461 
Q 1991 1628 1563 1628 
L 1100 1628 
L 1100 2103 
L 1584 2103 
Q 1947 2103 2158 2242 
Q 2369 2381 2369 2600 
Q 2369 2800 2151 2944 
Q 1934 3088 1563 3088 
Q 1341 3088 1089 3047 
Q 838 3006 534 2916 
L 534 3438 
Q 841 3513 1106 3550 
Q 1372 3588 1609 3588 
Q 2222 3588 2576 3342 
Q 2931 3097 2931 2656 
Q 2931 2366 2743 2164 
Q 2556 1963 2206 1888 
z
" transform="scale(0.015625)"/>
       <path id="DejaVuSans-43c" d="M 581 3500 
L 1422 3500 
L 2416 1156 
L 3413 3500 
L 4247 3500 
L 4247 0 
L 3669 0 
L 3669 2950 
L 2703 672 
L 2128 672 
L 1159 2950 
L 1159 0 
L 581 0 
L 581 3500 
z
" transform="scale(0.015625)"/>
       <path id="DejaVuSans-435" d="M 3597 1894 
L 3597 1613 
L 953 1613 
Q 991 1019 1311 708 
Q 1631 397 2203 397 
Q 2534 397 2845 478 
Q 3156 559 3463 722 
L 3463 178 
Q 3153 47 2828 -22 
Q 2503 -91 2169 -91 
Q 1331 -91 842 396 
Q 353 884 353 1716 
Q 353 2575 817 3079 
Q 1281 3584 2069 3584 
Q 2775 3584 3186 3129 
Q 3597 2675 3597 1894 
z
M 3022 2063 
Q 3016 2534 2758 2815 
Q 2500 3097 2075 3097 
Q 1594 3097 1305 2825 
Q 1016 2553 972 2059 
L 3022 2063 
z
" transform="scale(0.015625)"/>
       <path id="DejaVuSans-440" d="M 1159 525 
L 1159 -1331 
L 581 -1331 
L 581 3500 
L 1159 3500 
L 1159 2969 
Q 1341 3281 1617 3432 
Q 1894 3584 2278 3584 
Q 2916 3584 3314 3078 
Q 3713 2572 3713 1747 
Q 3713 922 3314 415 
Q 2916 -91 2278 -91 
Q 1894 -91 1617 61 
Q 1341 213 1159 525 
z
M 3116 1747 
Q 3116 2381 2855 2742 
Q 2594 3103 2138 3103 
Q 1681 3103 1420 2742 
Q 1159 2381 1159 1747 
Q 1159 1113 1420 752 
Q 1681 391 2138 391 
Q 2594 391 2855 752 
Q 3116 1113 3116 1747 
z
" transform="scale(0.015625)"/>
       <path id="DejaVuSans-20" transform="scale(0.015625)"/>
       <path id="DejaVuSans-434" d="M 1384 459 
L 3053 459 
L 3053 3041 
L 1844 3041 
L 1844 2603 
Q 1844 1316 1475 628 
L 1384 459 
z
M 550 459 
Q 834 584 959 850 
Q 1266 1509 1266 2838 
L 1266 3500 
L 3631 3500 
L 3631 459 
L 4091 459 
L 4091 -884 
L 3631 -884 
L 3631 0 
L 794 0 
L 794 -884 
L 334 -884 
L 334 459 
L 550 459 
z
" transform="scale(0.015625)"/>
       <path id="DejaVuSans-43d" d="M 581 3500 
L 1159 3500 
L 1159 2072 
L 3025 2072 
L 3025 3500 
L 3603 3500 
L 3603 0 
L 3025 0 
L 3025 1613 
L 1159 1613 
L 1159 0 
L 581 0 
L 581 3500 
z
" transform="scale(0.015625)"/>
       <path id="DejaVuSans-44b" d="M 3909 3500 
L 4484 3500 
L 4484 0 
L 3909 0 
L 3909 3500 
z
M 4197 3584 
L 4197 3584 
z
M 2781 1038 
Q 2781 1319 2576 1466 
Q 2372 1613 1978 1613 
L 1159 1613 
L 1159 459 
L 1978 459 
Q 2372 459 2576 607 
Q 2781 756 2781 1038 
z
M 581 3500 
L 1159 3500 
L 1159 2072 
L 2003 2072 
Q 2672 2072 3033 1817 
Q 3394 1563 3394 1038 
Q 3394 513 3033 256 
Q 2672 0 2003 0 
L 581 0 
L 581 3500 
z
" transform="scale(0.015625)"/>
       <path id="DejaVuSans-445" d="M 3513 3500 
L 2247 1797 
L 3578 0 
L 2900 0 
L 1881 1375 
L 863 0 
L 184 0 
L 1544 1831 
L 300 3500 
L 978 3500 
L 1906 2253 
L 2834 3500 
L 3513 3500 
z
" transform="scale(0.015625)"/>
       <path id="DejaVuSans-28" d="M 1984 4856 
Q 1566 4138 1362 3434 
Q 1159 2731 1159 2009 
Q 1159 1288 1364 580 
Q 1569 -128 1984 -844 
L 1484 -844 
Q 1016 -109 783 600 
Q 550 1309 550 2009 
Q 550 2706 781 3412 
Q 1013 4119 1484 4856 
L 1984 4856 
z
" transform="scale(0.015625)"/>
       <path id="DejaVuSans-4e" d="M 628 4666 
L 1478 4666 
L 3547 763 
L 3547 4666 
L 4159 4666 
L 4159 0 
L 3309 0 
L 1241 3903 
L 1241 0 
L 628 0 
L 628 4666 
z
" transform="scale(0.015625)"/>
       <path id="DejaVuSans-29" d="M 513 4856 
L 1013 4856 
Q 1481 4119 1714 3412 
Q 1947 2706 1947 2009 
Q 1947 1309 1714 600 
Q 1481 -109 1013 -844 
L 513 -844 
Q 928 -128 1133 580 
Q 1338 1288 1338 2009 
Q 1338 2731 1133 3434 
Q 928 4138 513 4856 
z
" transform="scale(0.015625)"/>
      </defs>
      <use xlink:href="#DejaVuSans-420"/>
      <use xlink:href="#DejaVuSans-430" x="60.302734"/>
      <use xlink:href="#DejaVuSans-437" x="121.582031"/>
      <use xlink:href="#DejaVuSans-43c" x="174.755859"/>
      <use xlink:href="#DejaVuSans-435" x="250.195312"/>
      <use xlink:href="#DejaVuSans-440" x="311.71875"/>
      <use xlink:href="#DejaVuSans-20" x="375.195312"/>
      <use xlink:href="#DejaVuSans-434" x="406.982422"/>
      <use xlink:href="#DejaVuSans-430" x="476.123047"/>
      <use xlink:href="#DejaVuSans-43d" x="537.402344"/>
      <use xlink:href="#DejaVuSans-43d" x="602.783203"/>
      <use xlink:href="#DejaVuSans-44b" x="668.164062"/>
      <use xlink:href="#DejaVuSans-445" x="747.119141"/>
      <use xlink:href="#DejaVuSans-20" x="806.298828"/>
      <use xlink:href="#DejaVuSans-28" x="838.085938"/>
      <use xlink:href="#DejaVuSans-4e" x="877.099609"/>
      <use xlink:href="#DejaVuSans-29" x="951.904297"/>
     </g>
    </g>
   </g>
   <g id="matplotlib.axis_2">
    <g id="ytick_1">
     <g id="line2d_15">
      <path d="M 66.053125 370.878789 
L 705.303125 370.878789 
" clip-path="url(#pdfda808fb6)" style="fill: none; stroke: #b0b0b0; stroke-width: 0.8; stroke-linecap: square"/>
     </g>
     <g id="line2d_16">
      <defs>
       <path id="m642f3bf2ad" d="M 0 0 
L -3.5 0 
" style="stroke: #000000; stroke-width: 0.8"/>
      </defs>
      <g>
       <use xlink:href="#m642f3bf2ad" x="66.053125" y="370.878789" style="stroke: #000000; stroke-width: 0.8"/>
      </g>
     </g>
     <g id="text_9">
      <!-- 0 -->
      <g transform="translate(52.690625 374.678008) scale(0.1 -0.1)">
       <use xlink:href="#DejaVuSans-30"/>
      </g>
     </g>
    </g>
    <g id="ytick_2">
     <g id="line2d_17">
      <path d="M 66.053125 301.91471 
L 705.303125 301.91471 
" clip-path="url(#pdfda808fb6)" style="fill: none; stroke: #b0b0b0; stroke-width: 0.8; stroke-linecap: square"/>
     </g>
     <g id="line2d_18">
      <g>
       <use xlink:href="#m642f3bf2ad" x="66.053125" y="301.91471" style="stroke: #000000; stroke-width: 0.8"/>
      </g>
     </g>
     <g id="text_10">
      <!-- 20000 -->
      <g transform="translate(27.240625 305.713928) scale(0.1 -0.1)">
       <use xlink:href="#DejaVuSans-32"/>
       <use xlink:href="#DejaVuSans-30" x="63.623047"/>
       <use xlink:href="#DejaVuSans-30" x="127.246094"/>
       <use xlink:href="#DejaVuSans-30" x="190.869141"/>
       <use xlink:href="#DejaVuSans-30" x="254.492188"/>
      </g>
     </g>
    </g>
    <g id="ytick_3">
     <g id="line2d_19">
      <path d="M 66.053125 232.95063 
L 705.303125 232.95063 
" clip-path="url(#pdfda808fb6)" style="fill: none; stroke: #b0b0b0; stroke-width: 0.8; stroke-linecap: square"/>
     </g>
     <g id="line2d_20">
      <g>
       <use xlink:href="#m642f3bf2ad" x="66.053125" y="232.95063" style="stroke: #000000; stroke-width: 0.8"/>
      </g>
     </g>
     <g id="text_11">
      <!-- 40000 -->
      <g transform="translate(27.240625 236.749849) scale(0.1 -0.1)">
       <defs>
        <path id="DejaVuSans-34" d="M 2419 4116 
L 825 1625 
L 2419 1625 
L 2419 4116 
z
M 2253 4666 
L 3047 4666 
L 3047 1625 
L 3713 1625 
L 3713 1100 
L 3047 1100 
L 3047 0 
L 2419 0 
L 2419 1100 
L 313 1100 
L 313 1709 
L 2253 4666 
z
" transform="scale(0.015625)"/>
       </defs>
       <use xlink:href="#DejaVuSans-34"/>
       <use xlink:href="#DejaVuSans-30" x="63.623047"/>
       <use xlink:href="#DejaVuSans-30" x="127.246094"/>
       <use xlink:href="#DejaVuSans-30" x="190.869141"/>
       <use xlink:href="#DejaVuSans-30" x="254.492188"/>
      </g>
     </g>
    </g>
    <g id="ytick_4">
     <g id="line2d_21">
      <path d="M 66.053125 163.986551 
L 705.303125 163.986551 
" clip-path="url(#pdfda808fb6)" style="fill: none; stroke: #b0b0b0; stroke-width: 0.8; stroke-linecap: square"/>
     </g>
     <g id="line2d_22">
      <g>
       <use xlink:href="#m642f3bf2ad" x="66.053125" y="163.986551" style="stroke: #000000; stroke-width: 0.8"/>
      </g>
     </g>
     <g id="text_12">
      <!-- 60000 -->
      <g transform="translate(27.240625 167.78577) scale(0.1 -0.1)">
       <defs>
        <path id="DejaVuSans-36" d="M 2113 2584 
Q 1688 2584 1439 2293 
Q 1191 2003 1191 1497 
Q 1191 994 1439 701 
Q 1688 409 2113 409 
Q 2538 409 2786 701 
Q 3034 994 3034 1497 
Q 3034 2003 2786 2293 
Q 2538 2584 2113 2584 
z
M 3366 4563 
L 3366 3988 
Q 3128 4100 2886 4159 
Q 2644 4219 2406 4219 
Q 1781 4219 1451 3797 
Q 1122 3375 1075 2522 
Q 1259 2794 1537 2939 
Q 1816 3084 2150 3084 
Q 2853 3084 3261 2657 
Q 3669 2231 3669 1497 
Q 3669 778 3244 343 
Q 2819 -91 2113 -91 
Q 1303 -91 875 529 
Q 447 1150 447 2328 
Q 447 3434 972 4092 
Q 1497 4750 2381 4750 
Q 2619 4750 2861 4703 
Q 3103 4656 3366 4563 
z
" transform="scale(0.015625)"/>
       </defs>
       <use xlink:href="#DejaVuSans-36"/>
       <use xlink:href="#DejaVuSans-30" x="63.623047"/>
       <use xlink:href="#DejaVuSans-30" x="127.246094"/>
       <use xlink:href="#DejaVuSans-30" x="190.869141"/>
       <use xlink:href="#DejaVuSans-30" x="254.492188"/>
      </g>
     </g>
    </g>
    <g id="ytick_5">
     <g id="line2d_23">
      <path d="M 66.053125 95.022471 
L 705.303125 95.022471 
" clip-path="url(#pdfda808fb6)" style="fill: none; stroke: #b0b0b0; stroke-width: 0.8; stroke-linecap: square"/>
     </g>
     <g id="line2d_24">
      <g>
       <use xlink:href="#m642f3bf2ad" x="66.053125" y="95.022471" style="stroke: #000000; stroke-width: 0.8"/>
      </g>
     </g>
     <g id="text_13">
      <!-- 80000 -->
      <g transform="translate(27.240625 98.82169) scale(0.1 -0.1)">
       <defs>
        <path id="DejaVuSans-38" d="M 2034 2216 
Q 1584 2216 1326 1975 
Q 1069 1734 1069 1313 
Q 1069 891 1326 650 
Q 1584 409 2034 409 
Q 2484 409 2743 651 
Q 3003 894 3003 1313 
Q 3003 1734 2745 1975 
Q 2488 2216 2034 2216 
z
M 1403 2484 
Q 997 2584 770 2862 
Q 544 3141 544 3541 
Q 544 4100 942 4425 
Q 1341 4750 2034 4750 
Q 2731 4750 3128 4425 
Q 3525 4100 3525 3541 
Q 3525 3141 3298 2862 
Q 3072 2584 2669 2484 
Q 3125 2378 3379 2068 
Q 3634 1759 3634 1313 
Q 3634 634 3220 271 
Q 2806 -91 2034 -91 
Q 1263 -91 848 271 
Q 434 634 434 1313 
Q 434 1759 690 2068 
Q 947 2378 1403 2484 
z
M 1172 3481 
Q 1172 3119 1398 2916 
Q 1625 2713 2034 2713 
Q 2441 2713 2670 2916 
Q 2900 3119 2900 3481 
Q 2900 3844 2670 4047 
Q 2441 4250 2034 4250 
Q 1625 4250 1398 4047 
Q 1172 3844 1172 3481 
z
" transform="scale(0.015625)"/>
       </defs>
       <use xlink:href="#DejaVuSans-38"/>
       <use xlink:href="#DejaVuSans-30" x="63.623047"/>
       <use xlink:href="#DejaVuSans-30" x="127.246094"/>
       <use xlink:href="#DejaVuSans-30" x="190.869141"/>
       <use xlink:href="#DejaVuSans-30" x="254.492188"/>
      </g>
     </g>
    </g>
    <g id="ytick_6">
     <g id="line2d_25">
      <path d="M 66.053125 26.058392 
L 705.303125 26.058392 
" clip-path="url(#pdfda808fb6)" style="fill: none; stroke: #b0b0b0; stroke-width: 0.8; stroke-linecap: square"/>
     </g>
     <g id="line2d_26">
      <g>
       <use xlink:href="#m642f3bf2ad" x="66.053125" y="26.058392" style="stroke: #000000; stroke-width: 0.8"/>
      </g>
     </g>
     <g id="text_14">
      <!-- 100000 -->
      <g transform="translate(20.878125 29.857611) scale(0.1 -0.1)">
       <use xlink:href="#DejaVuSans-31"/>
       <use xlink:href="#DejaVuSans-30" x="63.623047"/>
       <use xlink:href="#DejaVuSans-30" x="127.246094"/>
       <use xlink:href="#DejaVuSans-30" x="190.869141"/>
       <use xlink:href="#DejaVuSans-30" x="254.492188"/>
       <use xlink:href="#DejaVuSans-30" x="318.115234"/>
      </g>
     </g>
    </g>
    <g id="text_15">
     <!-- Количество сравнений -->
     <g transform="translate(14.798438 264.647187) rotate(-90) scale(0.1 -0.1)">
      <defs>
       <path id="DejaVuSans-41a" d="M 628 4666 
L 1259 4666 
L 1259 2359 
L 3516 4666 
L 4325 4666 
L 2522 2822 
L 4419 0 
L 3731 0 
L 2113 2403 
L 1259 1531 
L 1259 0 
L 628 0 
L 628 4666 
z
" transform="scale(0.015625)"/>
       <path id="DejaVuSans-43e" d="M 1959 3097 
Q 1497 3097 1228 2736 
Q 959 2375 959 1747 
Q 959 1119 1226 758 
Q 1494 397 1959 397 
Q 2419 397 2687 759 
Q 2956 1122 2956 1747 
Q 2956 2369 2687 2733 
Q 2419 3097 1959 3097 
z
M 1959 3584 
Q 2709 3584 3137 3096 
Q 3566 2609 3566 1747 
Q 3566 888 3137 398 
Q 2709 -91 1959 -91 
Q 1206 -91 779 398 
Q 353 888 353 1747 
Q 353 2609 779 3096 
Q 1206 3584 1959 3584 
z
" transform="scale(0.015625)"/>
       <path id="DejaVuSans-43b" d="M 238 0 
L 238 478 
Q 806 566 981 959 
Q 1194 1513 1194 2928 
L 1194 3500 
L 3559 3500 
L 3559 0 
L 2984 0 
L 2984 3041 
L 1769 3041 
L 1769 2694 
Q 1769 1344 1494 738 
Q 1200 91 238 0 
z
" transform="scale(0.015625)"/>
       <path id="DejaVuSans-438" d="M 3578 3500 
L 3578 0 
L 3006 0 
L 3006 2809 
L 1319 0 
L 581 0 
L 581 3500 
L 1153 3500 
L 1153 697 
L 2838 3500 
L 3578 3500 
z
" transform="scale(0.015625)"/>
       <path id="DejaVuSans-447" d="M 2625 0 
L 2625 1472 
L 1553 1472 
Q 1075 1472 756 1769 
Q 469 2038 469 2613 
L 469 3500 
L 1044 3500 
L 1044 2666 
Q 1044 2300 1206 2116 
Q 1372 1931 1697 1931 
L 2625 1931 
L 2625 3500 
L 3200 3500 
L 3200 0 
L 2625 0 
z
" transform="scale(0.015625)"/>
       <path id="DejaVuSans-441" d="M 3122 3366 
L 3122 2828 
Q 2878 2963 2633 3030 
Q 2388 3097 2138 3097 
Q 1578 3097 1268 2742 
Q 959 2388 959 1747 
Q 959 1106 1268 751 
Q 1578 397 2138 397 
Q 2388 397 2633 464 
Q 2878 531 3122 666 
L 3122 134 
Q 2881 22 2623 -34 
Q 2366 -91 2075 -91 
Q 1284 -91 818 406 
Q 353 903 353 1747 
Q 353 2603 823 3093 
Q 1294 3584 2113 3584 
Q 2378 3584 2631 3529 
Q 2884 3475 3122 3366 
z
" transform="scale(0.015625)"/>
       <path id="DejaVuSans-442" d="M 188 3500 
L 3541 3500 
L 3541 3041 
L 2147 3041 
L 2147 0 
L 1581 0 
L 1581 3041 
L 188 3041 
L 188 3500 
z
" transform="scale(0.015625)"/>
       <path id="DejaVuSans-432" d="M 1156 1613 
L 1156 459 
L 1975 459 
Q 2369 459 2575 607 
Q 2781 756 2781 1038 
Q 2781 1319 2575 1466 
Q 2369 1613 1975 1613 
L 1156 1613 
z
M 1156 3041 
L 1156 2072 
L 1913 2072 
Q 2238 2072 2444 2201 
Q 2650 2331 2650 2563 
Q 2650 2794 2444 2917 
Q 2238 3041 1913 3041 
L 1156 3041 
z
M 581 3500 
L 1950 3500 
Q 2566 3500 2897 3275 
Q 3228 3050 3228 2634 
Q 3228 2313 3059 2123 
Q 2891 1934 2559 1888 
Q 2956 1813 3175 1575 
Q 3394 1338 3394 981 
Q 3394 513 3033 256 
Q 2672 0 2003 0 
L 581 0 
L 581 3500 
z
" transform="scale(0.015625)"/>
       <path id="DejaVuSans-439" d="M 3578 3500 
L 3578 0 
L 3006 0 
L 3006 2809 
L 1319 0 
L 581 0 
L 581 3500 
L 1153 3500 
L 1153 697 
L 2838 3500 
L 3578 3500 
z
M 1103 4862 
L 1472 4862 
Q 1506 4628 1657 4510 
Q 1809 4393 2081 4393 
Q 2350 4393 2500 4509 
Q 2650 4625 2691 4862 
L 3059 4862 
Q 3028 4415 2781 4190 
Q 2534 3965 2081 3965 
Q 1628 3965 1381 4190 
Q 1134 4415 1103 4862 
z
" transform="scale(0.015625)"/>
      </defs>
      <use xlink:href="#DejaVuSans-41a"/>
      <use xlink:href="#DejaVuSans-43e" x="70.996094"/>
      <use xlink:href="#DejaVuSans-43b" x="132.177734"/>
      <use xlink:href="#DejaVuSans-438" x="196.09375"/>
      <use xlink:href="#DejaVuSans-447" x="261.083984"/>
      <use xlink:href="#DejaVuSans-435" x="320.166016"/>
      <use xlink:href="#DejaVuSans-441" x="381.689453"/>
      <use xlink:href="#DejaVuSans-442" x="436.669922"/>
      <use xlink:href="#DejaVuSans-432" x="494.921875"/>
      <use xlink:href="#DejaVuSans-43e" x="553.857422"/>
      <use xlink:href="#DejaVuSans-20" x="615.039062"/>
      <use xlink:href="#DejaVuSans-441" x="646.826172"/>
      <use xlink:href="#DejaVuSans-440" x="701.806641"/>
      <use xlink:href="#DejaVuSans-430" x="765.283203"/>
      <use xlink:href="#DejaVuSans-432" x="826.5625"/>
      <use xlink:href="#DejaVuSans-43d" x="885.498047"/>
      <use xlink:href="#DejaVuSans-435" x="950.878906"/>
      <use xlink:href="#DejaVuSans-43d" x="1012.402344"/>
      <use xlink:href="#DejaVuSans-438" x="1077.783203"/>
      <use xlink:href="#DejaVuSans-439" x="1142.773438"/>
     </g>
    </g>
   </g>
   <g id="line2d_27">
    <path d="M 95.109943 368.223672 
L 115.149128 364.613403 
L 135.188313 360.558315 
L 155.227498 356.175647 
L 175.266683 352.451587 
L 195.305868 346.920668 
L 215.345053 341.744914 
L 235.384238 337.055356 
L 255.423423 332.583036 
L 275.462608 328.617601 
L 295.501793 322.517728 
L 315.540978 316.224756 
L 335.580163 310.566254 
L 355.619348 304.866372 
L 375.658533 299.828546 
L 395.697717 294.61831 
L 415.736902 289.052909 
L 435.776087 284.090943 
L 455.815272 279.253113 
L 475.854457 275.218715 
L 495.893642 269.418835 
L 515.932827 261.777615 
L 535.972012 254.91569 
L 556.011197 247.977903 
L 576.050382 241.550451 
L 596.089567 235.371269 
L 616.128752 228.88175 
L 636.167937 223.047388 
L 656.207122 216.913034 
L 676.246307 211.533835 
" clip-path="url(#pdfda808fb6)" style="fill: none; stroke: #1f77b4; stroke-width: 1.5; stroke-linecap: square"/>
    <defs>
     <path id="m4d45befcea" d="M 0 3 
C 0.795609 3 1.55874 2.683901 2.12132 2.12132 
C 2.683901 1.55874 3 0.795609 3 0 
C 3 -0.795609 2.683901 -1.55874 2.12132 -2.12132 
C 1.55874 -2.683901 0.795609 -3 0 -3 
C -0.795609 -3 -1.55874 -2.683901 -2.12132 -2.12132 
C -2.683901 -1.55874 -3 -0.795609 -3 0 
C -3 0.795609 -2.683901 1.55874 -2.12132 2.12132 
C -1.55874 2.683901 -0.795609 3 0 3 
z
" style="stroke: #1f77b4"/>
    </defs>
    <g clip-path="url(#pdfda808fb6)">
     <use xlink:href="#m4d45befcea" x="95.109943" y="368.223672" style="fill: #1f77b4; stroke: #1f77b4"/>
     <use xlink:href="#m4d45befcea" x="115.149128" y="364.613403" style="fill: #1f77b4; stroke: #1f77b4"/>
     <use xlink:href="#m4d45befcea" x="135.188313" y="360.558315" style="fill: #1f77b4; stroke: #1f77b4"/>
     <use xlink:href="#m4d45befcea" x="155.227498" y="356.175647" style="fill: #1f77b4; stroke: #1f77b4"/>
     <use xlink:href="#m4d45befcea" x="175.266683" y="352.451587" style="fill: #1f77b4; stroke: #1f77b4"/>
     <use xlink:href="#m4d45befcea" x="195.305868" y="346.920668" style="fill: #1f77b4; stroke: #1f77b4"/>
     <use xlink:href="#m4d45befcea" x="215.345053" y="341.744914" style="fill: #1f77b4; stroke: #1f77b4"/>
     <use xlink:href="#m4d45befcea" x="235.384238" y="337.055356" style="fill: #1f77b4; stroke: #1f77b4"/>
     <use xlink:href="#m4d45befcea" x="255.423423" y="332.583036" style="fill: #1f77b4; stroke: #1f77b4"/>
     <use xlink:href="#m4d45befcea" x="275.462608" y="328.617601" style="fill: #1f77b4; stroke: #1f77b4"/>
     <use xlink:href="#m4d45befcea" x="295.501793" y="322.517728" style="fill: #1f77b4; stroke: #1f77b4"/>
     <use xlink:href="#m4d45befcea" x="315.540978" y="316.224756" style="fill: #1f77b4; stroke: #1f77b4"/>
     <use xlink:href="#m4d45befcea" x="335.580163" y="310.566254" style="fill: #1f77b4; stroke: #1f77b4"/>
     <use xlink:href="#m4d45befcea" x="355.619348" y="304.866372" style="fill: #1f77b4; stroke: #1f77b4"/>
     <use xlink:href="#m4d45befcea" x="375.658533" y="299.828546" style="fill: #1f77b4; stroke: #1f77b4"/>
     <use xlink:href="#m4d45befcea" x="395.697717" y="294.61831" style="fill: #1f77b4; stroke: #1f77b4"/>
     <use xlink:href="#m4d45befcea" x="415.736902" y="289.052909" style="fill: #1f77b4; stroke: #1f77b4"/>
     <use xlink:href="#m4d45befcea" x="435.776087" y="284.090943" style="fill: #1f77b4; stroke: #1f77b4"/>
     <use xlink:href="#m4d45befcea" x="455.815272" y="279.253113" style="fill: #1f77b4; stroke: #1f77b4"/>
     <use xlink:href="#m4d45befcea" x="475.854457" y="275.218715" style="fill: #1f77b4; stroke: #1f77b4"/>
     <use xlink:href="#m4d45befcea" x="495.893642" y="269.418835" style="fill: #1f77b4; stroke: #1f77b4"/>
     <use xlink:href="#m4d45befcea" x="515.932827" y="261.777615" style="fill: #1f77b4; stroke: #1f77b4"/>
     <use xlink:href="#m4d45befcea" x="535.972012" y="254.91569" style="fill: #1f77b4; stroke: #1f77b4"/>
     <use xlink:href="#m4d45befcea" x="556.011197" y="247.977903" style="fill: #1f77b4; stroke: #1f77b4"/>
     <use xlink:href="#m4d45befcea" x="576.050382" y="241.550451" style="fill: #1f77b4; stroke: #1f77b4"/>
     <use xlink:href="#m4d45befcea" x="596.089567" y="235.371269" style="fill: #1f77b4; stroke: #1f77b4"/>
     <use xlink:href="#m4d45befcea" x="616.128752" y="228.88175" style="fill: #1f77b4; stroke: #1f77b4"/>
     <use xlink:href="#m4d45befcea" x="636.167937" y="223.047388" style="fill: #1f77b4; stroke: #1f77b4"/>
     <use xlink:href="#m4d45befcea" x="656.207122" y="216.913034" style="fill: #1f77b4; stroke: #1f77b4"/>
     <use xlink:href="#m4d45befcea" x="676.246307" y="211.533835" style="fill: #1f77b4; stroke: #1f77b4"/>
    </g>
   </g>
   <g id="line2d_28">
    <path d="M 95.109943 365.98234 
L 115.149128 359.868674 
L 135.188313 351.496435 
L 155.227498 340.693212 
L 175.266683 333.748529 
L 195.305868 324.634926 
L 215.345053 314.983403 
L 235.384238 303.531917 
L 255.423423 296.880332 
L 275.462608 285.108164 
L 295.501793 275.666981 
L 315.540978 263.608612 
L 335.580163 250.474403 
L 355.619348 234.37129 
L 375.658533 225.04045 
L 395.697717 214.582048 
L 415.736902 207.727018 
L 435.776087 192.023897 
L 455.815272 188.810171 
L 475.854457 165.534794 
L 495.893642 164.558953 
L 515.932827 139.714643 
L 535.972012 131.75274 
L 556.011197 117.622 
L 576.050382 111.108343 
L 596.089567 95.032816 
L 616.128752 82.550318 
L 636.167937 65.967905 
L 656.207122 63.888638 
L 676.246307 38.858125 
" clip-path="url(#pdfda808fb6)" style="fill: none; stroke: #ff7f0e; stroke-width: 1.5; stroke-linecap: square"/>
    <defs>
     <path id="m96a9b7c9d7" d="M 0 3 
C 0.795609 3 1.55874 2.683901 2.12132 2.12132 
C 2.683901 1.55874 3 0.795609 3 0 
C 3 -0.795609 2.683901 -1.55874 2.12132 -2.12132 
C 1.55874 -2.683901 0.795609 -3 0 -3 
C -0.795609 -3 -1.55874 -2.683901 -2.12132 -2.12132 
C -2.683901 -1.55874 -3 -0.795609 -3 0 
C -3 0.795609 -2.683901 1.55874 -2.12132 2.12132 
C -1.55874 2.683901 -0.795609 3 0 3 
z
" style="stroke: #ff7f0e"/>
    </defs>
    <g clip-path="url(#pdfda808fb6)">
     <use xlink:href="#m96a9b7c9d7" x="95.109943" y="365.98234" style="fill: #ff7f0e; stroke: #ff7f0e"/>
     <use xlink:href="#m96a9b7c9d7" x="115.149128" y="359.868674" style="fill: #ff7f0e; stroke: #ff7f0e"/>
     <use xlink:href="#m96a9b7c9d7" x="135.188313" y="351.496435" style="fill: #ff7f0e; stroke: #ff7f0e"/>
     <use xlink:href="#m96a9b7c9d7" x="155.227498" y="340.693212" style="fill: #ff7f0e; stroke: #ff7f0e"/>
     <use xlink:href="#m96a9b7c9d7" x="175.266683" y="333.748529" style="fill: #ff7f0e; stroke: #ff7f0e"/>
     <use xlink:href="#m96a9b7c9d7" x="195.305868" y="324.634926" style="fill: #ff7f0e; stroke: #ff7f0e"/>
     <use xlink:href="#m96a9b7c9d7" x="215.345053" y="314.983403" style="fill: #ff7f0e; stroke: #ff7f0e"/>
     <use xlink:href="#m96a9b7c9d7" x="235.384238" y="303.531917" style="fill: #ff7f0e; stroke: #ff7f0e"/>
     <use xlink:href="#m96a9b7c9d7" x="255.423423" y="296.880332" style="fill: #ff7f0e; stroke: #ff7f0e"/>
     <use xlink:href="#m96a9b7c9d7" x="275.462608" y="285.108164" style="fill: #ff7f0e; stroke: #ff7f0e"/>
     <use xlink:href="#m96a9b7c9d7" x="295.501793" y="275.666981" style="fill: #ff7f0e; stroke: #ff7f0e"/>
     <use xlink:href="#m96a9b7c9d7" x="315.540978" y="263.608612" style="fill: #ff7f0e; stroke: #ff7f0e"/>
     <use xlink:href="#m96a9b7c9d7" x="335.580163" y="250.474403" style="fill: #ff7f0e; stroke: #ff7f0e"/>
     <use xlink:href="#m96a9b7c9d7" x="355.619348" y="234.37129" style="fill: #ff7f0e; stroke: #ff7f0e"/>
     <use xlink:href="#m96a9b7c9d7" x="375.658533" y="225.04045" style="fill: #ff7f0e; stroke: #ff7f0e"/>
     <use xlink:href="#m96a9b7c9d7" x="395.697717" y="214.582048" style="fill: #ff7f0e; stroke: #ff7f0e"/>
     <use xlink:href="#m96a9b7c9d7" x="415.736902" y="207.727018" style="fill: #ff7f0e; stroke: #ff7f0e"/>
     <use xlink:href="#m96a9b7c9d7" x="435.776087" y="192.023897" style="fill: #ff7f0e; stroke: #ff7f0e"/>
     <use xlink:href="#m96a9b7c9d7" x="455.815272" y="188.810171" style="fill: #ff7f0e; stroke: #ff7f0e"/>
     <use xlink:href="#m96a9b7c9d7" x="475.854457" y="165.534794" style="fill: #ff7f0e; stroke: #ff7f0e"/>
     <use xlink:href="#m96a9b7c9d7" x="495.893642" y="164.558953" style="fill: #ff7f0e; stroke: #ff7f0e"/>
     <use xlink:href="#m96a9b7c9d7" x="515.932827" y="139.714643" style="fill: #ff7f0e; stroke: #ff7f0e"/>
     <use xlink:href="#m96a9b7c9d7" x="535.972012" y="131.75274" style="fill: #ff7f0e; stroke: #ff7f0e"/>
     <use xlink:href="#m96a9b7c9d7" x="556.011197" y="117.622" style="fill: #ff7f0e; stroke: #ff7f0e"/>
     <use xlink:href="#m96a9b7c9d7" x="576.050382" y="111.108343" style="fill: #ff7f0e; stroke: #ff7f0e"/>
     <use xlink:href="#m96a9b7c9d7" x="596.089567" y="95.032816" style="fill: #ff7f0e; stroke: #ff7f0e"/>
     <use xlink:href="#m96a9b7c9d7" x="616.128752" y="82.550318" style="fill: #ff7f0e; stroke: #ff7f0e"/>
     <use xlink:href="#m96a9b7c9d7" x="636.167937" y="65.967905" style="fill: #ff7f0e; stroke: #ff7f0e"/>
     <use xlink:href="#m96a9b7c9d7" x="656.207122" y="63.888638" style="fill: #ff7f0e; stroke: #ff7f0e"/>
     <use xlink:href="#m96a9b7c9d7" x="676.246307" y="38.858125" style="fill: #ff7f0e; stroke: #ff7f0e"/>
    </g>
   </g>
   <g id="line2d_29">
    <path d="M 95.109943 369.658125 
L 115.149128 368.158156 
L 135.188313 366.678877 
L 155.227498 365.196149 
L 175.266683 363.678939 
L 195.305868 362.147937 
L 215.345053 360.634175 
L 235.384238 359.034209 
L 255.423423 357.499758 
L 275.462608 355.92048 
L 295.501793 354.334307 
L 315.540978 352.655031 
L 335.580163 350.999893 
L 355.619348 349.479235 
L 375.658533 347.668928 
L 395.697717 346.162063 
L 415.736902 344.21038 
L 435.776087 342.493174 
L 455.815272 340.879415 
L 475.854457 339.113934 
L 495.893642 337.441555 
L 515.932827 335.458838 
L 535.972012 333.693358 
L 556.011197 331.914084 
L 576.050382 329.914126 
L 596.089567 328.321056 
L 616.128752 326.355579 
L 636.167937 324.60734 
L 656.207122 322.776344 
L 676.246307 320.7488 
" clip-path="url(#pdfda808fb6)" style="fill: none; stroke: #2ca02c; stroke-width: 1.5; stroke-linecap: square"/>
    <defs>
     <path id="me60c24d692" d="M 0 3 
C 0.795609 3 1.55874 2.683901 2.12132 2.12132 
C 2.683901 1.55874 3 0.795609 3 0 
C 3 -0.795609 2.683901 -1.55874 2.12132 -2.12132 
C 1.55874 -2.683901 0.795609 -3 0 -3 
C -0.795609 -3 -1.55874 -2.683901 -2.12132 -2.12132 
C -2.683901 -1.55874 -3 -0.795609 -3 0 
C -3 0.795609 -2.683901 1.55874 -2.12132 2.12132 
C -1.55874 2.683901 -0.795609 3 0 3 
z
" style="stroke: #2ca02c"/>
    </defs>
    <g clip-path="url(#pdfda808fb6)">
     <use xlink:href="#me60c24d692" x="95.109943" y="369.658125" style="fill: #2ca02c; stroke: #2ca02c"/>
     <use xlink:href="#me60c24d692" x="115.149128" y="368.158156" style="fill: #2ca02c; stroke: #2ca02c"/>
     <use xlink:href="#me60c24d692" x="135.188313" y="366.678877" style="fill: #2ca02c; stroke: #2ca02c"/>
     <use xlink:href="#me60c24d692" x="155.227498" y="365.196149" style="fill: #2ca02c; stroke: #2ca02c"/>
     <use xlink:href="#me60c24d692" x="175.266683" y="363.678939" style="fill: #2ca02c; stroke: #2ca02c"/>
     <use xlink:href="#me60c24d692" x="195.305868" y="362.147937" style="fill: #2ca02c; stroke: #2ca02c"/>
     <use xlink:href="#me60c24d692" x="215.345053" y="360.634175" style="fill: #2ca02c; stroke: #2ca02c"/>
     <use xlink:href="#me60c24d692" x="235.384238" y="359.034209" style="fill: #2ca02c; stroke: #2ca02c"/>
     <use xlink:href="#me60c24d692" x="255.423423" y="357.499758" style="fill: #2ca02c; stroke: #2ca02c"/>
     <use xlink:href="#me60c24d692" x="275.462608" y="355.92048" style="fill: #2ca02c; stroke: #2ca02c"/>
     <use xlink:href="#me60c24d692" x="295.501793" y="354.334307" style="fill: #2ca02c; stroke: #2ca02c"/>
     <use xlink:href="#me60c24d692" x="315.540978" y="352.655031" style="fill: #2ca02c; stroke: #2ca02c"/>
     <use xlink:href="#me60c24d692" x="335.580163" y="350.999893" style="fill: #2ca02c; stroke: #2ca02c"/>
     <use xlink:href="#me60c24d692" x="355.619348" y="349.479235" style="fill: #2ca02c; stroke: #2ca02c"/>
     <use xlink:href="#me60c24d692" x="375.658533" y="347.668928" style="fill: #2ca02c; stroke: #2ca02c"/>
     <use xlink:href="#me60c24d692" x="395.697717" y="346.162063" style="fill: #2ca02c; stroke: #2ca02c"/>
     <use xlink:href="#me60c24d692" x="415.736902" y="344.21038" style="fill: #2ca02c; stroke: #2ca02c"/>
     <use xlink:href="#me60c24d692" x="435.776087" y="342.493174" style="fill: #2ca02c; stroke: #2ca02c"/>
     <use xlink:href="#me60c24d692" x="455.815272" y="340.879415" style="fill: #2ca02c; stroke: #2ca02c"/>
     <use xlink:href="#me60c24d692" x="475.854457" y="339.113934" style="fill: #2ca02c; stroke: #2ca02c"/>
     <use xlink:href="#me60c24d692" x="495.893642" y="337.441555" style="fill: #2ca02c; stroke: #2ca02c"/>
     <use xlink:href="#me60c24d692" x="515.932827" y="335.458838" style="fill: #2ca02c; stroke: #2ca02c"/>
     <use xlink:href="#me60c24d692" x="535.972012" y="333.693358" style="fill: #2ca02c; stroke: #2ca02c"/>
     <use xlink:href="#me60c24d692" x="556.011197" y="331.914084" style="fill: #2ca02c; stroke: #2ca02c"/>
     <use xlink:href="#me60c24d692" x="576.050382" y="329.914126" style="fill: #2ca02c; stroke: #2ca02c"/>
     <use xlink:href="#me60c24d692" x="596.089567" y="328.321056" style="fill: #2ca02c; stroke: #2ca02c"/>
     <use xlink:href="#me60c24d692" x="616.128752" y="326.355579" style="fill: #2ca02c; stroke: #2ca02c"/>
     <use xlink:href="#me60c24d692" x="636.167937" y="324.60734" style="fill: #2ca02c; stroke: #2ca02c"/>
     <use xlink:href="#me60c24d692" x="656.207122" y="322.776344" style="fill: #2ca02c; stroke: #2ca02c"/>
     <use xlink:href="#me60c24d692" x="676.246307" y="320.7488" style="fill: #2ca02c; stroke: #2ca02c"/>
    </g>
   </g>
   <g id="line2d_30">
    <path d="M 95.109943 366.213369 
L 115.149128 359.913501 
L 135.188313 364.361684 
L 155.227498 360.927273 
L 175.266683 357.123904 
L 195.305868 352.865372 
L 215.345053 348.141332 
L 235.384238 343.110403 
L 255.423423 338.582911 
L 275.462608 333.331296 
L 295.501793 327.938305 
L 315.540978 322.555659 
L 335.580163 316.262686 
L 355.619348 310.490393 
L 375.658533 303.249165 
L 395.697717 297.876863 
L 415.736902 290.577015 
L 435.776087 285.001269 
L 455.815272 278.494508 
L 475.854457 271.970506 
L 495.893642 264.408595 
L 515.932827 258.512166 
L 535.972012 250.174409 
L 556.011197 244.026261 
L 576.050382 236.047117 
L 596.089567 228.933473 
L 616.128752 221.0095 
L 636.167937 212.920013 
L 656.207122 205.53396 
L 676.246307 198.151356 
" clip-path="url(#pdfda808fb6)" style="fill: none; stroke: #d62728; stroke-width: 1.5; stroke-linecap: square"/>
    <defs>
     <path id="me44e80efac" d="M 0 3 
C 0.795609 3 1.55874 2.683901 2.12132 2.12132 
C 2.683901 1.55874 3 0.795609 3 0 
C 3 -0.795609 2.683901 -1.55874 2.12132 -2.12132 
C 1.55874 -2.683901 0.795609 -3 0 -3 
C -0.795609 -3 -1.55874 -2.683901 -2.12132 -2.12132 
C -2.683901 -1.55874 -3 -0.795609 -3 0 
C -3 0.795609 -2.683901 1.55874 -2.12132 2.12132 
C -1.55874 2.683901 -0.795609 3 0 3 
z
" style="stroke: #d62728"/>
    </defs>
    <g clip-path="url(#pdfda808fb6)">
     <use xlink:href="#me44e80efac" x="95.109943" y="366.213369" style="fill: #d62728; stroke: #d62728"/>
     <use xlink:href="#me44e80efac" x="115.149128" y="359.913501" style="fill: #d62728; stroke: #d62728"/>
     <use xlink:href="#me44e80efac" x="135.188313" y="364.361684" style="fill: #d62728; stroke: #d62728"/>
     <use xlink:href="#me44e80efac" x="155.227498" y="360.927273" style="fill: #d62728; stroke: #d62728"/>
     <use xlink:href="#me44e80efac" x="175.266683" y="357.123904" style="fill: #d62728; stroke: #d62728"/>
     <use xlink:href="#me44e80efac" x="195.305868" y="352.865372" style="fill: #d62728; stroke: #d62728"/>
     <use xlink:href="#me44e80efac" x="215.345053" y="348.141332" style="fill: #d62728; stroke: #d62728"/>
     <use xlink:href="#me44e80efac" x="235.384238" y="343.110403" style="fill: #d62728; stroke: #d62728"/>
     <use xlink:href="#me44e80efac" x="255.423423" y="338.582911" style="fill: #d62728; stroke: #d62728"/>
     <use xlink:href="#me44e80efac" x="275.462608" y="333.331296" style="fill: #d62728; stroke: #d62728"/>
     <use xlink:href="#me44e80efac" x="295.501793" y="327.938305" style="fill: #d62728; stroke: #d62728"/>
     <use xlink:href="#me44e80efac" x="315.540978" y="322.555659" style="fill: #d62728; stroke: #d62728"/>
     <use xlink:href="#me44e80efac" x="335.580163" y="316.262686" style="fill: #d62728; stroke: #d62728"/>
     <use xlink:href="#me44e80efac" x="355.619348" y="310.490393" style="fill: #d62728; stroke: #d62728"/>
     <use xlink:href="#me44e80efac" x="375.658533" y="303.249165" style="fill: #d62728; stroke: #d62728"/>
     <use xlink:href="#me44e80efac" x="395.697717" y="297.876863" style="fill: #d62728; stroke: #d62728"/>
     <use xlink:href="#me44e80efac" x="415.736902" y="290.577015" style="fill: #d62728; stroke: #d62728"/>
     <use xlink:href="#me44e80efac" x="435.776087" y="285.001269" style="fill: #d62728; stroke: #d62728"/>
     <use xlink:href="#me44e80efac" x="455.815272" y="278.494508" style="fill: #d62728; stroke: #d62728"/>
     <use xlink:href="#me44e80efac" x="475.854457" y="271.970506" style="fill: #d62728; stroke: #d62728"/>
     <use xlink:href="#me44e80efac" x="495.893642" y="264.408595" style="fill: #d62728; stroke: #d62728"/>
     <use xlink:href="#me44e80efac" x="515.932827" y="258.512166" style="fill: #d62728; stroke: #d62728"/>
     <use xlink:href="#me44e80efac" x="535.972012" y="250.174409" style="fill: #d62728; stroke: #d62728"/>
     <use xlink:href="#me44e80efac" x="556.011197" y="244.026261" style="fill: #d62728; stroke: #d62728"/>
     <use xlink:href="#me44e80efac" x="576.050382" y="236.047117" style="fill: #d62728; stroke: #d62728"/>
     <use xlink:href="#me44e80efac" x="596.089567" y="228.933473" style="fill: #d62728; stroke: #d62728"/>
     <use xlink:href="#me44e80efac" x="616.128752" y="221.0095" style="fill: #d62728; stroke: #d62728"/>
     <use xlink:href="#me44e80efac" x="636.167937" y="212.920013" style="fill: #d62728; stroke: #d62728"/>
     <use xlink:href="#me44e80efac" x="656.207122" y="205.53396" style="fill: #d62728; stroke: #d62728"/>
     <use xlink:href="#me44e80efac" x="676.246307" y="198.151356" style="fill: #d62728; stroke: #d62728"/>
    </g>
   </g>
   <g id="patch_3">
    <path d="M 66.053125 386.198125 
L 66.053125 22.318125 
" style="fill: none; stroke: #000000; stroke-width: 0.8; stroke-linejoin: miter; stroke-linecap: square"/>
   </g>
   <g id="patch_4">
    <path d="M 705.303125 386.198125 
L 705.303125 22.318125 
" style="fill: none; stroke: #000000; stroke-width: 0.8; stroke-linejoin: miter; stroke-linecap: square"/>
   </g>
   <g id="patch_5">
    <path d="M 66.053125 386.198125 
L 705.303125 386.198125 
" style="fill: none; stroke: #000000; stroke-width: 0.8; stroke-linejoin: miter; stroke-linecap: square"/>
   </g>
   <g id="patch_6">
    <path d="M 66.053125 22.318125 
L 705.303125 22.318125 
" style="fill: none; stroke: #000000; stroke-width: 0.8; stroke-linejoin: miter; stroke-linecap: square"/>
   </g>
   <g id="text_16">
    <!-- Количество сравнений для Sorted -->
    <g transform="translate(278.004375 16.318125) scale(0.12 -0.12)">
     <defs>
      <path id="DejaVuSans-44f" d="M 1181 2491 
Q 1181 2231 1381 2084 
Q 1581 1938 1953 1938 
L 2728 1938 
L 2728 3041 
L 1953 3041 
Q 1581 3041 1381 2897 
Q 1181 2753 1181 2491 
z
M 363 0 
L 1431 1534 
Q 1069 1616 828 1830 
Q 588 2044 588 2491 
Q 588 2997 923 3248 
Q 1259 3500 1938 3500 
L 3306 3500 
L 3306 0 
L 2728 0 
L 2728 1478 
L 2013 1478 
L 981 0 
L 363 0 
z
" transform="scale(0.015625)"/>
      <path id="DejaVuSans-53" d="M 3425 4513 
L 3425 3897 
Q 3066 4069 2747 4153 
Q 2428 4238 2131 4238 
Q 1616 4238 1336 4038 
Q 1056 3838 1056 3469 
Q 1056 3159 1242 3001 
Q 1428 2844 1947 2747 
L 2328 2669 
Q 3034 2534 3370 2195 
Q 3706 1856 3706 1288 
Q 3706 609 3251 259 
Q 2797 -91 1919 -91 
Q 1588 -91 1214 -16 
Q 841 59 441 206 
L 441 856 
Q 825 641 1194 531 
Q 1563 422 1919 422 
Q 2459 422 2753 634 
Q 3047 847 3047 1241 
Q 3047 1584 2836 1778 
Q 2625 1972 2144 2069 
L 1759 2144 
Q 1053 2284 737 2584 
Q 422 2884 422 3419 
Q 422 4038 858 4394 
Q 1294 4750 2059 4750 
Q 2388 4750 2728 4690 
Q 3069 4631 3425 4513 
z
" transform="scale(0.015625)"/>
      <path id="DejaVuSans-6f" d="M 1959 3097 
Q 1497 3097 1228 2736 
Q 959 2375 959 1747 
Q 959 1119 1226 758 
Q 1494 397 1959 397 
Q 2419 397 2687 759 
Q 2956 1122 2956 1747 
Q 2956 2369 2687 2733 
Q 2419 3097 1959 3097 
z
M 1959 3584 
Q 2709 3584 3137 3096 
Q 3566 2609 3566 1747 
Q 3566 888 3137 398 
Q 2709 -91 1959 -91 
Q 1206 -91 779 398 
Q 353 888 353 1747 
Q 353 2609 779 3096 
Q 1206 3584 1959 3584 
z
" transform="scale(0.015625)"/>
      <path id="DejaVuSans-72" d="M 2631 2963 
Q 2534 3019 2420 3045 
Q 2306 3072 2169 3072 
Q 1681 3072 1420 2755 
Q 1159 2438 1159 1844 
L 1159 0 
L 581 0 
L 581 3500 
L 1159 3500 
L 1159 2956 
Q 1341 3275 1631 3429 
Q 1922 3584 2338 3584 
Q 2397 3584 2469 3576 
Q 2541 3569 2628 3553 
L 2631 2963 
z
" transform="scale(0.015625)"/>
      <path id="DejaVuSans-74" d="M 1172 4494 
L 1172 3500 
L 2356 3500 
L 2356 3053 
L 1172 3053 
L 1172 1153 
Q 1172 725 1289 603 
Q 1406 481 1766 481 
L 2356 481 
L 2356 0 
L 1766 0 
Q 1100 0 847 248 
Q 594 497 594 1153 
L 594 3053 
L 172 3053 
L 172 3500 
L 594 3500 
L 594 4494 
L 1172 4494 
z
" transform="scale(0.015625)"/>
      <path id="DejaVuSans-65" d="M 3597 1894 
L 3597 1613 
L 953 1613 
Q 991 1019 1311 708 
Q 1631 397 2203 397 
Q 2534 397 2845 478 
Q 3156 559 3463 722 
L 3463 178 
Q 3153 47 2828 -22 
Q 2503 -91 2169 -91 
Q 1331 -91 842 396 
Q 353 884 353 1716 
Q 353 2575 817 3079 
Q 1281 3584 2069 3584 
Q 2775 3584 3186 3129 
Q 3597 2675 3597 1894 
z
M 3022 2063 
Q 3016 2534 2758 2815 
Q 2500 3097 2075 3097 
Q 1594 3097 1305 2825 
Q 1016 2553 972 2059 
L 3022 2063 
z
" transform="scale(0.015625)"/>
      <path id="DejaVuSans-64" d="M 2906 2969 
L 2906 4863 
L 3481 4863 
L 3481 0 
L 2906 0 
L 2906 525 
Q 2725 213 2448 61 
Q 2172 -91 1784 -91 
Q 1150 -91 751 415 
Q 353 922 353 1747 
Q 353 2572 751 3078 
Q 1150 3584 1784 3584 
Q 2172 3584 2448 3432 
Q 2725 3281 2906 2969 
z
M 947 1747 
Q 947 1113 1208 752 
Q 1469 391 1925 391 
Q 2381 391 2643 752 
Q 2906 1113 2906 1747 
Q 2906 2381 2643 2742 
Q 2381 3103 1925 3103 
Q 1469 3103 1208 2742 
Q 947 2381 947 1747 
z
" transform="scale(0.015625)"/>
     </defs>
     <use xlink:href="#DejaVuSans-41a"/>
     <use xlink:href="#DejaVuSans-43e" x="70.996094"/>
     <use xlink:href="#DejaVuSans-43b" x="132.177734"/>
     <use xlink:href="#DejaVuSans-438" x="196.09375"/>
     <use xlink:href="#DejaVuSans-447" x="261.083984"/>
     <use xlink:href="#DejaVuSans-435" x="320.166016"/>
     <use xlink:href="#DejaVuSans-441" x="381.689453"/>
     <use xlink:href="#DejaVuSans-442" x="436.669922"/>
     <use xlink:href="#DejaVuSans-432" x="494.921875"/>
     <use xlink:href="#DejaVuSans-43e" x="553.857422"/>
     <use xlink:href="#DejaVuSans-20" x="615.039062"/>
     <use xlink:href="#DejaVuSans-441" x="646.826172"/>
     <use xlink:href="#DejaVuSans-440" x="701.806641"/>
     <use xlink:href="#DejaVuSans-430" x="765.283203"/>
     <use xlink:href="#DejaVuSans-432" x="826.5625"/>
     <use xlink:href="#DejaVuSans-43d" x="885.498047"/>
     <use xlink:href="#DejaVuSans-435" x="950.878906"/>
     <use xlink:href="#DejaVuSans-43d" x="1012.402344"/>
     <use xlink:href="#DejaVuSans-438" x="1077.783203"/>
     <use xlink:href="#DejaVuSans-439" x="1142.773438"/>
     <use xlink:href="#DejaVuSans-20" x="1207.763672"/>
     <use xlink:href="#DejaVuSans-434" x="1239.550781"/>
     <use xlink:href="#DejaVuSans-43b" x="1308.691406"/>
     <use xlink:href="#DejaVuSans-44f" x="1372.607422"/>
     <use xlink:href="#DejaVuSans-20" x="1432.763672"/>
     <use xlink:href="#DejaVuSans-53" x="1464.550781"/>
     <use xlink:href="#DejaVuSans-6f" x="1528.027344"/>
     <use xlink:href="#DejaVuSans-72" x="1589.208984"/>
     <use xlink:href="#DejaVuSans-74" x="1630.322266"/>
     <use xlink:href="#DejaVuSans-65" x="1669.53125"/>
     <use xlink:href="#DejaVuSans-64" x="1731.054688"/>
    </g>
   </g>
   <g id="legend_1">
    <g id="patch_7">
     <path d="M 73.053125 89.030625 
L 193.282813 89.030625 
Q 195.282813 89.030625 195.282813 87.030625 
L 195.282813 29.318125 
Q 195.282813 27.318125 193.282813 27.318125 
L 73.053125 27.318125 
Q 71.053125 27.318125 71.053125 29.318125 
L 71.053125 87.030625 
Q 71.053125 89.030625 73.053125 89.030625 
z
" style="fill: #ffffff; opacity: 0.8; stroke: #cccccc; stroke-linejoin: miter"/>
    </g>
    <g id="line2d_31">
     <path d="M 75.053125 35.416562 
L 85.053125 35.416562 
L 95.053125 35.416562 
" style="fill: none; stroke: #1f77b4; stroke-width: 1.5; stroke-linecap: square"/>
     <g>
      <use xlink:href="#m4d45befcea" x="85.053125" y="35.416562" style="fill: #1f77b4; stroke: #1f77b4"/>
     </g>
    </g>
    <g id="text_17">
     <!-- Merge Sort -->
     <g transform="translate(103.053125 38.916562) scale(0.1 -0.1)">
      <defs>
       <path id="DejaVuSans-4d" d="M 628 4666 
L 1569 4666 
L 2759 1491 
L 3956 4666 
L 4897 4666 
L 4897 0 
L 4281 0 
L 4281 4097 
L 3078 897 
L 2444 897 
L 1241 4097 
L 1241 0 
L 628 0 
L 628 4666 
z
" transform="scale(0.015625)"/>
       <path id="DejaVuSans-67" d="M 2906 1791 
Q 2906 2416 2648 2759 
Q 2391 3103 1925 3103 
Q 1463 3103 1205 2759 
Q 947 2416 947 1791 
Q 947 1169 1205 825 
Q 1463 481 1925 481 
Q 2391 481 2648 825 
Q 2906 1169 2906 1791 
z
M 3481 434 
Q 3481 -459 3084 -895 
Q 2688 -1331 1869 -1331 
Q 1566 -1331 1297 -1286 
Q 1028 -1241 775 -1147 
L 775 -588 
Q 1028 -725 1275 -790 
Q 1522 -856 1778 -856 
Q 2344 -856 2625 -561 
Q 2906 -266 2906 331 
L 2906 616 
Q 2728 306 2450 153 
Q 2172 0 1784 0 
Q 1141 0 747 490 
Q 353 981 353 1791 
Q 353 2603 747 3093 
Q 1141 3584 1784 3584 
Q 2172 3584 2450 3431 
Q 2728 3278 2906 2969 
L 2906 3500 
L 3481 3500 
L 3481 434 
z
" transform="scale(0.015625)"/>
      </defs>
      <use xlink:href="#DejaVuSans-4d"/>
      <use xlink:href="#DejaVuSans-65" x="86.279297"/>
      <use xlink:href="#DejaVuSans-72" x="147.802734"/>
      <use xlink:href="#DejaVuSans-67" x="187.166016"/>
      <use xlink:href="#DejaVuSans-65" x="250.642578"/>
      <use xlink:href="#DejaVuSans-20" x="312.166016"/>
      <use xlink:href="#DejaVuSans-53" x="343.953125"/>
      <use xlink:href="#DejaVuSans-6f" x="407.429688"/>
      <use xlink:href="#DejaVuSans-72" x="468.611328"/>
      <use xlink:href="#DejaVuSans-74" x="509.724609"/>
     </g>
    </g>
    <g id="line2d_32">
     <path d="M 75.053125 50.094687 
L 85.053125 50.094687 
L 95.053125 50.094687 
" style="fill: none; stroke: #ff7f0e; stroke-width: 1.5; stroke-linecap: square"/>
     <g>
      <use xlink:href="#m96a9b7c9d7" x="85.053125" y="50.094687" style="fill: #ff7f0e; stroke: #ff7f0e"/>
     </g>
    </g>
    <g id="text_18">
     <!-- Quick Sort -->
     <g transform="translate(103.053125 53.594687) scale(0.1 -0.1)">
      <defs>
       <path id="DejaVuSans-51" d="M 2522 4238 
Q 1834 4238 1429 3725 
Q 1025 3213 1025 2328 
Q 1025 1447 1429 934 
Q 1834 422 2522 422 
Q 3209 422 3611 934 
Q 4013 1447 4013 2328 
Q 4013 3213 3611 3725 
Q 3209 4238 2522 4238 
z
M 3406 84 
L 4238 -825 
L 3475 -825 
L 2784 -78 
Q 2681 -84 2626 -87 
Q 2572 -91 2522 -91 
Q 1538 -91 948 567 
Q 359 1225 359 2328 
Q 359 3434 948 4092 
Q 1538 4750 2522 4750 
Q 3503 4750 4090 4092 
Q 4678 3434 4678 2328 
Q 4678 1516 4351 937 
Q 4025 359 3406 84 
z
" transform="scale(0.015625)"/>
       <path id="DejaVuSans-75" d="M 544 1381 
L 544 3500 
L 1119 3500 
L 1119 1403 
Q 1119 906 1312 657 
Q 1506 409 1894 409 
Q 2359 409 2629 706 
Q 2900 1003 2900 1516 
L 2900 3500 
L 3475 3500 
L 3475 0 
L 2900 0 
L 2900 538 
Q 2691 219 2414 64 
Q 2138 -91 1772 -91 
Q 1169 -91 856 284 
Q 544 659 544 1381 
z
M 1991 3584 
L 1991 3584 
z
" transform="scale(0.015625)"/>
       <path id="DejaVuSans-69" d="M 603 3500 
L 1178 3500 
L 1178 0 
L 603 0 
L 603 3500 
z
M 603 4863 
L 1178 4863 
L 1178 4134 
L 603 4134 
L 603 4863 
z
" transform="scale(0.015625)"/>
       <path id="DejaVuSans-63" d="M 3122 3366 
L 3122 2828 
Q 2878 2963 2633 3030 
Q 2388 3097 2138 3097 
Q 1578 3097 1268 2742 
Q 959 2388 959 1747 
Q 959 1106 1268 751 
Q 1578 397 2138 397 
Q 2388 397 2633 464 
Q 2878 531 3122 666 
L 3122 134 
Q 2881 22 2623 -34 
Q 2366 -91 2075 -91 
Q 1284 -91 818 406 
Q 353 903 353 1747 
Q 353 2603 823 3093 
Q 1294 3584 2113 3584 
Q 2378 3584 2631 3529 
Q 2884 3475 3122 3366 
z
" transform="scale(0.015625)"/>
       <path id="DejaVuSans-6b" d="M 581 4863 
L 1159 4863 
L 1159 1991 
L 2875 3500 
L 3609 3500 
L 1753 1863 
L 3688 0 
L 2938 0 
L 1159 1709 
L 1159 0 
L 581 0 
L 581 4863 
z
" transform="scale(0.015625)"/>
      </defs>
      <use xlink:href="#DejaVuSans-51"/>
      <use xlink:href="#DejaVuSans-75" x="78.710938"/>
      <use xlink:href="#DejaVuSans-69" x="142.089844"/>
      <use xlink:href="#DejaVuSans-63" x="169.873047"/>
      <use xlink:href="#DejaVuSans-6b" x="224.853516"/>
      <use xlink:href="#DejaVuSans-20" x="282.763672"/>
      <use xlink:href="#DejaVuSans-53" x="314.550781"/>
      <use xlink:href="#DejaVuSans-6f" x="378.027344"/>
      <use xlink:href="#DejaVuSans-72" x="439.208984"/>
      <use xlink:href="#DejaVuSans-74" x="480.322266"/>
     </g>
    </g>
    <g id="line2d_33">
     <path d="M 75.053125 64.772812 
L 85.053125 64.772812 
L 95.053125 64.772812 
" style="fill: none; stroke: #2ca02c; stroke-width: 1.5; stroke-linecap: square"/>
     <g>
      <use xlink:href="#me60c24d692" x="85.053125" y="64.772812" style="fill: #2ca02c; stroke: #2ca02c"/>
     </g>
    </g>
    <g id="text_19">
     <!-- Radix Sort -->
     <g transform="translate(103.053125 68.272812) scale(0.1 -0.1)">
      <defs>
       <path id="DejaVuSans-52" d="M 2841 2188 
Q 3044 2119 3236 1894 
Q 3428 1669 3622 1275 
L 4263 0 
L 3584 0 
L 2988 1197 
Q 2756 1666 2539 1819 
Q 2322 1972 1947 1972 
L 1259 1972 
L 1259 0 
L 628 0 
L 628 4666 
L 2053 4666 
Q 2853 4666 3247 4331 
Q 3641 3997 3641 3322 
Q 3641 2881 3436 2590 
Q 3231 2300 2841 2188 
z
M 1259 4147 
L 1259 2491 
L 2053 2491 
Q 2509 2491 2742 2702 
Q 2975 2913 2975 3322 
Q 2975 3731 2742 3939 
Q 2509 4147 2053 4147 
L 1259 4147 
z
" transform="scale(0.015625)"/>
       <path id="DejaVuSans-61" d="M 2194 1759 
Q 1497 1759 1228 1600 
Q 959 1441 959 1056 
Q 959 750 1161 570 
Q 1363 391 1709 391 
Q 2188 391 2477 730 
Q 2766 1069 2766 1631 
L 2766 1759 
L 2194 1759 
z
M 3341 1997 
L 3341 0 
L 2766 0 
L 2766 531 
Q 2569 213 2275 61 
Q 1981 -91 1556 -91 
Q 1019 -91 701 211 
Q 384 513 384 1019 
Q 384 1609 779 1909 
Q 1175 2209 1959 2209 
L 2766 2209 
L 2766 2266 
Q 2766 2663 2505 2880 
Q 2244 3097 1772 3097 
Q 1472 3097 1187 3025 
Q 903 2953 641 2809 
L 641 3341 
Q 956 3463 1253 3523 
Q 1550 3584 1831 3584 
Q 2591 3584 2966 3190 
Q 3341 2797 3341 1997 
z
" transform="scale(0.015625)"/>
       <path id="DejaVuSans-78" d="M 3513 3500 
L 2247 1797 
L 3578 0 
L 2900 0 
L 1881 1375 
L 863 0 
L 184 0 
L 1544 1831 
L 300 3500 
L 978 3500 
L 1906 2253 
L 2834 3500 
L 3513 3500 
z
" transform="scale(0.015625)"/>
      </defs>
      <use xlink:href="#DejaVuSans-52"/>
      <use xlink:href="#DejaVuSans-61" x="67.232422"/>
      <use xlink:href="#DejaVuSans-64" x="128.511719"/>
      <use xlink:href="#DejaVuSans-69" x="191.988281"/>
      <use xlink:href="#DejaVuSans-78" x="219.771484"/>
      <use xlink:href="#DejaVuSans-20" x="278.951172"/>
      <use xlink:href="#DejaVuSans-53" x="310.738281"/>
      <use xlink:href="#DejaVuSans-6f" x="374.214844"/>
      <use xlink:href="#DejaVuSans-72" x="435.396484"/>
      <use xlink:href="#DejaVuSans-74" x="476.509766"/>
     </g>
    </g>
    <g id="line2d_34">
     <path d="M 75.053125 79.450937 
L 85.053125 79.450937 
L 95.053125 79.450937 
" style="fill: none; stroke: #d62728; stroke-width: 1.5; stroke-linecap: square"/>
     <g>
      <use xlink:href="#me44e80efac" x="85.053125" y="79.450937" style="fill: #d62728; stroke: #d62728"/>
     </g>
    </g>
    <g id="text_20">
     <!-- Radix+Quick Sort -->
     <g transform="translate(103.053125 82.950937) scale(0.1 -0.1)">
      <defs>
       <path id="DejaVuSans-2b" d="M 2944 4013 
L 2944 2272 
L 4684 2272 
L 4684 1741 
L 2944 1741 
L 2944 0 
L 2419 0 
L 2419 1741 
L 678 1741 
L 678 2272 
L 2419 2272 
L 2419 4013 
L 2944 4013 
z
" transform="scale(0.015625)"/>
      </defs>
      <use xlink:href="#DejaVuSans-52"/>
      <use xlink:href="#DejaVuSans-61" x="67.232422"/>
      <use xlink:href="#DejaVuSans-64" x="128.511719"/>
      <use xlink:href="#DejaVuSans-69" x="191.988281"/>
      <use xlink:href="#DejaVuSans-78" x="219.771484"/>
      <use xlink:href="#DejaVuSans-2b" x="278.951172"/>
      <use xlink:href="#DejaVuSans-51" x="362.740234"/>
      <use xlink:href="#DejaVuSans-75" x="441.451172"/>
      <use xlink:href="#DejaVuSans-69" x="504.830078"/>
      <use xlink:href="#DejaVuSans-63" x="532.613281"/>
      <use xlink:href="#DejaVuSans-6b" x="587.59375"/>
      <use xlink:href="#DejaVuSans-20" x="645.503906"/>
      <use xlink:href="#DejaVuSans-53" x="677.291016"/>
      <use xlink:href="#DejaVuSans-6f" x="740.767578"/>
      <use xlink:href="#DejaVuSans-72" x="801.949219"/>
      <use xlink:href="#DejaVuSans-74" x="843.0625"/>
     </g>
    </g>
   </g>
  </g>
 </g>
 <defs>
  <clipPath id="pdfda808fb6">
   <rect x="66.053125" y="22.318125" width="639.25" height="363.88"/>
  </clipPath>
 </defs>
</svg>
