<?xml version="1.0" encoding="utf-8" standalone="no"?>
<!DOCTYPE svg PUBLIC "-//W3C//DTD SVG 1.1//EN"
  "http://www.w3.org/Graphics/SVG/1.1/DTD/svg11.dtd">
<svg xmlns:xlink="http://www.w3.org/1999/xlink" width="712.433125pt" height="423.754375pt" viewBox="0 0 712.433125 423.754375" xmlns="http://www.w3.org/2000/svg" version="1.1">
 <metadata>
  <rdf:RDF xmlns:dc="http://purl.org/dc/elements/1.1/" xmlns:cc="http://creativecommons.org/ns#" xmlns:rdf="http://www.w3.org/1999/02/22-rdf-syntax-ns#">
   <cc:Work>
    <dc:type rdf:resource="http://purl.org/dc/dcmitype/StillImage"/>
    <dc:date>2025-05-26T04:52:16.858142</dc:date>
    <dc:format>image/svg+xml</dc:format>
    <dc:creator>
     <cc:Agent>
      <dc:title>Matplotlib v3.9.2, https://matplotlib.org/</dc:title>
     </cc:Agent>
    </dc:creator>
   </cc:Work>
  </rdf:RDF>
 </metadata>
 <defs>
  <style type="text/css">*{stroke-linejoin: round; stroke-linecap: butt}</style>
 </defs>
 <g id="figure_1">
  <g id="patch_1">
   <path d="M 0 423.754375 
L 712.433125 423.754375 
L 712.433125 0 
L 0 0 
z
" style="fill: #ffffff"/>
  </g>
  <g id="axes_1">
   <g id="patch_2">
    <path d="M 40.603125 386.198125 
L 705.233125 386.198125 
L 705.233125 22.318125 
L 40.603125 22.318125 
z
" style="fill: #ffffff"/>
   </g>
   <g id="matplotlib.axis_1">
    <g id="xtick_1">
     <g id="line2d_1">
      <path d="M 49.978783 386.198125 
L 49.978783 22.318125 
" clip-path="url(#pc68394b3c6)" style="fill: none; stroke: #b0b0b0; stroke-width: 0.8; stroke-linecap: square"/>
     </g>
     <g id="line2d_2">
      <defs>
       <path id="m69d6d3f050" d="M 0 0 
L 0 3.5 
" style="stroke: #000000; stroke-width: 0.8"/>
      </defs>
      <g>
       <use xlink:href="#m69d6d3f050" x="49.978783" y="386.198125" style="stroke: #000000; stroke-width: 0.8"/>
      </g>
     </g>
     <g id="text_1">
      <!-- 0 -->
      <g transform="translate(46.797533 400.796562) scale(0.1 -0.1)">
       <defs>
        <path id="DejaVuSans-30" d="M 2034 4250 
Q 1547 4250 1301 3770 
Q 1056 3291 1056 2328 
Q 1056 1369 1301 889 
Q 1547 409 2034 409 
Q 2525 409 2770 889 
Q 3016 1369 3016 2328 
Q 3016 3291 2770 3770 
Q 2525 4250 2034 4250 
z
M 2034 4750 
Q 2819 4750 3233 4129 
Q 3647 3509 3647 2328 
Q 3647 1150 3233 529 
Q 2819 -91 2034 -91 
Q 1250 -91 836 529 
Q 422 1150 422 2328 
Q 422 3509 836 4129 
Q 1250 4750 2034 4750 
z
" transform="scale(0.015625)"/>
       </defs>
       <use xlink:href="#DejaVuSans-30"/>
      </g>
     </g>
    </g>
    <g id="xtick_2">
     <g id="line2d_3">
      <path d="M 154.152764 386.198125 
L 154.152764 22.318125 
" clip-path="url(#pc68394b3c6)" style="fill: none; stroke: #b0b0b0; stroke-width: 0.8; stroke-linecap: square"/>
     </g>
     <g id="line2d_4">
      <g>
       <use xlink:href="#m69d6d3f050" x="154.152764" y="386.198125" style="stroke: #000000; stroke-width: 0.8"/>
      </g>
     </g>
     <g id="text_2">
      <!-- 500 -->
      <g transform="translate(144.609014 400.796562) scale(0.1 -0.1)">
       <defs>
        <path id="DejaVuSans-35" d="M 691 4666 
L 3169 4666 
L 3169 4134 
L 1269 4134 
L 1269 2991 
Q 1406 3038 1543 3061 
Q 1681 3084 1819 3084 
Q 2600 3084 3056 2656 
Q 3513 2228 3513 1497 
Q 3513 744 3044 326 
Q 2575 -91 1722 -91 
Q 1428 -91 1123 -41 
Q 819 9 494 109 
L 494 744 
Q 775 591 1075 516 
Q 1375 441 1709 441 
Q 2250 441 2565 725 
Q 2881 1009 2881 1497 
Q 2881 1984 2565 2268 
Q 2250 2553 1709 2553 
Q 1456 2553 1204 2497 
Q 953 2441 691 2322 
L 691 4666 
z
" transform="scale(0.015625)"/>
       </defs>
       <use xlink:href="#DejaVuSans-35"/>
       <use xlink:href="#DejaVuSans-30" x="63.623047"/>
       <use xlink:href="#DejaVuSans-30" x="127.246094"/>
      </g>
     </g>
    </g>
    <g id="xtick_3">
     <g id="line2d_5">
      <path d="M 258.326746 386.198125 
L 258.326746 22.318125 
" clip-path="url(#pc68394b3c6)" style="fill: none; stroke: #b0b0b0; stroke-width: 0.8; stroke-linecap: square"/>
     </g>
     <g id="line2d_6">
      <g>
       <use xlink:href="#m69d6d3f050" x="258.326746" y="386.198125" style="stroke: #000000; stroke-width: 0.8"/>
      </g>
     </g>
     <g id="text_3">
      <!-- 1000 -->
      <g transform="translate(245.601746 400.796562) scale(0.1 -0.1)">
       <defs>
        <path id="DejaVuSans-31" d="M 794 531 
L 1825 531 
L 1825 4091 
L 703 3866 
L 703 4441 
L 1819 4666 
L 2450 4666 
L 2450 531 
L 3481 531 
L 3481 0 
L 794 0 
L 794 531 
z
" transform="scale(0.015625)"/>
       </defs>
       <use xlink:href="#DejaVuSans-31"/>
       <use xlink:href="#DejaVuSans-30" x="63.623047"/>
       <use xlink:href="#DejaVuSans-30" x="127.246094"/>
       <use xlink:href="#DejaVuSans-30" x="190.869141"/>
      </g>
     </g>
    </g>
    <g id="xtick_4">
     <g id="line2d_7">
      <path d="M 362.500727 386.198125 
L 362.500727 22.318125 
" clip-path="url(#pc68394b3c6)" style="fill: none; stroke: #b0b0b0; stroke-width: 0.8; stroke-linecap: square"/>
     </g>
     <g id="line2d_8">
      <g>
       <use xlink:href="#m69d6d3f050" x="362.500727" y="386.198125" style="stroke: #000000; stroke-width: 0.8"/>
      </g>
     </g>
     <g id="text_4">
      <!-- 1500 -->
      <g transform="translate(349.775727 400.796562) scale(0.1 -0.1)">
       <use xlink:href="#DejaVuSans-31"/>
       <use xlink:href="#DejaVuSans-35" x="63.623047"/>
       <use xlink:href="#DejaVuSans-30" x="127.246094"/>
       <use xlink:href="#DejaVuSans-30" x="190.869141"/>
      </g>
     </g>
    </g>
    <g id="xtick_5">
     <g id="line2d_9">
      <path d="M 466.674708 386.198125 
L 466.674708 22.318125 
" clip-path="url(#pc68394b3c6)" style="fill: none; stroke: #b0b0b0; stroke-width: 0.8; stroke-linecap: square"/>
     </g>
     <g id="line2d_10">
      <g>
       <use xlink:href="#m69d6d3f050" x="466.674708" y="386.198125" style="stroke: #000000; stroke-width: 0.8"/>
      </g>
     </g>
     <g id="text_5">
      <!-- 2000 -->
      <g transform="translate(453.949708 400.796562) scale(0.1 -0.1)">
       <defs>
        <path id="DejaVuSans-32" d="M 1228 531 
L 3431 531 
L 3431 0 
L 469 0 
L 469 531 
Q 828 903 1448 1529 
Q 2069 2156 2228 2338 
Q 2531 2678 2651 2914 
Q 2772 3150 2772 3378 
Q 2772 3750 2511 3984 
Q 2250 4219 1831 4219 
Q 1534 4219 1204 4116 
Q 875 4013 500 3803 
L 500 4441 
Q 881 4594 1212 4672 
Q 1544 4750 1819 4750 
Q 2544 4750 2975 4387 
Q 3406 4025 3406 3419 
Q 3406 3131 3298 2873 
Q 3191 2616 2906 2266 
Q 2828 2175 2409 1742 
Q 1991 1309 1228 531 
z
" transform="scale(0.015625)"/>
       </defs>
       <use xlink:href="#DejaVuSans-32"/>
       <use xlink:href="#DejaVuSans-30" x="63.623047"/>
       <use xlink:href="#DejaVuSans-30" x="127.246094"/>
       <use xlink:href="#DejaVuSans-30" x="190.869141"/>
      </g>
     </g>
    </g>
    <g id="xtick_6">
     <g id="line2d_11">
      <path d="M 570.848689 386.198125 
L 570.848689 22.318125 
" clip-path="url(#pc68394b3c6)" style="fill: none; stroke: #b0b0b0; stroke-width: 0.8; stroke-linecap: square"/>
     </g>
     <g id="line2d_12">
      <g>
       <use xlink:href="#m69d6d3f050" x="570.848689" y="386.198125" style="stroke: #000000; stroke-width: 0.8"/>
      </g>
     </g>
     <g id="text_6">
      <!-- 2500 -->
      <g transform="translate(558.123689 400.796562) scale(0.1 -0.1)">
       <use xlink:href="#DejaVuSans-32"/>
       <use xlink:href="#DejaVuSans-35" x="63.623047"/>
       <use xlink:href="#DejaVuSans-30" x="127.246094"/>
       <use xlink:href="#DejaVuSans-30" x="190.869141"/>
      </g>
     </g>
    </g>
    <g id="xtick_7">
     <g id="line2d_13">
      <path d="M 675.02267 386.198125 
L 675.02267 22.318125 
" clip-path="url(#pc68394b3c6)" style="fill: none; stroke: #b0b0b0; stroke-width: 0.8; stroke-linecap: square"/>
     </g>
     <g id="line2d_14">
      <g>
       <use xlink:href="#m69d6d3f050" x="675.02267" y="386.198125" style="stroke: #000000; stroke-width: 0.8"/>
      </g>
     </g>
     <g id="text_7">
      <!-- 3000 -->
      <g transform="translate(662.29767 400.796562) scale(0.1 -0.1)">
       <defs>
        <path id="DejaVuSans-33" d="M 2597 2516 
Q 3050 2419 3304 2112 
Q 3559 1806 3559 1356 
Q 3559 666 3084 287 
Q 2609 -91 1734 -91 
Q 1441 -91 1130 -33 
Q 819 25 488 141 
L 488 750 
Q 750 597 1062 519 
Q 1375 441 1716 441 
Q 2309 441 2620 675 
Q 2931 909 2931 1356 
Q 2931 1769 2642 2001 
Q 2353 2234 1838 2234 
L 1294 2234 
L 1294 2753 
L 1863 2753 
Q 2328 2753 2575 2939 
Q 2822 3125 2822 3475 
Q 2822 3834 2567 4026 
Q 2313 4219 1838 4219 
Q 1578 4219 1281 4162 
Q 984 4106 628 3988 
L 628 4550 
Q 988 4650 1302 4700 
Q 1616 4750 1894 4750 
Q 2613 4750 3031 4423 
Q 3450 4097 3450 3541 
Q 3450 3153 3228 2886 
Q 3006 2619 2597 2516 
z
" transform="scale(0.015625)"/>
       </defs>
       <use xlink:href="#DejaVuSans-33"/>
       <use xlink:href="#DejaVuSans-30" x="63.623047"/>
       <use xlink:href="#DejaVuSans-30" x="127.246094"/>
       <use xlink:href="#DejaVuSans-30" x="190.869141"/>
      </g>
     </g>
    </g>
    <g id="text_8">
     <!-- Размер данных (N) -->
     <g transform="translate(323.372031 414.474687) scale(0.1 -0.1)">
      <defs>
       <path id="DejaVuSans-420" d="M 1259 4147 
L 1259 2394 
L 2053 2394 
Q 2494 2394 2734 2622 
Q 2975 2850 2975 3272 
Q 2975 3691 2734 3919 
Q 2494 4147 2053 4147 
L 1259 4147 
z
M 628 4666 
L 2053 4666 
Q 2838 4666 3239 4311 
Q 3641 3956 3641 3272 
Q 3641 2581 3239 2228 
Q 2838 1875 2053 1875 
L 1259 1875 
L 1259 0 
L 628 0 
L 628 4666 
z
" transform="scale(0.015625)"/>
       <path id="DejaVuSans-430" d="M 2194 1759 
Q 1497 1759 1228 1600 
Q 959 1441 959 1056 
Q 959 750 1161 570 
Q 1363 391 1709 391 
Q 2188 391 2477 730 
Q 2766 1069 2766 1631 
L 2766 1759 
L 2194 1759 
z
M 3341 1997 
L 3341 0 
L 2766 0 
L 2766 531 
Q 2569 213 2275 61 
Q 1981 -91 1556 -91 
Q 1019 -91 701 211 
Q 384 513 384 1019 
Q 384 1609 779 1909 
Q 1175 2209 1959 2209 
L 2766 2209 
L 2766 2266 
Q 2766 2663 2505 2880 
Q 2244 3097 1772 3097 
Q 1472 3097 1187 3025 
Q 903 2953 641 2809 
L 641 3341 
Q 956 3463 1253 3523 
Q 1550 3584 1831 3584 
Q 2591 3584 2966 3190 
Q 3341 2797 3341 1997 
z
" transform="scale(0.015625)"/>
       <path id="DejaVuSans-437" d="M 2206 1888 
Q 2594 1813 2809 1584 
Q 3025 1356 3025 1019 
Q 3025 478 2622 193 
Q 2219 -91 1475 -91 
Q 1225 -91 961 -47 
Q 697 -3 416 84 
L 416 619 
Q 638 503 903 445 
Q 1169 388 1459 388 
Q 1931 388 2195 563 
Q 2459 738 2459 1019 
Q 2459 1294 2225 1461 
Q 1991 1628 1563 1628 
L 1100 1628 
L 1100 2103 
L 1584 2103 
Q 1947 2103 2158 2242 
Q 2369 2381 2369 2600 
Q 2369 2800 2151 2944 
Q 1934 3088 1563 3088 
Q 1341 3088 1089 3047 
Q 838 3006 534 2916 
L 534 3438 
Q 841 3513 1106 3550 
Q 1372 3588 1609 3588 
Q 2222 3588 2576 3342 
Q 2931 3097 2931 2656 
Q 2931 2366 2743 2164 
Q 2556 1963 2206 1888 
z
" transform="scale(0.015625)"/>
       <path id="DejaVuSans-43c" d="M 581 3500 
L 1422 3500 
L 2416 1156 
L 3413 3500 
L 4247 3500 
L 4247 0 
L 3669 0 
L 3669 2950 
L 2703 672 
L 2128 672 
L 1159 2950 
L 1159 0 
L 581 0 
L 581 3500 
z
" transform="scale(0.015625)"/>
       <path id="DejaVuSans-435" d="M 3597 1894 
L 3597 1613 
L 953 1613 
Q 991 1019 1311 708 
Q 1631 397 2203 397 
Q 2534 397 2845 478 
Q 3156 559 3463 722 
L 3463 178 
Q 3153 47 2828 -22 
Q 2503 -91 2169 -91 
Q 1331 -91 842 396 
Q 353 884 353 1716 
Q 353 2575 817 3079 
Q 1281 3584 2069 3584 
Q 2775 3584 3186 3129 
Q 3597 2675 3597 1894 
z
M 3022 2063 
Q 3016 2534 2758 2815 
Q 2500 3097 2075 3097 
Q 1594 3097 1305 2825 
Q 1016 2553 972 2059 
L 3022 2063 
z
" transform="scale(0.015625)"/>
       <path id="DejaVuSans-440" d="M 1159 525 
L 1159 -1331 
L 581 -1331 
L 581 3500 
L 1159 3500 
L 1159 2969 
Q 1341 3281 1617 3432 
Q 1894 3584 2278 3584 
Q 2916 3584 3314 3078 
Q 3713 2572 3713 1747 
Q 3713 922 3314 415 
Q 2916 -91 2278 -91 
Q 1894 -91 1617 61 
Q 1341 213 1159 525 
z
M 3116 1747 
Q 3116 2381 2855 2742 
Q 2594 3103 2138 3103 
Q 1681 3103 1420 2742 
Q 1159 2381 1159 1747 
Q 1159 1113 1420 752 
Q 1681 391 2138 391 
Q 2594 391 2855 752 
Q 3116 1113 3116 1747 
z
" transform="scale(0.015625)"/>
       <path id="DejaVuSans-20" transform="scale(0.015625)"/>
       <path id="DejaVuSans-434" d="M 1384 459 
L 3053 459 
L 3053 3041 
L 1844 3041 
L 1844 2603 
Q 1844 1316 1475 628 
L 1384 459 
z
M 550 459 
Q 834 584 959 850 
Q 1266 1509 1266 2838 
L 1266 3500 
L 3631 3500 
L 3631 459 
L 4091 459 
L 4091 -884 
L 3631 -884 
L 3631 0 
L 794 0 
L 794 -884 
L 334 -884 
L 334 459 
L 550 459 
z
" transform="scale(0.015625)"/>
       <path id="DejaVuSans-43d" d="M 581 3500 
L 1159 3500 
L 1159 2072 
L 3025 2072 
L 3025 3500 
L 3603 3500 
L 3603 0 
L 3025 0 
L 3025 1613 
L 1159 1613 
L 1159 0 
L 581 0 
L 581 3500 
z
" transform="scale(0.015625)"/>
       <path id="DejaVuSans-44b" d="M 3909 3500 
L 4484 3500 
L 4484 0 
L 3909 0 
L 3909 3500 
z
M 4197 3584 
L 4197 3584 
z
M 2781 1038 
Q 2781 1319 2576 1466 
Q 2372 1613 1978 1613 
L 1159 1613 
L 1159 459 
L 1978 459 
Q 2372 459 2576 607 
Q 2781 756 2781 1038 
z
M 581 3500 
L 1159 3500 
L 1159 2072 
L 2003 2072 
Q 2672 2072 3033 1817 
Q 3394 1563 3394 1038 
Q 3394 513 3033 256 
Q 2672 0 2003 0 
L 581 0 
L 581 3500 
z
" transform="scale(0.015625)"/>
       <path id="DejaVuSans-445" d="M 3513 3500 
L 2247 1797 
L 3578 0 
L 2900 0 
L 1881 1375 
L 863 0 
L 184 0 
L 1544 1831 
L 300 3500 
L 978 3500 
L 1906 2253 
L 2834 3500 
L 3513 3500 
z
" transform="scale(0.015625)"/>
       <path id="DejaVuSans-28" d="M 1984 4856 
Q 1566 4138 1362 3434 
Q 1159 2731 1159 2009 
Q 1159 1288 1364 580 
Q 1569 -128 1984 -844 
L 1484 -844 
Q 1016 -109 783 600 
Q 550 1309 550 2009 
Q 550 2706 781 3412 
Q 1013 4119 1484 4856 
L 1984 4856 
z
" transform="scale(0.015625)"/>
       <path id="DejaVuSans-4e" d="M 628 4666 
L 1478 4666 
L 3547 763 
L 3547 4666 
L 4159 4666 
L 4159 0 
L 3309 0 
L 1241 3903 
L 1241 0 
L 628 0 
L 628 4666 
z
" transform="scale(0.015625)"/>
       <path id="DejaVuSans-29" d="M 513 4856 
L 1013 4856 
Q 1481 4119 1714 3412 
Q 1947 2706 1947 2009 
Q 1947 1309 1714 600 
Q 1481 -109 1013 -844 
L 513 -844 
Q 928 -128 1133 580 
Q 1338 1288 1338 2009 
Q 1338 2731 1133 3434 
Q 928 4138 513 4856 
z
" transform="scale(0.015625)"/>
      </defs>
      <use xlink:href="#DejaVuSans-420"/>
      <use xlink:href="#DejaVuSans-430" x="60.302734"/>
      <use xlink:href="#DejaVuSans-437" x="121.582031"/>
      <use xlink:href="#DejaVuSans-43c" x="174.755859"/>
      <use xlink:href="#DejaVuSans-435" x="250.195312"/>
      <use xlink:href="#DejaVuSans-440" x="311.71875"/>
      <use xlink:href="#DejaVuSans-20" x="375.195312"/>
      <use xlink:href="#DejaVuSans-434" x="406.982422"/>
      <use xlink:href="#DejaVuSans-430" x="476.123047"/>
      <use xlink:href="#DejaVuSans-43d" x="537.402344"/>
      <use xlink:href="#DejaVuSans-43d" x="602.783203"/>
      <use xlink:href="#DejaVuSans-44b" x="668.164062"/>
      <use xlink:href="#DejaVuSans-445" x="747.119141"/>
      <use xlink:href="#DejaVuSans-20" x="806.298828"/>
      <use xlink:href="#DejaVuSans-28" x="838.085938"/>
      <use xlink:href="#DejaVuSans-4e" x="877.099609"/>
      <use xlink:href="#DejaVuSans-29" x="951.904297"/>
     </g>
    </g>
   </g>
   <g id="matplotlib.axis_2">
    <g id="ytick_1">
     <g id="line2d_15">
      <path d="M 40.603125 371.513945 
L 705.233125 371.513945 
" clip-path="url(#pc68394b3c6)" style="fill: none; stroke: #b0b0b0; stroke-width: 0.8; stroke-linecap: square"/>
     </g>
     <g id="line2d_16">
      <defs>
       <path id="mdf6df5ae18" d="M 0 0 
L -3.5 0 
" style="stroke: #000000; stroke-width: 0.8"/>
      </defs>
      <g>
       <use xlink:href="#mdf6df5ae18" x="40.603125" y="371.513945" style="stroke: #000000; stroke-width: 0.8"/>
      </g>
     </g>
     <g id="text_9">
      <!-- 0 -->
      <g transform="translate(27.240625 375.313164) scale(0.1 -0.1)">
       <use xlink:href="#DejaVuSans-30"/>
      </g>
     </g>
    </g>
    <g id="ytick_2">
     <g id="line2d_17">
      <path d="M 40.603125 311.260034 
L 705.233125 311.260034 
" clip-path="url(#pc68394b3c6)" style="fill: none; stroke: #b0b0b0; stroke-width: 0.8; stroke-linecap: square"/>
     </g>
     <g id="line2d_18">
      <g>
       <use xlink:href="#mdf6df5ae18" x="40.603125" y="311.260034" style="stroke: #000000; stroke-width: 0.8"/>
      </g>
     </g>
     <g id="text_10">
      <!-- 2 -->
      <g transform="translate(27.240625 315.059253) scale(0.1 -0.1)">
       <use xlink:href="#DejaVuSans-32"/>
      </g>
     </g>
    </g>
    <g id="ytick_3">
     <g id="line2d_19">
      <path d="M 40.603125 251.006122 
L 705.233125 251.006122 
" clip-path="url(#pc68394b3c6)" style="fill: none; stroke: #b0b0b0; stroke-width: 0.8; stroke-linecap: square"/>
     </g>
     <g id="line2d_20">
      <g>
       <use xlink:href="#mdf6df5ae18" x="40.603125" y="251.006122" style="stroke: #000000; stroke-width: 0.8"/>
      </g>
     </g>
     <g id="text_11">
      <!-- 4 -->
      <g transform="translate(27.240625 254.805341) scale(0.1 -0.1)">
       <defs>
        <path id="DejaVuSans-34" d="M 2419 4116 
L 825 1625 
L 2419 1625 
L 2419 4116 
z
M 2253 4666 
L 3047 4666 
L 3047 1625 
L 3713 1625 
L 3713 1100 
L 3047 1100 
L 3047 0 
L 2419 0 
L 2419 1100 
L 313 1100 
L 313 1709 
L 2253 4666 
z
" transform="scale(0.015625)"/>
       </defs>
       <use xlink:href="#DejaVuSans-34"/>
      </g>
     </g>
    </g>
    <g id="ytick_4">
     <g id="line2d_21">
      <path d="M 40.603125 190.752211 
L 705.233125 190.752211 
" clip-path="url(#pc68394b3c6)" style="fill: none; stroke: #b0b0b0; stroke-width: 0.8; stroke-linecap: square"/>
     </g>
     <g id="line2d_22">
      <g>
       <use xlink:href="#mdf6df5ae18" x="40.603125" y="190.752211" style="stroke: #000000; stroke-width: 0.8"/>
      </g>
     </g>
     <g id="text_12">
      <!-- 6 -->
      <g transform="translate(27.240625 194.551429) scale(0.1 -0.1)">
       <defs>
        <path id="DejaVuSans-36" d="M 2113 2584 
Q 1688 2584 1439 2293 
Q 1191 2003 1191 1497 
Q 1191 994 1439 701 
Q 1688 409 2113 409 
Q 2538 409 2786 701 
Q 3034 994 3034 1497 
Q 3034 2003 2786 2293 
Q 2538 2584 2113 2584 
z
M 3366 4563 
L 3366 3988 
Q 3128 4100 2886 4159 
Q 2644 4219 2406 4219 
Q 1781 4219 1451 3797 
Q 1122 3375 1075 2522 
Q 1259 2794 1537 2939 
Q 1816 3084 2150 3084 
Q 2853 3084 3261 2657 
Q 3669 2231 3669 1497 
Q 3669 778 3244 343 
Q 2819 -91 2113 -91 
Q 1303 -91 875 529 
Q 447 1150 447 2328 
Q 447 3434 972 4092 
Q 1497 4750 2381 4750 
Q 2619 4750 2861 4703 
Q 3103 4656 3366 4563 
z
" transform="scale(0.015625)"/>
       </defs>
       <use xlink:href="#DejaVuSans-36"/>
      </g>
     </g>
    </g>
    <g id="ytick_5">
     <g id="line2d_23">
      <path d="M 40.603125 130.498299 
L 705.233125 130.498299 
" clip-path="url(#pc68394b3c6)" style="fill: none; stroke: #b0b0b0; stroke-width: 0.8; stroke-linecap: square"/>
     </g>
     <g id="line2d_24">
      <g>
       <use xlink:href="#mdf6df5ae18" x="40.603125" y="130.498299" style="stroke: #000000; stroke-width: 0.8"/>
      </g>
     </g>
     <g id="text_13">
      <!-- 8 -->
      <g transform="translate(27.240625 134.297518) scale(0.1 -0.1)">
       <defs>
        <path id="DejaVuSans-38" d="M 2034 2216 
Q 1584 2216 1326 1975 
Q 1069 1734 1069 1313 
Q 1069 891 1326 650 
Q 1584 409 2034 409 
Q 2484 409 2743 651 
Q 3003 894 3003 1313 
Q 3003 1734 2745 1975 
Q 2488 2216 2034 2216 
z
M 1403 2484 
Q 997 2584 770 2862 
Q 544 3141 544 3541 
Q 544 4100 942 4425 
Q 1341 4750 2034 4750 
Q 2731 4750 3128 4425 
Q 3525 4100 3525 3541 
Q 3525 3141 3298 2862 
Q 3072 2584 2669 2484 
Q 3125 2378 3379 2068 
Q 3634 1759 3634 1313 
Q 3634 634 3220 271 
Q 2806 -91 2034 -91 
Q 1263 -91 848 271 
Q 434 634 434 1313 
Q 434 1759 690 2068 
Q 947 2378 1403 2484 
z
M 1172 3481 
Q 1172 3119 1398 2916 
Q 1625 2713 2034 2713 
Q 2441 2713 2670 2916 
Q 2900 3119 2900 3481 
Q 2900 3844 2670 4047 
Q 2441 4250 2034 4250 
Q 1625 4250 1398 4047 
Q 1172 3844 1172 3481 
z
" transform="scale(0.015625)"/>
       </defs>
       <use xlink:href="#DejaVuSans-38"/>
      </g>
     </g>
    </g>
    <g id="ytick_6">
     <g id="line2d_25">
      <path d="M 40.603125 70.244388 
L 705.233125 70.244388 
" clip-path="url(#pc68394b3c6)" style="fill: none; stroke: #b0b0b0; stroke-width: 0.8; stroke-linecap: square"/>
     </g>
     <g id="line2d_26">
      <g>
       <use xlink:href="#mdf6df5ae18" x="40.603125" y="70.244388" style="stroke: #000000; stroke-width: 0.8"/>
      </g>
     </g>
     <g id="text_14">
      <!-- 10 -->
      <g transform="translate(20.878125 74.043606) scale(0.1 -0.1)">
       <use xlink:href="#DejaVuSans-31"/>
       <use xlink:href="#DejaVuSans-30" x="63.623047"/>
      </g>
     </g>
    </g>
    <g id="text_15">
     <!-- Время (мс) -->
     <g transform="translate(14.798438 232.730781) rotate(-90) scale(0.1 -0.1)">
      <defs>
       <path id="DejaVuSans-412" d="M 1259 2228 
L 1259 519 
L 2272 519 
Q 2781 519 3026 730 
Q 3272 941 3272 1375 
Q 3272 1813 3026 2020 
Q 2781 2228 2272 2228 
L 1259 2228 
z
M 1259 4147 
L 1259 2741 
L 2194 2741 
Q 2656 2741 2882 2914 
Q 3109 3088 3109 3444 
Q 3109 3797 2882 3972 
Q 2656 4147 2194 4147 
L 1259 4147 
z
M 628 4666 
L 2241 4666 
Q 2963 4666 3353 4366 
Q 3744 4066 3744 3513 
Q 3744 3084 3544 2831 
Q 3344 2578 2956 2516 
Q 3422 2416 3680 2098 
Q 3938 1781 3938 1306 
Q 3938 681 3513 340 
Q 3088 0 2303 0 
L 628 0 
L 628 4666 
z
" transform="scale(0.015625)"/>
       <path id="DejaVuSans-44f" d="M 1181 2491 
Q 1181 2231 1381 2084 
Q 1581 1938 1953 1938 
L 2728 1938 
L 2728 3041 
L 1953 3041 
Q 1581 3041 1381 2897 
Q 1181 2753 1181 2491 
z
M 363 0 
L 1431 1534 
Q 1069 1616 828 1830 
Q 588 2044 588 2491 
Q 588 2997 923 3248 
Q 1259 3500 1938 3500 
L 3306 3500 
L 3306 0 
L 2728 0 
L 2728 1478 
L 2013 1478 
L 981 0 
L 363 0 
z
" transform="scale(0.015625)"/>
       <path id="DejaVuSans-441" d="M 3122 3366 
L 3122 2828 
Q 2878 2963 2633 3030 
Q 2388 3097 2138 3097 
Q 1578 3097 1268 2742 
Q 959 2388 959 1747 
Q 959 1106 1268 751 
Q 1578 397 2138 397 
Q 2388 397 2633 464 
Q 2878 531 3122 666 
L 3122 134 
Q 2881 22 2623 -34 
Q 2366 -91 2075 -91 
Q 1284 -91 818 406 
Q 353 903 353 1747 
Q 353 2603 823 3093 
Q 1294 3584 2113 3584 
Q 2378 3584 2631 3529 
Q 2884 3475 3122 3366 
z
" transform="scale(0.015625)"/>
      </defs>
      <use xlink:href="#DejaVuSans-412"/>
      <use xlink:href="#DejaVuSans-440" x="68.603516"/>
      <use xlink:href="#DejaVuSans-435" x="132.080078"/>
      <use xlink:href="#DejaVuSans-43c" x="193.603516"/>
      <use xlink:href="#DejaVuSans-44f" x="269.042969"/>
      <use xlink:href="#DejaVuSans-20" x="329.199219"/>
      <use xlink:href="#DejaVuSans-28" x="360.986328"/>
      <use xlink:href="#DejaVuSans-43c" x="400"/>
      <use xlink:href="#DejaVuSans-441" x="475.439453"/>
      <use xlink:href="#DejaVuSans-29" x="530.419922"/>
     </g>
    </g>
   </g>
   <g id="line2d_27">
    <path d="M 70.81358 369.658125 
L 91.648376 367.374502 
L 112.483172 364.765507 
L 133.317968 362.174589 
L 154.152764 359.372782 
L 174.987561 357.25787 
L 195.822357 354.202997 
L 216.657153 351.274657 
L 237.491949 348.039022 
L 258.326746 346.01449 
L 279.161542 343.375369 
L 299.996338 340.175886 
L 320.831134 338.097126 
L 341.665931 335.054304 
L 362.500727 330.637692 
L 383.335523 328.14318 
L 404.170319 324.961773 
L 425.005116 322.021382 
L 445.839912 318.430249 
L 466.674708 317.857837 
L 487.509504 313.164057 
L 508.344301 309.729585 
L 529.179097 304.849018 
L 550.013893 302.047211 
L 570.848689 299.87807 
L 591.683486 295.298773 
L 612.518282 290.767679 
L 633.353078 287.616399 
L 654.187874 286.314914 
L 675.02267 283.398625 
" clip-path="url(#pc68394b3c6)" style="fill: none; stroke: #1f77b4; stroke-width: 1.5; stroke-linecap: square"/>
    <defs>
     <path id="m62f8fe06ea" d="M 0 3 
C 0.795609 3 1.55874 2.683901 2.12132 2.12132 
C 2.683901 1.55874 3 0.795609 3 0 
C 3 -0.795609 2.683901 -1.55874 2.12132 -2.12132 
C 1.55874 -2.683901 0.795609 -3 0 -3 
C -0.795609 -3 -1.55874 -2.683901 -2.12132 -2.12132 
C -2.683901 -1.55874 -3 -0.795609 -3 0 
C -3 0.795609 -2.683901 1.55874 -2.12132 2.12132 
C -1.55874 2.683901 -0.795609 3 0 3 
z
" style="stroke: #1f77b4"/>
    </defs>
    <g clip-path="url(#pc68394b3c6)">
     <use xlink:href="#m62f8fe06ea" x="70.81358" y="369.658125" style="fill: #1f77b4; stroke: #1f77b4"/>
     <use xlink:href="#m62f8fe06ea" x="91.648376" y="367.374502" style="fill: #1f77b4; stroke: #1f77b4"/>
     <use xlink:href="#m62f8fe06ea" x="112.483172" y="364.765507" style="fill: #1f77b4; stroke: #1f77b4"/>
     <use xlink:href="#m62f8fe06ea" x="133.317968" y="362.174589" style="fill: #1f77b4; stroke: #1f77b4"/>
     <use xlink:href="#m62f8fe06ea" x="154.152764" y="359.372782" style="fill: #1f77b4; stroke: #1f77b4"/>
     <use xlink:href="#m62f8fe06ea" x="174.987561" y="357.25787" style="fill: #1f77b4; stroke: #1f77b4"/>
     <use xlink:href="#m62f8fe06ea" x="195.822357" y="354.202997" style="fill: #1f77b4; stroke: #1f77b4"/>
     <use xlink:href="#m62f8fe06ea" x="216.657153" y="351.274657" style="fill: #1f77b4; stroke: #1f77b4"/>
     <use xlink:href="#m62f8fe06ea" x="237.491949" y="348.039022" style="fill: #1f77b4; stroke: #1f77b4"/>
     <use xlink:href="#m62f8fe06ea" x="258.326746" y="346.01449" style="fill: #1f77b4; stroke: #1f77b4"/>
     <use xlink:href="#m62f8fe06ea" x="279.161542" y="343.375369" style="fill: #1f77b4; stroke: #1f77b4"/>
     <use xlink:href="#m62f8fe06ea" x="299.996338" y="340.175886" style="fill: #1f77b4; stroke: #1f77b4"/>
     <use xlink:href="#m62f8fe06ea" x="320.831134" y="338.097126" style="fill: #1f77b4; stroke: #1f77b4"/>
     <use xlink:href="#m62f8fe06ea" x="341.665931" y="335.054304" style="fill: #1f77b4; stroke: #1f77b4"/>
     <use xlink:href="#m62f8fe06ea" x="362.500727" y="330.637692" style="fill: #1f77b4; stroke: #1f77b4"/>
     <use xlink:href="#m62f8fe06ea" x="383.335523" y="328.14318" style="fill: #1f77b4; stroke: #1f77b4"/>
     <use xlink:href="#m62f8fe06ea" x="404.170319" y="324.961773" style="fill: #1f77b4; stroke: #1f77b4"/>
     <use xlink:href="#m62f8fe06ea" x="425.005116" y="322.021382" style="fill: #1f77b4; stroke: #1f77b4"/>
     <use xlink:href="#m62f8fe06ea" x="445.839912" y="318.430249" style="fill: #1f77b4; stroke: #1f77b4"/>
     <use xlink:href="#m62f8fe06ea" x="466.674708" y="317.857837" style="fill: #1f77b4; stroke: #1f77b4"/>
     <use xlink:href="#m62f8fe06ea" x="487.509504" y="313.164057" style="fill: #1f77b4; stroke: #1f77b4"/>
     <use xlink:href="#m62f8fe06ea" x="508.344301" y="309.729585" style="fill: #1f77b4; stroke: #1f77b4"/>
     <use xlink:href="#m62f8fe06ea" x="529.179097" y="304.849018" style="fill: #1f77b4; stroke: #1f77b4"/>
     <use xlink:href="#m62f8fe06ea" x="550.013893" y="302.047211" style="fill: #1f77b4; stroke: #1f77b4"/>
     <use xlink:href="#m62f8fe06ea" x="570.848689" y="299.87807" style="fill: #1f77b4; stroke: #1f77b4"/>
     <use xlink:href="#m62f8fe06ea" x="591.683486" y="295.298773" style="fill: #1f77b4; stroke: #1f77b4"/>
     <use xlink:href="#m62f8fe06ea" x="612.518282" y="290.767679" style="fill: #1f77b4; stroke: #1f77b4"/>
     <use xlink:href="#m62f8fe06ea" x="633.353078" y="287.616399" style="fill: #1f77b4; stroke: #1f77b4"/>
     <use xlink:href="#m62f8fe06ea" x="654.187874" y="286.314914" style="fill: #1f77b4; stroke: #1f77b4"/>
     <use xlink:href="#m62f8fe06ea" x="675.02267" y="283.398625" style="fill: #1f77b4; stroke: #1f77b4"/>
    </g>
   </g>
   <g id="line2d_28">
    <path d="M 70.81358 360.517607 
L 91.648376 352.003729 
L 112.483172 339.290154 
L 133.317968 329.37236 
L 154.152764 316.761216 
L 174.987561 309.066792 
L 195.822357 300.131136 
L 216.657153 286.417346 
L 237.491949 277.813088 
L 258.326746 266.720342 
L 279.161542 258.863232 
L 299.996338 247.487294 
L 320.831134 231.387449 
L 341.665931 221.764899 
L 362.500727 210.274478 
L 383.335523 198.247797 
L 404.170319 188.655375 
L 425.005116 177.279436 
L 445.839912 168.548644 
L 466.674708 156.841309 
L 487.509504 147.881553 
L 508.344301 132.619237 
L 529.179097 118.098044 
L 550.013893 109.433532 
L 570.848689 100.666588 
L 591.683486 91.08019 
L 612.518282 75.552757 
L 633.353078 64.255149 
L 654.187874 49.408585 
L 675.02267 38.858125 
" clip-path="url(#pc68394b3c6)" style="fill: none; stroke: #ff7f0e; stroke-width: 1.5; stroke-linecap: square"/>
    <defs>
     <path id="m71de0cfc1c" d="M 0 3 
C 0.795609 3 1.55874 2.683901 2.12132 2.12132 
C 2.683901 1.55874 3 0.795609 3 0 
C 3 -0.795609 2.683901 -1.55874 2.12132 -2.12132 
C 1.55874 -2.683901 0.795609 -3 0 -3 
C -0.795609 -3 -1.55874 -2.683901 -2.12132 -2.12132 
C -2.683901 -1.55874 -3 -0.795609 -3 0 
C -3 0.795609 -2.683901 1.55874 -2.12132 2.12132 
C -1.55874 2.683901 -0.795609 3 0 3 
z
" style="stroke: #ff7f0e"/>
    </defs>
    <g clip-path="url(#pc68394b3c6)">
     <use xlink:href="#m71de0cfc1c" x="70.81358" y="360.517607" style="fill: #ff7f0e; stroke: #ff7f0e"/>
     <use xlink:href="#m71de0cfc1c" x="91.648376" y="352.003729" style="fill: #ff7f0e; stroke: #ff7f0e"/>
     <use xlink:href="#m71de0cfc1c" x="112.483172" y="339.290154" style="fill: #ff7f0e; stroke: #ff7f0e"/>
     <use xlink:href="#m71de0cfc1c" x="133.317968" y="329.37236" style="fill: #ff7f0e; stroke: #ff7f0e"/>
     <use xlink:href="#m71de0cfc1c" x="154.152764" y="316.761216" style="fill: #ff7f0e; stroke: #ff7f0e"/>
     <use xlink:href="#m71de0cfc1c" x="174.987561" y="309.066792" style="fill: #ff7f0e; stroke: #ff7f0e"/>
     <use xlink:href="#m71de0cfc1c" x="195.822357" y="300.131136" style="fill: #ff7f0e; stroke: #ff7f0e"/>
     <use xlink:href="#m71de0cfc1c" x="216.657153" y="286.417346" style="fill: #ff7f0e; stroke: #ff7f0e"/>
     <use xlink:href="#m71de0cfc1c" x="237.491949" y="277.813088" style="fill: #ff7f0e; stroke: #ff7f0e"/>
     <use xlink:href="#m71de0cfc1c" x="258.326746" y="266.720342" style="fill: #ff7f0e; stroke: #ff7f0e"/>
     <use xlink:href="#m71de0cfc1c" x="279.161542" y="258.863232" style="fill: #ff7f0e; stroke: #ff7f0e"/>
     <use xlink:href="#m71de0cfc1c" x="299.996338" y="247.487294" style="fill: #ff7f0e; stroke: #ff7f0e"/>
     <use xlink:href="#m71de0cfc1c" x="320.831134" y="231.387449" style="fill: #ff7f0e; stroke: #ff7f0e"/>
     <use xlink:href="#m71de0cfc1c" x="341.665931" y="221.764899" style="fill: #ff7f0e; stroke: #ff7f0e"/>
     <use xlink:href="#m71de0cfc1c" x="362.500727" y="210.274478" style="fill: #ff7f0e; stroke: #ff7f0e"/>
     <use xlink:href="#m71de0cfc1c" x="383.335523" y="198.247797" style="fill: #ff7f0e; stroke: #ff7f0e"/>
     <use xlink:href="#m71de0cfc1c" x="404.170319" y="188.655375" style="fill: #ff7f0e; stroke: #ff7f0e"/>
     <use xlink:href="#m71de0cfc1c" x="425.005116" y="177.279436" style="fill: #ff7f0e; stroke: #ff7f0e"/>
     <use xlink:href="#m71de0cfc1c" x="445.839912" y="168.548644" style="fill: #ff7f0e; stroke: #ff7f0e"/>
     <use xlink:href="#m71de0cfc1c" x="466.674708" y="156.841309" style="fill: #ff7f0e; stroke: #ff7f0e"/>
     <use xlink:href="#m71de0cfc1c" x="487.509504" y="147.881553" style="fill: #ff7f0e; stroke: #ff7f0e"/>
     <use xlink:href="#m71de0cfc1c" x="508.344301" y="132.619237" style="fill: #ff7f0e; stroke: #ff7f0e"/>
     <use xlink:href="#m71de0cfc1c" x="529.179097" y="118.098044" style="fill: #ff7f0e; stroke: #ff7f0e"/>
     <use xlink:href="#m71de0cfc1c" x="550.013893" y="109.433532" style="fill: #ff7f0e; stroke: #ff7f0e"/>
     <use xlink:href="#m71de0cfc1c" x="570.848689" y="100.666588" style="fill: #ff7f0e; stroke: #ff7f0e"/>
     <use xlink:href="#m71de0cfc1c" x="591.683486" y="91.08019" style="fill: #ff7f0e; stroke: #ff7f0e"/>
     <use xlink:href="#m71de0cfc1c" x="612.518282" y="75.552757" style="fill: #ff7f0e; stroke: #ff7f0e"/>
     <use xlink:href="#m71de0cfc1c" x="633.353078" y="64.255149" style="fill: #ff7f0e; stroke: #ff7f0e"/>
     <use xlink:href="#m71de0cfc1c" x="654.187874" y="49.408585" style="fill: #ff7f0e; stroke: #ff7f0e"/>
     <use xlink:href="#m71de0cfc1c" x="675.02267" y="38.858125" style="fill: #ff7f0e; stroke: #ff7f0e"/>
    </g>
   </g>
   <g id="line2d_29">
    <path d="M 70.81358 364.898066 
L 91.648376 360.312743 
L 112.483172 356.444442 
L 133.317968 354.347606 
L 154.152764 351.594002 
L 174.987561 347.225594 
L 195.822357 347.267771 
L 216.657153 344.116492 
L 237.491949 341.507498 
L 258.326746 338.187507 
L 279.161542 333.957682 
L 299.996338 329.281979 
L 320.831134 328.058824 
L 341.665931 325.407652 
L 362.500727 318.538706 
L 383.335523 318.36397 
L 404.170319 312.573569 
L 425.005116 304.867094 
L 445.839912 303.668041 
L 466.674708 299.655131 
L 487.509504 295.310823 
L 508.344301 287.754983 
L 529.179097 280.916164 
L 550.013893 277.572072 
L 570.848689 269.895724 
L 591.683486 268.286944 
L 612.518282 260.628672 
L 633.353078 258.664394 
L 654.187874 249.879374 
L 675.02267 242.642879 
" clip-path="url(#pc68394b3c6)" style="fill: none; stroke: #2ca02c; stroke-width: 1.5; stroke-linecap: square"/>
    <defs>
     <path id="m546a94e326" d="M 0 3 
C 0.795609 3 1.55874 2.683901 2.12132 2.12132 
C 2.683901 1.55874 3 0.795609 3 0 
C 3 -0.795609 2.683901 -1.55874 2.12132 -2.12132 
C 1.55874 -2.683901 0.795609 -3 0 -3 
C -0.795609 -3 -1.55874 -2.683901 -2.12132 -2.12132 
C -2.683901 -1.55874 -3 -0.795609 -3 0 
C -3 0.795609 -2.683901 1.55874 -2.12132 2.12132 
C -1.55874 2.683901 -0.795609 3 0 3 
z
" style="stroke: #2ca02c"/>
    </defs>
    <g clip-path="url(#pc68394b3c6)">
     <use xlink:href="#m546a94e326" x="70.81358" y="364.898066" style="fill: #2ca02c; stroke: #2ca02c"/>
     <use xlink:href="#m546a94e326" x="91.648376" y="360.312743" style="fill: #2ca02c; stroke: #2ca02c"/>
     <use xlink:href="#m546a94e326" x="112.483172" y="356.444442" style="fill: #2ca02c; stroke: #2ca02c"/>
     <use xlink:href="#m546a94e326" x="133.317968" y="354.347606" style="fill: #2ca02c; stroke: #2ca02c"/>
     <use xlink:href="#m546a94e326" x="154.152764" y="351.594002" style="fill: #2ca02c; stroke: #2ca02c"/>
     <use xlink:href="#m546a94e326" x="174.987561" y="347.225594" style="fill: #2ca02c; stroke: #2ca02c"/>
     <use xlink:href="#m546a94e326" x="195.822357" y="347.267771" style="fill: #2ca02c; stroke: #2ca02c"/>
     <use xlink:href="#m546a94e326" x="216.657153" y="344.116492" style="fill: #2ca02c; stroke: #2ca02c"/>
     <use xlink:href="#m546a94e326" x="237.491949" y="341.507498" style="fill: #2ca02c; stroke: #2ca02c"/>
     <use xlink:href="#m546a94e326" x="258.326746" y="338.187507" style="fill: #2ca02c; stroke: #2ca02c"/>
     <use xlink:href="#m546a94e326" x="279.161542" y="333.957682" style="fill: #2ca02c; stroke: #2ca02c"/>
     <use xlink:href="#m546a94e326" x="299.996338" y="329.281979" style="fill: #2ca02c; stroke: #2ca02c"/>
     <use xlink:href="#m546a94e326" x="320.831134" y="328.058824" style="fill: #2ca02c; stroke: #2ca02c"/>
     <use xlink:href="#m546a94e326" x="341.665931" y="325.407652" style="fill: #2ca02c; stroke: #2ca02c"/>
     <use xlink:href="#m546a94e326" x="362.500727" y="318.538706" style="fill: #2ca02c; stroke: #2ca02c"/>
     <use xlink:href="#m546a94e326" x="383.335523" y="318.36397" style="fill: #2ca02c; stroke: #2ca02c"/>
     <use xlink:href="#m546a94e326" x="404.170319" y="312.573569" style="fill: #2ca02c; stroke: #2ca02c"/>
     <use xlink:href="#m546a94e326" x="425.005116" y="304.867094" style="fill: #2ca02c; stroke: #2ca02c"/>
     <use xlink:href="#m546a94e326" x="445.839912" y="303.668041" style="fill: #2ca02c; stroke: #2ca02c"/>
     <use xlink:href="#m546a94e326" x="466.674708" y="299.655131" style="fill: #2ca02c; stroke: #2ca02c"/>
     <use xlink:href="#m546a94e326" x="487.509504" y="295.310823" style="fill: #2ca02c; stroke: #2ca02c"/>
     <use xlink:href="#m546a94e326" x="508.344301" y="287.754983" style="fill: #2ca02c; stroke: #2ca02c"/>
     <use xlink:href="#m546a94e326" x="529.179097" y="280.916164" style="fill: #2ca02c; stroke: #2ca02c"/>
     <use xlink:href="#m546a94e326" x="550.013893" y="277.572072" style="fill: #2ca02c; stroke: #2ca02c"/>
     <use xlink:href="#m546a94e326" x="570.848689" y="269.895724" style="fill: #2ca02c; stroke: #2ca02c"/>
     <use xlink:href="#m546a94e326" x="591.683486" y="268.286944" style="fill: #2ca02c; stroke: #2ca02c"/>
     <use xlink:href="#m546a94e326" x="612.518282" y="260.628672" style="fill: #2ca02c; stroke: #2ca02c"/>
     <use xlink:href="#m546a94e326" x="633.353078" y="258.664394" style="fill: #2ca02c; stroke: #2ca02c"/>
     <use xlink:href="#m546a94e326" x="654.187874" y="249.879374" style="fill: #2ca02c; stroke: #2ca02c"/>
     <use xlink:href="#m546a94e326" x="675.02267" y="242.642879" style="fill: #2ca02c; stroke: #2ca02c"/>
    </g>
   </g>
   <g id="line2d_30">
    <path d="M 70.81358 360.095829 
L 91.648376 352.17244 
L 112.483172 349.304354 
L 133.317968 339.898718 
L 154.152764 331.915075 
L 174.987561 322.648023 
L 195.822357 314.74271 
L 216.657153 307.753256 
L 237.491949 298.709144 
L 258.326746 287.140393 
L 279.161542 278.349347 
L 299.996338 271.829874 
L 320.831134 263.207539 
L 341.665931 252.530546 
L 362.500727 241.955985 
L 383.335523 232.285232 
L 404.170319 225.994724 
L 425.005116 212.208629 
L 445.839912 207.701636 
L 466.674708 197.536801 
L 487.509504 188.119115 
L 508.344301 179.032825 
L 529.179097 170.452668 
L 550.013893 159.275567 
L 570.848689 147.200683 
L 591.683486 142.28999 
L 612.518282 130.329588 
L 633.353078 124.852508 
L 654.187874 114.151413 
L 675.02267 107.402975 
" clip-path="url(#pc68394b3c6)" style="fill: none; stroke: #d62728; stroke-width: 1.5; stroke-linecap: square"/>
    <defs>
     <path id="m4ae50d3d1a" d="M 0 3 
C 0.795609 3 1.55874 2.683901 2.12132 2.12132 
C 2.683901 1.55874 3 0.795609 3 0 
C 3 -0.795609 2.683901 -1.55874 2.12132 -2.12132 
C 1.55874 -2.683901 0.795609 -3 0 -3 
C -0.795609 -3 -1.55874 -2.683901 -2.12132 -2.12132 
C -2.683901 -1.55874 -3 -0.795609 -3 0 
C -3 0.795609 -2.683901 1.55874 -2.12132 2.12132 
C -1.55874 2.683901 -0.795609 3 0 3 
z
" style="stroke: #d62728"/>
    </defs>
    <g clip-path="url(#pc68394b3c6)">
     <use xlink:href="#m4ae50d3d1a" x="70.81358" y="360.095829" style="fill: #d62728; stroke: #d62728"/>
     <use xlink:href="#m4ae50d3d1a" x="91.648376" y="352.17244" style="fill: #d62728; stroke: #d62728"/>
     <use xlink:href="#m4ae50d3d1a" x="112.483172" y="349.304354" style="fill: #d62728; stroke: #d62728"/>
     <use xlink:href="#m4ae50d3d1a" x="133.317968" y="339.898718" style="fill: #d62728; stroke: #d62728"/>
     <use xlink:href="#m4ae50d3d1a" x="154.152764" y="331.915075" style="fill: #d62728; stroke: #d62728"/>
     <use xlink:href="#m4ae50d3d1a" x="174.987561" y="322.648023" style="fill: #d62728; stroke: #d62728"/>
     <use xlink:href="#m4ae50d3d1a" x="195.822357" y="314.74271" style="fill: #d62728; stroke: #d62728"/>
     <use xlink:href="#m4ae50d3d1a" x="216.657153" y="307.753256" style="fill: #d62728; stroke: #d62728"/>
     <use xlink:href="#m4ae50d3d1a" x="237.491949" y="298.709144" style="fill: #d62728; stroke: #d62728"/>
     <use xlink:href="#m4ae50d3d1a" x="258.326746" y="287.140393" style="fill: #d62728; stroke: #d62728"/>
     <use xlink:href="#m4ae50d3d1a" x="279.161542" y="278.349347" style="fill: #d62728; stroke: #d62728"/>
     <use xlink:href="#m4ae50d3d1a" x="299.996338" y="271.829874" style="fill: #d62728; stroke: #d62728"/>
     <use xlink:href="#m4ae50d3d1a" x="320.831134" y="263.207539" style="fill: #d62728; stroke: #d62728"/>
     <use xlink:href="#m4ae50d3d1a" x="341.665931" y="252.530546" style="fill: #d62728; stroke: #d62728"/>
     <use xlink:href="#m4ae50d3d1a" x="362.500727" y="241.955985" style="fill: #d62728; stroke: #d62728"/>
     <use xlink:href="#m4ae50d3d1a" x="383.335523" y="232.285232" style="fill: #d62728; stroke: #d62728"/>
     <use xlink:href="#m4ae50d3d1a" x="404.170319" y="225.994724" style="fill: #d62728; stroke: #d62728"/>
     <use xlink:href="#m4ae50d3d1a" x="425.005116" y="212.208629" style="fill: #d62728; stroke: #d62728"/>
     <use xlink:href="#m4ae50d3d1a" x="445.839912" y="207.701636" style="fill: #d62728; stroke: #d62728"/>
     <use xlink:href="#m4ae50d3d1a" x="466.674708" y="197.536801" style="fill: #d62728; stroke: #d62728"/>
     <use xlink:href="#m4ae50d3d1a" x="487.509504" y="188.119115" style="fill: #d62728; stroke: #d62728"/>
     <use xlink:href="#m4ae50d3d1a" x="508.344301" y="179.032825" style="fill: #d62728; stroke: #d62728"/>
     <use xlink:href="#m4ae50d3d1a" x="529.179097" y="170.452668" style="fill: #d62728; stroke: #d62728"/>
     <use xlink:href="#m4ae50d3d1a" x="550.013893" y="159.275567" style="fill: #d62728; stroke: #d62728"/>
     <use xlink:href="#m4ae50d3d1a" x="570.848689" y="147.200683" style="fill: #d62728; stroke: #d62728"/>
     <use xlink:href="#m4ae50d3d1a" x="591.683486" y="142.28999" style="fill: #d62728; stroke: #d62728"/>
     <use xlink:href="#m4ae50d3d1a" x="612.518282" y="130.329588" style="fill: #d62728; stroke: #d62728"/>
     <use xlink:href="#m4ae50d3d1a" x="633.353078" y="124.852508" style="fill: #d62728; stroke: #d62728"/>
     <use xlink:href="#m4ae50d3d1a" x="654.187874" y="114.151413" style="fill: #d62728; stroke: #d62728"/>
     <use xlink:href="#m4ae50d3d1a" x="675.02267" y="107.402975" style="fill: #d62728; stroke: #d62728"/>
    </g>
   </g>
   <g id="patch_3">
    <path d="M 40.603125 386.198125 
L 40.603125 22.318125 
" style="fill: none; stroke: #000000; stroke-width: 0.8; stroke-linejoin: miter; stroke-linecap: square"/>
   </g>
   <g id="patch_4">
    <path d="M 705.233125 386.198125 
L 705.233125 22.318125 
" style="fill: none; stroke: #000000; stroke-width: 0.8; stroke-linejoin: miter; stroke-linecap: square"/>
   </g>
   <g id="patch_5">
    <path d="M 40.603125 386.198125 
L 705.233125 386.198125 
" style="fill: none; stroke: #000000; stroke-width: 0.8; stroke-linejoin: miter; stroke-linecap: square"/>
   </g>
   <g id="patch_6">
    <path d="M 40.603125 22.318125 
L 705.233125 22.318125 
" style="fill: none; stroke: #000000; stroke-width: 0.8; stroke-linejoin: miter; stroke-linecap: square"/>
   </g>
   <g id="text_16">
    <!-- Время выполнения для Sorted -->
    <g transform="translate(277.303438 16.318125) scale(0.12 -0.12)">
     <defs>
      <path id="DejaVuSans-432" d="M 1156 1613 
L 1156 459 
L 1975 459 
Q 2369 459 2575 607 
Q 2781 756 2781 1038 
Q 2781 1319 2575 1466 
Q 2369 1613 1975 1613 
L 1156 1613 
z
M 1156 3041 
L 1156 2072 
L 1913 2072 
Q 2238 2072 2444 2201 
Q 2650 2331 2650 2563 
Q 2650 2794 2444 2917 
Q 2238 3041 1913 3041 
L 1156 3041 
z
M 581 3500 
L 1950 3500 
Q 2566 3500 2897 3275 
Q 3228 3050 3228 2634 
Q 3228 2313 3059 2123 
Q 2891 1934 2559 1888 
Q 2956 1813 3175 1575 
Q 3394 1338 3394 981 
Q 3394 513 3033 256 
Q 2672 0 2003 0 
L 581 0 
L 581 3500 
z
" transform="scale(0.015625)"/>
      <path id="DejaVuSans-43f" d="M 3603 3500 
L 3603 0 
L 3025 0 
L 3025 3041 
L 1159 3041 
L 1159 0 
L 581 0 
L 581 3500 
L 3603 3500 
z
" transform="scale(0.015625)"/>
      <path id="DejaVuSans-43e" d="M 1959 3097 
Q 1497 3097 1228 2736 
Q 959 2375 959 1747 
Q 959 1119 1226 758 
Q 1494 397 1959 397 
Q 2419 397 2687 759 
Q 2956 1122 2956 1747 
Q 2956 2369 2687 2733 
Q 2419 3097 1959 3097 
z
M 1959 3584 
Q 2709 3584 3137 3096 
Q 3566 2609 3566 1747 
Q 3566 888 3137 398 
Q 2709 -91 1959 -91 
Q 1206 -91 779 398 
Q 353 888 353 1747 
Q 353 2609 779 3096 
Q 1206 3584 1959 3584 
z
" transform="scale(0.015625)"/>
      <path id="DejaVuSans-43b" d="M 238 0 
L 238 478 
Q 806 566 981 959 
Q 1194 1513 1194 2928 
L 1194 3500 
L 3559 3500 
L 3559 0 
L 2984 0 
L 2984 3041 
L 1769 3041 
L 1769 2694 
Q 1769 1344 1494 738 
Q 1200 91 238 0 
z
" transform="scale(0.015625)"/>
      <path id="DejaVuSans-438" d="M 3578 3500 
L 3578 0 
L 3006 0 
L 3006 2809 
L 1319 0 
L 581 0 
L 581 3500 
L 1153 3500 
L 1153 697 
L 2838 3500 
L 3578 3500 
z
" transform="scale(0.015625)"/>
      <path id="DejaVuSans-53" d="M 3425 4513 
L 3425 3897 
Q 3066 4069 2747 4153 
Q 2428 4238 2131 4238 
Q 1616 4238 1336 4038 
Q 1056 3838 1056 3469 
Q 1056 3159 1242 3001 
Q 1428 2844 1947 2747 
L 2328 2669 
Q 3034 2534 3370 2195 
Q 3706 1856 3706 1288 
Q 3706 609 3251 259 
Q 2797 -91 1919 -91 
Q 1588 -91 1214 -16 
Q 841 59 441 206 
L 441 856 
Q 825 641 1194 531 
Q 1563 422 1919 422 
Q 2459 422 2753 634 
Q 3047 847 3047 1241 
Q 3047 1584 2836 1778 
Q 2625 1972 2144 2069 
L 1759 2144 
Q 1053 2284 737 2584 
Q 422 2884 422 3419 
Q 422 4038 858 4394 
Q 1294 4750 2059 4750 
Q 2388 4750 2728 4690 
Q 3069 4631 3425 4513 
z
" transform="scale(0.015625)"/>
      <path id="DejaVuSans-6f" d="M 1959 3097 
Q 1497 3097 1228 2736 
Q 959 2375 959 1747 
Q 959 1119 1226 758 
Q 1494 397 1959 397 
Q 2419 397 2687 759 
Q 2956 1122 2956 1747 
Q 2956 2369 2687 2733 
Q 2419 3097 1959 3097 
z
M 1959 3584 
Q 2709 3584 3137 3096 
Q 3566 2609 3566 1747 
Q 3566 888 3137 398 
Q 2709 -91 1959 -91 
Q 1206 -91 779 398 
Q 353 888 353 1747 
Q 353 2609 779 3096 
Q 1206 3584 1959 3584 
z
" transform="scale(0.015625)"/>
      <path id="DejaVuSans-72" d="M 2631 2963 
Q 2534 3019 2420 3045 
Q 2306 3072 2169 3072 
Q 1681 3072 1420 2755 
Q 1159 2438 1159 1844 
L 1159 0 
L 581 0 
L 581 3500 
L 1159 3500 
L 1159 2956 
Q 1341 3275 1631 3429 
Q 1922 3584 2338 3584 
Q 2397 3584 2469 3576 
Q 2541 3569 2628 3553 
L 2631 2963 
z
" transform="scale(0.015625)"/>
      <path id="DejaVuSans-74" d="M 1172 4494 
L 1172 3500 
L 2356 3500 
L 2356 3053 
L 1172 3053 
L 1172 1153 
Q 1172 725 1289 603 
Q 1406 481 1766 481 
L 2356 481 
L 2356 0 
L 1766 0 
Q 1100 0 847 248 
Q 594 497 594 1153 
L 594 3053 
L 172 3053 
L 172 3500 
L 594 3500 
L 594 4494 
L 1172 4494 
z
" transform="scale(0.015625)"/>
      <path id="DejaVuSans-65" d="M 3597 1894 
L 3597 1613 
L 953 1613 
Q 991 1019 1311 708 
Q 1631 397 2203 397 
Q 2534 397 2845 478 
Q 3156 559 3463 722 
L 3463 178 
Q 3153 47 2828 -22 
Q 2503 -91 2169 -91 
Q 1331 -91 842 396 
Q 353 884 353 1716 
Q 353 2575 817 3079 
Q 1281 3584 2069 3584 
Q 2775 3584 3186 3129 
Q 3597 2675 3597 1894 
z
M 3022 2063 
Q 3016 2534 2758 2815 
Q 2500 3097 2075 3097 
Q 1594 3097 1305 2825 
Q 1016 2553 972 2059 
L 3022 2063 
z
" transform="scale(0.015625)"/>
      <path id="DejaVuSans-64" d="M 2906 2969 
L 2906 4863 
L 3481 4863 
L 3481 0 
L 2906 0 
L 2906 525 
Q 2725 213 2448 61 
Q 2172 -91 1784 -91 
Q 1150 -91 751 415 
Q 353 922 353 1747 
Q 353 2572 751 3078 
Q 1150 3584 1784 3584 
Q 2172 3584 2448 3432 
Q 2725 3281 2906 2969 
z
M 947 1747 
Q 947 1113 1208 752 
Q 1469 391 1925 391 
Q 2381 391 2643 752 
Q 2906 1113 2906 1747 
Q 2906 2381 2643 2742 
Q 2381 3103 1925 3103 
Q 1469 3103 1208 2742 
Q 947 2381 947 1747 
z
" transform="scale(0.015625)"/>
     </defs>
     <use xlink:href="#DejaVuSans-412"/>
     <use xlink:href="#DejaVuSans-440" x="68.603516"/>
     <use xlink:href="#DejaVuSans-435" x="132.080078"/>
     <use xlink:href="#DejaVuSans-43c" x="193.603516"/>
     <use xlink:href="#DejaVuSans-44f" x="269.042969"/>
     <use xlink:href="#DejaVuSans-20" x="329.199219"/>
     <use xlink:href="#DejaVuSans-432" x="360.986328"/>
     <use xlink:href="#DejaVuSans-44b" x="419.921875"/>
     <use xlink:href="#DejaVuSans-43f" x="498.876953"/>
     <use xlink:href="#DejaVuSans-43e" x="564.257812"/>
     <use xlink:href="#DejaVuSans-43b" x="625.439453"/>
     <use xlink:href="#DejaVuSans-43d" x="689.355469"/>
     <use xlink:href="#DejaVuSans-435" x="754.736328"/>
     <use xlink:href="#DejaVuSans-43d" x="816.259766"/>
     <use xlink:href="#DejaVuSans-438" x="881.640625"/>
     <use xlink:href="#DejaVuSans-44f" x="946.630859"/>
     <use xlink:href="#DejaVuSans-20" x="1006.787109"/>
     <use xlink:href="#DejaVuSans-434" x="1038.574219"/>
     <use xlink:href="#DejaVuSans-43b" x="1107.714844"/>
     <use xlink:href="#DejaVuSans-44f" x="1171.630859"/>
     <use xlink:href="#DejaVuSans-20" x="1231.787109"/>
     <use xlink:href="#DejaVuSans-53" x="1263.574219"/>
     <use xlink:href="#DejaVuSans-6f" x="1327.050781"/>
     <use xlink:href="#DejaVuSans-72" x="1388.232422"/>
     <use xlink:href="#DejaVuSans-74" x="1429.345703"/>
     <use xlink:href="#DejaVuSans-65" x="1468.554688"/>
     <use xlink:href="#DejaVuSans-64" x="1530.078125"/>
    </g>
   </g>
   <g id="legend_1">
    <g id="patch_7">
     <path d="M 47.603125 89.030625 
L 167.832813 89.030625 
Q 169.832813 89.030625 169.832813 87.030625 
L 169.832813 29.318125 
Q 169.832813 27.318125 167.832813 27.318125 
L 47.603125 27.318125 
Q 45.603125 27.318125 45.603125 29.318125 
L 45.603125 87.030625 
Q 45.603125 89.030625 47.603125 89.030625 
z
" style="fill: #ffffff; opacity: 0.8; stroke: #cccccc; stroke-linejoin: miter"/>
    </g>
    <g id="line2d_31">
     <path d="M 49.603125 35.416562 
L 59.603125 35.416562 
L 69.603125 35.416562 
" style="fill: none; stroke: #1f77b4; stroke-width: 1.5; stroke-linecap: square"/>
     <g>
      <use xlink:href="#m62f8fe06ea" x="59.603125" y="35.416562" style="fill: #1f77b4; stroke: #1f77b4"/>
     </g>
    </g>
    <g id="text_17">
     <!-- Merge Sort -->
     <g transform="translate(77.603125 38.916562) scale(0.1 -0.1)">
      <defs>
       <path id="DejaVuSans-4d" d="M 628 4666 
L 1569 4666 
L 2759 1491 
L 3956 4666 
L 4897 4666 
L 4897 0 
L 4281 0 
L 4281 4097 
L 3078 897 
L 2444 897 
L 1241 4097 
L 1241 0 
L 628 0 
L 628 4666 
z
" transform="scale(0.015625)"/>
       <path id="DejaVuSans-67" d="M 2906 1791 
Q 2906 2416 2648 2759 
Q 2391 3103 1925 3103 
Q 1463 3103 1205 2759 
Q 947 2416 947 1791 
Q 947 1169 1205 825 
Q 1463 481 1925 481 
Q 2391 481 2648 825 
Q 2906 1169 2906 1791 
z
M 3481 434 
Q 3481 -459 3084 -895 
Q 2688 -1331 1869 -1331 
Q 1566 -1331 1297 -1286 
Q 1028 -1241 775 -1147 
L 775 -588 
Q 1028 -725 1275 -790 
Q 1522 -856 1778 -856 
Q 2344 -856 2625 -561 
Q 2906 -266 2906 331 
L 2906 616 
Q 2728 306 2450 153 
Q 2172 0 1784 0 
Q 1141 0 747 490 
Q 353 981 353 1791 
Q 353 2603 747 3093 
Q 1141 3584 1784 3584 
Q 2172 3584 2450 3431 
Q 2728 3278 2906 2969 
L 2906 3500 
L 3481 3500 
L 3481 434 
z
" transform="scale(0.015625)"/>
      </defs>
      <use xlink:href="#DejaVuSans-4d"/>
      <use xlink:href="#DejaVuSans-65" x="86.279297"/>
      <use xlink:href="#DejaVuSans-72" x="147.802734"/>
      <use xlink:href="#DejaVuSans-67" x="187.166016"/>
      <use xlink:href="#DejaVuSans-65" x="250.642578"/>
      <use xlink:href="#DejaVuSans-20" x="312.166016"/>
      <use xlink:href="#DejaVuSans-53" x="343.953125"/>
      <use xlink:href="#DejaVuSans-6f" x="407.429688"/>
      <use xlink:href="#DejaVuSans-72" x="468.611328"/>
      <use xlink:href="#DejaVuSans-74" x="509.724609"/>
     </g>
    </g>
    <g id="line2d_32">
     <path d="M 49.603125 50.094687 
L 59.603125 50.094687 
L 69.603125 50.094687 
" style="fill: none; stroke: #ff7f0e; stroke-width: 1.5; stroke-linecap: square"/>
     <g>
      <use xlink:href="#m71de0cfc1c" x="59.603125" y="50.094687" style="fill: #ff7f0e; stroke: #ff7f0e"/>
     </g>
    </g>
    <g id="text_18">
     <!-- Quick Sort -->
     <g transform="translate(77.603125 53.594687) scale(0.1 -0.1)">
      <defs>
       <path id="DejaVuSans-51" d="M 2522 4238 
Q 1834 4238 1429 3725 
Q 1025 3213 1025 2328 
Q 1025 1447 1429 934 
Q 1834 422 2522 422 
Q 3209 422 3611 934 
Q 4013 1447 4013 2328 
Q 4013 3213 3611 3725 
Q 3209 4238 2522 4238 
z
M 3406 84 
L 4238 -825 
L 3475 -825 
L 2784 -78 
Q 2681 -84 2626 -87 
Q 2572 -91 2522 -91 
Q 1538 -91 948 567 
Q 359 1225 359 2328 
Q 359 3434 948 4092 
Q 1538 4750 2522 4750 
Q 3503 4750 4090 4092 
Q 4678 3434 4678 2328 
Q 4678 1516 4351 937 
Q 4025 359 3406 84 
z
" transform="scale(0.015625)"/>
       <path id="DejaVuSans-75" d="M 544 1381 
L 544 3500 
L 1119 3500 
L 1119 1403 
Q 1119 906 1312 657 
Q 1506 409 1894 409 
Q 2359 409 2629 706 
Q 2900 1003 2900 1516 
L 2900 3500 
L 3475 3500 
L 3475 0 
L 2900 0 
L 2900 538 
Q 2691 219 2414 64 
Q 2138 -91 1772 -91 
Q 1169 -91 856 284 
Q 544 659 544 1381 
z
M 1991 3584 
L 1991 3584 
z
" transform="scale(0.015625)"/>
       <path id="DejaVuSans-69" d="M 603 3500 
L 1178 3500 
L 1178 0 
L 603 0 
L 603 3500 
z
M 603 4863 
L 1178 4863 
L 1178 4134 
L 603 4134 
L 603 4863 
z
" transform="scale(0.015625)"/>
       <path id="DejaVuSans-63" d="M 3122 3366 
L 3122 2828 
Q 2878 2963 2633 3030 
Q 2388 3097 2138 3097 
Q 1578 3097 1268 2742 
Q 959 2388 959 1747 
Q 959 1106 1268 751 
Q 1578 397 2138 397 
Q 2388 397 2633 464 
Q 2878 531 3122 666 
L 3122 134 
Q 2881 22 2623 -34 
Q 2366 -91 2075 -91 
Q 1284 -91 818 406 
Q 353 903 353 1747 
Q 353 2603 823 3093 
Q 1294 3584 2113 3584 
Q 2378 3584 2631 3529 
Q 2884 3475 3122 3366 
z
" transform="scale(0.015625)"/>
       <path id="DejaVuSans-6b" d="M 581 4863 
L 1159 4863 
L 1159 1991 
L 2875 3500 
L 3609 3500 
L 1753 1863 
L 3688 0 
L 2938 0 
L 1159 1709 
L 1159 0 
L 581 0 
L 581 4863 
z
" transform="scale(0.015625)"/>
      </defs>
      <use xlink:href="#DejaVuSans-51"/>
      <use xlink:href="#DejaVuSans-75" x="78.710938"/>
      <use xlink:href="#DejaVuSans-69" x="142.089844"/>
      <use xlink:href="#DejaVuSans-63" x="169.873047"/>
      <use xlink:href="#DejaVuSans-6b" x="224.853516"/>
      <use xlink:href="#DejaVuSans-20" x="282.763672"/>
      <use xlink:href="#DejaVuSans-53" x="314.550781"/>
      <use xlink:href="#DejaVuSans-6f" x="378.027344"/>
      <use xlink:href="#DejaVuSans-72" x="439.208984"/>
      <use xlink:href="#DejaVuSans-74" x="480.322266"/>
     </g>
    </g>
    <g id="line2d_33">
     <path d="M 49.603125 64.772812 
L 59.603125 64.772812 
L 69.603125 64.772812 
" style="fill: none; stroke: #2ca02c; stroke-width: 1.5; stroke-linecap: square"/>
     <g>
      <use xlink:href="#m546a94e326" x="59.603125" y="64.772812" style="fill: #2ca02c; stroke: #2ca02c"/>
     </g>
    </g>
    <g id="text_19">
     <!-- Radix Sort -->
     <g transform="translate(77.603125 68.272812) scale(0.1 -0.1)">
      <defs>
       <path id="DejaVuSans-52" d="M 2841 2188 
Q 3044 2119 3236 1894 
Q 3428 1669 3622 1275 
L 4263 0 
L 3584 0 
L 2988 1197 
Q 2756 1666 2539 1819 
Q 2322 1972 1947 1972 
L 1259 1972 
L 1259 0 
L 628 0 
L 628 4666 
L 2053 4666 
Q 2853 4666 3247 4331 
Q 3641 3997 3641 3322 
Q 3641 2881 3436 2590 
Q 3231 2300 2841 2188 
z
M 1259 4147 
L 1259 2491 
L 2053 2491 
Q 2509 2491 2742 2702 
Q 2975 2913 2975 3322 
Q 2975 3731 2742 3939 
Q 2509 4147 2053 4147 
L 1259 4147 
z
" transform="scale(0.015625)"/>
       <path id="DejaVuSans-61" d="M 2194 1759 
Q 1497 1759 1228 1600 
Q 959 1441 959 1056 
Q 959 750 1161 570 
Q 1363 391 1709 391 
Q 2188 391 2477 730 
Q 2766 1069 2766 1631 
L 2766 1759 
L 2194 1759 
z
M 3341 1997 
L 3341 0 
L 2766 0 
L 2766 531 
Q 2569 213 2275 61 
Q 1981 -91 1556 -91 
Q 1019 -91 701 211 
Q 384 513 384 1019 
Q 384 1609 779 1909 
Q 1175 2209 1959 2209 
L 2766 2209 
L 2766 2266 
Q 2766 2663 2505 2880 
Q 2244 3097 1772 3097 
Q 1472 3097 1187 3025 
Q 903 2953 641 2809 
L 641 3341 
Q 956 3463 1253 3523 
Q 1550 3584 1831 3584 
Q 2591 3584 2966 3190 
Q 3341 2797 3341 1997 
z
" transform="scale(0.015625)"/>
       <path id="DejaVuSans-78" d="M 3513 3500 
L 2247 1797 
L 3578 0 
L 2900 0 
L 1881 1375 
L 863 0 
L 184 0 
L 1544 1831 
L 300 3500 
L 978 3500 
L 1906 2253 
L 2834 3500 
L 3513 3500 
z
" transform="scale(0.015625)"/>
      </defs>
      <use xlink:href="#DejaVuSans-52"/>
      <use xlink:href="#DejaVuSans-61" x="67.232422"/>
      <use xlink:href="#DejaVuSans-64" x="128.511719"/>
      <use xlink:href="#DejaVuSans-69" x="191.988281"/>
      <use xlink:href="#DejaVuSans-78" x="219.771484"/>
      <use xlink:href="#DejaVuSans-20" x="278.951172"/>
      <use xlink:href="#DejaVuSans-53" x="310.738281"/>
      <use xlink:href="#DejaVuSans-6f" x="374.214844"/>
      <use xlink:href="#DejaVuSans-72" x="435.396484"/>
      <use xlink:href="#DejaVuSans-74" x="476.509766"/>
     </g>
    </g>
    <g id="line2d_34">
     <path d="M 49.603125 79.450937 
L 59.603125 79.450937 
L 69.603125 79.450937 
" style="fill: none; stroke: #d62728; stroke-width: 1.5; stroke-linecap: square"/>
     <g>
      <use xlink:href="#m4ae50d3d1a" x="59.603125" y="79.450937" style="fill: #d62728; stroke: #d62728"/>
     </g>
    </g>
    <g id="text_20">
     <!-- Radix+Quick Sort -->
     <g transform="translate(77.603125 82.950937) scale(0.1 -0.1)">
      <defs>
       <path id="DejaVuSans-2b" d="M 2944 4013 
L 2944 2272 
L 4684 2272 
L 4684 1741 
L 2944 1741 
L 2944 0 
L 2419 0 
L 2419 1741 
L 678 1741 
L 678 2272 
L 2419 2272 
L 2419 4013 
L 2944 4013 
z
" transform="scale(0.015625)"/>
      </defs>
      <use xlink:href="#DejaVuSans-52"/>
      <use xlink:href="#DejaVuSans-61" x="67.232422"/>
      <use xlink:href="#DejaVuSans-64" x="128.511719"/>
      <use xlink:href="#DejaVuSans-69" x="191.988281"/>
      <use xlink:href="#DejaVuSans-78" x="219.771484"/>
      <use xlink:href="#DejaVuSans-2b" x="278.951172"/>
      <use xlink:href="#DejaVuSans-51" x="362.740234"/>
      <use xlink:href="#DejaVuSans-75" x="441.451172"/>
      <use xlink:href="#DejaVuSans-69" x="504.830078"/>
      <use xlink:href="#DejaVuSans-63" x="532.613281"/>
      <use xlink:href="#DejaVuSans-6b" x="587.59375"/>
      <use xlink:href="#DejaVuSans-20" x="645.503906"/>
      <use xlink:href="#DejaVuSans-53" x="677.291016"/>
      <use xlink:href="#DejaVuSans-6f" x="740.767578"/>
      <use xlink:href="#DejaVuSans-72" x="801.949219"/>
      <use xlink:href="#DejaVuSans-74" x="843.0625"/>
     </g>
    </g>
   </g>
  </g>
 </g>
 <defs>
  <clipPath id="pc68394b3c6">
   <rect x="40.603125" y="22.318125" width="664.63" height="363.88"/>
  </clipPath>
 </defs>
</svg>
